<?xml version="1.0" encoding="UTF-8" standalone="no"?>
<svg
   xml:space="preserve"
   width="70"
   height="70"
   viewBox="0 0 18.521 18.521"
   version="1.1"
   id="svg5"
   sodipodi:docname="home_icon_6.svg"
   inkscape:version="1.3 (0e150ed6c4, 2023-07-21)"
   xmlns:inkscape="http://www.inkscape.org/namespaces/inkscape"
   xmlns:sodipodi="http://sodipodi.sourceforge.net/DTD/sodipodi-0.dtd"
   xmlns="http://www.w3.org/2000/svg"
   xmlns:svg="http://www.w3.org/2000/svg"><defs
     id="defs5"><inkscape:path-effect
       effect="skeletal"
       id="path-effect7"
       is_visible="true"
       lpeversion="1"
       pattern="m 2.9581228,4.1644119 c -0.381297,1.044903 -1.2110985,1.807264 -2.07224251,2.462921 -0.8368473,0.792338 -1.5521603,2.616307 -0.4418383,3.4261781 l 0.4196173,-0.04651 c 0.28548701,-0.3695881 0.0765,-0.6035061 0.06201,-0.7017721 C 0.39788113,6.9850697 3.6245555,5.4444838 2.9581208,4.1644109 Z"
       copytype="repeated_stretched"
       prop_scale="1.32"
       scale_y_rel="false"
       spacing="-0.2"
       normal_offset="-1.1"
       tang_offset="1.4"
       prop_units="false"
       vertical_pattern="false"
       hide_knot="false"
       fuse_tolerance="0" /><inkscape:path-effect
       effect="skeletal"
       id="path-effect5"
       is_visible="true"
       lpeversion="1"
       pattern="m 4.1744825,7.487046 -0.6773737,-0.4911363 -0.00453,0.00323 a 0.6775215,0.49126613 0 0 0 -0.062402,-0.00323 0.6775215,0.49126613 0 0 0 -0.6773737,0.4911363 0.6775215,0.49126613 0 0 0 0.6773737,0.4914596 0.6775215,0.49126613 0 0 0 0.063373,-0.00226 V 7.975919 l 0.00356,0.00258 z m -0.349195,0 -0.3640681,0.2641595 -0.00194,-0.00129 A 0.3640262,0.26395287 0 0 1 3.4253273,7.7512055 0.3640262,0.26395287 0 0 1 3.061259,7.487046 0.3640262,0.26395287 0 0 1 3.4253273,7.2232098 a 0.3640262,0.26395287 0 0 1 0.033626,0.00162 l 0.00226,-0.00162 z"
       copytype="repeated_stretched"
       prop_scale="1"
       scale_y_rel="false"
       spacing="1.9"
       normal_offset="-0.5"
       tang_offset="0"
       prop_units="false"
       vertical_pattern="false"
       hide_knot="false"
       fuse_tolerance="0" /></defs><sodipodi:namedview
     id="namedview5"
     pagecolor="#ffffff"
     bordercolor="#000000"
     borderopacity="0.25"
     inkscape:showpageshadow="2"
     inkscape:pageopacity="0.0"
     inkscape:pagecheckerboard="0"
     inkscape:deskcolor="#d1d1d1"
     inkscape:zoom="8"
     inkscape:cx="34.875"
     inkscape:cy="41.25"
     inkscape:window-width="1920"
     inkscape:window-height="991"
     inkscape:window-x="-9"
     inkscape:window-y="-9"
     inkscape:window-maximized="1"
     inkscape:current-layer="svg5" /><path
     id="rect21"
     style="opacity:1;fill:#ceced0;fill-opacity:1;stroke:none;stroke-width:0.557189;stroke-linecap:square;stroke-dasharray:none;stroke-opacity:1"
     d="M 9.5815348,0.12994829 C 9.2050743,1.3110954 8.231145,2.1364245 7.3357014,2.9263463 6.674076,3.736301 6.1684429,4.9440473 6.6807761,5.949966 5.9215189,6.287927 5.6427645,7.1528546 5.7231068,7.9265929 c 0,0.362457 0,0.724914 0,1.0873711 C 4.861688,8.9186281 4.0791403,8.413536 3.6354958,7.6653506 2.9610784,6.7134106 2.8209667,5.437596 1.9670333,4.6144862 0.97084541,4.0851461 2.2704656,5.3279358 2.2778025,5.8262975 c 0.401391,0.9511979 0.2916159,2.0859579 1.0077278,2.9009586 0.5435329,0.7323036 1.4709555,1.4844379 2.4375765,1.1486103 0.037996,0.8528476 -0.1907267,1.8618546 0.5320146,2.5045936 1.0524066,0.398834 -0.2596035,0.84697 -0.811158,0.934052 -1.2622844,0.23436 -2.5294732,-0.321129 -3.783044,-0.07776 -0.4120438,0.115842 -0.69161703,0.532321 -0.08291,0.32641 1.0876105,-0.114956 2.1253037,0.2927 3.1388685,0.613785 1.0664747,0.168033 2.4697207,-0.02928 2.9952147,-1.101336 0.054036,-0.415895 0.6015077,-0.152295 0.9053554,-0.226072 0.7483243,0 1.49665,0 2.244973,0 0.493898,1.265938 -0.344297,2.523998 -1.0946508,3.489034 -0.4505972,0.503337 -1.2381583,1.701619 -0.7920717,2.052479 0.397388,-1.132337 1.3420885,-1.923613 2.2095995,-2.692564 0.661654,-0.810144 1.167244,-2.018078 0.654924,-3.024158 0.759257,-0.337961 1.038012,-1.202888 0.957669,-1.976627 0,-0.318201 0,-0.6364 0,-0.9546011 1.045161,-0.1697634 1.860985,0.7448651 2.30682,1.5839631 0.520558,0.8722 0.684431,1.973499 1.449253,2.682747 0.996188,0.52934 -0.30343,-0.71345 -0.310768,-1.211812 C 15.841145,11.850129 15.955288,10.715441 15.23552,9.9061455 14.690482,9.1791246 13.752437,8.4573014 12.797892,8.8039294 12.754486,7.9337922 13.00068,6.9028529 12.265877,6.2438348 11.213469,5.8449996 12.52548,5.3968629 13.077036,5.3097809 c 1.262284,-0.2343607 2.529472,0.3211296 3.783045,0.077763 0.412044,-0.115842 0.691616,-0.5323209 0.08291,-0.3264092 -1.087613,0.114956 -2.125307,-0.292692 -3.13887,-0.6137863 -1.066474,-0.1680348 -2.469724,0.029281 -2.995214,1.1013351 -0.05404,0.4158956 -0.601507,0.1522975 -0.9053563,0.2260726 -0.7483242,0 -1.4966485,0 -2.2449727,0 C 7.1646798,4.5088196 8.0028788,3.2507587 8.7532321,2.2857227 9.1647086,1.6673205 9.9565421,0.93613256 9.5815384,0.12994829 Z" /><path
     id="path23-1"
     style="color:#000000;fill:#d2bb89;fill-opacity:1;stroke:#bf9950;stroke-width:0.254378;stroke-linecap:square;stroke-dasharray:none;stroke-opacity:0.639216"
     inkscape:transform-center-x="0.37857164"
     inkscape:transform-center-y="5.367088"
     d="M 11.056564,0.47301865 C 10.675266,1.5179226 9.8454274,2.2806508 8.9842814,2.9363083 8.2466954,3.5999016 7.9397194,4.6488211 8.1188014,5.6142292 7.3361484,5.5998186 6.4212574,5.5568362 5.8939904,6.2591163 5.3137864,5.6119813 5.2634224,4.716486 5.2605304,3.8941992 5.0901314,3.2165674 4.9577394,2.0147975 4.3254944,1.7747168 c 0.457181,0.9911745 0.433744,2.0989442 0.279219,3.1538852 -0.100495,0.9445916 0.468695,1.8009603 1.022976,2.4503723 v 2.107061 c -1.151225,0.261602 -2.239049,-0.358844 -2.979995,-1.194879 -0.600321,-0.359671 -1.54285,-1.11068 -2.16071895,-0.838154 1.05074295,0.379993 1.80914295,1.217252 2.47074195,2.077748 0.638624,0.7892097 1.811926,0.9653207 2.669972,0.9096977 0.02826,0.710068 -0.168471,1.5795 0.52515,2.052411 0.06459,0.520806 -1.277465,0.792228 -1.886965,0.728355 -0.809252,0.0954 -2.127652,0.275716 -2.478195,0.960871 0.992044,-0.457077 2.100396,-0.43115 3.155873,-0.277232 0.942801,0.09914 1.802007,-0.465896 2.446894,-1.023969 h 2.110043 c 0.261753,1.151223 -0.35921,2.238547 -1.194879,2.979498 -0.359565,0.600829 -1.111052,1.542646 -0.838155,2.161713 0.38074,-1.044616 1.209137,-1.808141 2.070296,-2.46329 0.7375846,-0.663594 1.0445596,-1.712512 0.8654806,-2.677921 0.782959,0.01451 1.698373,0.05724 2.225307,-0.645881 0.580122,0.646915 0.628833,1.54261 0.632466,2.36442 0.170359,0.678987 0.306064,1.876377 0.935534,2.120973 -0.457094,-0.991429 -0.431847,-2.099416 -0.277729,-3.154382 0.10062,-0.9454 -0.469159,-1.80243 -1.024465,-2.451862 V 9.0090773 c 1.151222,-0.261602 2.239051,0.358843 2.979993,1.1948797 0.600324,0.359671 1.542848,1.110676 2.16072,0.838155 -1.044395,-0.380623 -1.806655,-1.2096747 -2.4618,-2.0702967 -0.663839,-0.737793 -1.713343,-1.043893 -2.678913,-0.864486 -0.03416,-0.726352 0.182003,-1.617872 -0.525649,-2.105572 -0.06498,-0.5210946 1.277644,-0.793449 1.887462,-0.7293481 0.808239,-0.095187 2.131587,-0.2740921 2.478195,-0.9593812 -0.992035,0.4570748 -2.100404,0.4311552 -3.155873,0.2772318 -0.9431,-0.099651 -1.801608,0.4671525 -2.446894,1.0239694 H 9.0240284 C 8.7620944,4.4627688 9.3819484,3.3742384 10.21841,2.6332413 10.554252,2.0648717 11.356189,1.0485311 11.056564,0.47301865 Z"
     sodipodi:nodetypes="ccccccccccccccccccccccccccccccccccccccccc" /><rect
     style="opacity:1;fill:#fac10e;fill-opacity:1;stroke:none;stroke-width:0.529171;stroke-linecap:square;stroke-dasharray:none;stroke-opacity:1"
     id="rect24"
     width="0"
     height="0"
     x="10.533818"
     y="6.9040337"
     rx="0"
     ry="0" /><rect
     style="fill:#0242be;fill-opacity:1;stroke:#ceced0;stroke-width:0.547373;stroke-linecap:square;stroke-dasharray:none;stroke-opacity:1"
     id="rect23"
     width="5.7019577"
     height="5.6195974"
     x="6.4095211"
     y="6.4507012"
     rx="0.98040682"
     ry="0.9851079" /><path
     id="path30"
     style="fill:#e3e5e4;fill-opacity:1;stroke:none;stroke-width:0.0400912;stroke-dasharray:none;stroke-opacity:1"
     d="m 9.2604663,6.9713138 a 0.23464066,0.2265783 0 0 0 -0.2345179,0.2262961 0.23464066,0.2265783 0 0 0 7.797e-4,0.021139 l -7.797e-4,0.00123 0.2345179,0.2266883 0.234518,-0.2266883 -0.00157,-0.00123 a 0.23464066,0.2265783 0 0 0 0.00157,-0.021139 0.23464066,0.2265783 0 0 0 -0.234518,-0.2262961 z m 0,0.1029658 a 0.12607031,0.12173849 0 0 1 0.126068,0.1217623 0.12607031,0.12173849 0 0 1 -7.798e-4,0.011356 L 9.3865343,7.2081773 9.2604663,7.3299421 9.1343985,7.208181 9.1351783,7.2074001 A 0.12607031,0.12173849 0 0 1 9.1343985,7.1960445 0.12607031,0.12173849 0 0 1 9.2604663,7.0742835 Z M 8.6148561,7.1752893 c -0.2251064,0.00559 -0.4257228,0.079917 -0.4404559,0.1511256 -0.027193,0.08329 0.05937,0.1674541 0.1930179,0.1883187 0.133662,0.020837 0.2637418,-0.029462 0.2908966,-0.1127563 0.00146,-0.096038 -0.1618244,-0.1477359 0.023105,-0.1100157 0.1805616,0.036825 0.5516897,0.1924358 0.2897222,0.4259695 l 0.055203,0.03524 -3.921e-4,7.798e-4 0.234518,0.2262963 0.2345179,-0.2262963 -7.798e-4,-7.798e-4 0.055203,-0.035238 C 9.2874367,7.4843962 9.6581766,7.3287904 9.83874,7.2919625 c 0.184925,-0.037719 0.022457,0.013977 0.023875,0.1100158 0.027149,0.08329 0.157234,0.1335905 0.290897,0.1127563 0.133653,-0.02086 0.220217,-0.1050328 0.193017,-0.1883195 C 10.315376,7.1758728 9.4540439,7.0135267 9.2839574,7.5100358 9.2681816,7.5086911 9.2523498,7.5090683 9.2365865,7.5104269 9.1524806,7.2640414 8.8985432,7.1793138 8.6598837,7.1752896 c -0.015183,-2.57e-4 -0.03002,-3.743e-4 -0.045025,0 z M 8.2961623,7.7727431 v 7.798e-4 c -0.083548,0 -0.1766523,0.0038 -0.2791509,0.011742 l -0.4349746,0.031316 c -0.1733017,0.012202 -0.2037624,0.022937 -0.2043713,0.072432 0,0.00928 0.036479,0.021775 0.081436,0.027016 0.044924,0.00525 0.099592,0.022882 0.1209792,0.038757 0.077626,0.057595 0.079235,0.081626 0.074777,1.0723631 C 7.4564593,9.1645685 7.3249382,8.8456279 7.2915296,8.6818338 7.2538103,8.4969106 7.3055052,8.6601593 7.4015472,8.6587292 7.484838,8.6315689 7.5351376,8.5014945 7.5143031,8.3678327 7.4960473,8.2508915 7.4294928,8.1699023 7.3573053,8.1697257 c -0.01031,-2.56e-5 -0.020912,0.00168 -0.031321,0.00514 -0.071204,0.014736 -0.1455187,0.2153495 -0.1511251,0.4404559 -3.742e-4,0.015005 -2.562e-4,0.029842 0,0.045025 0.00403,0.2386597 0.088751,0.4925944 0.3351381,0.576703 -0.00134,0.015768 -0.00168,0.031603 -3.922e-4,0.047373 -0.4965088,0.1700822 -0.3341623,1.0314174 -0.1836205,1.0625664 0.077221,0.02521 0.1544782,-0.04799 0.1820552,-0.165218 0.089502,0.0027 0.2199973,0.004 0.368808,0.0031 l 0.460031,-0.0039 v -0.03799 c 0,-0.03362 -0.010061,-0.03955 -0.087313,-0.05481 C 8.1334135,10.065018 8.0846433,10.030441 8.0647709,9.9586021 8.0542744,9.9207253 8.0482244,9.5510161 8.0479342,8.9140382 V 7.9278148 l 0.055986,-0.010945 c 0.03059,-0.00581 0.1062168,-0.00659 0.1679601,-0.00191 0.3279636,0.024401 0.5164957,0.1989303 0.5168006,0.4792165 3.071e-4,0.1671905 -0.036802,0.2610571 -0.148384,0.3805533 -0.096909,0.1036246 -0.1975651,0.1672229 -0.311255,0.1965417 l -0.1288086,0.033282 c -0.07061,0.018323 -0.073917,0.036333 -0.012128,0.06813 0.066018,0.034232 0.1015352,0.076732 0.1828376,0.2188573 0.039114,0.068778 0.1008653,0.1739201 0.1366393,0.2341268 0.036065,0.059891 0.070141,0.1219192 0.07595,0.1378136 0.015686,0.041874 0.1440781,0.2207983 0.2556599,0.355887 0.051762,0.06257 0.1074794,0.122434 0.1671782,0.180099 -0.055002,0.04831 -0.1071221,0.09236 -0.1483849,0.121375 -0.1567957,0.111252 -0.3655309,0.208969 -0.5211078,0.243522 -0.2628593,0.05805 -0.6066978,0.03237 -0.7873398,-0.05873 -0.078543,-0.03943 -0.106507,-0.03733 -0.078698,0.0062 0.027596,0.0443 0.2918573,0.174415 0.4193142,0.20711 0.095368,0.02442 0.1686842,0.03092 0.3343551,0.02936 0.1164631,-9.5e-4 0.2498356,-0.008 0.2959857,-0.01565 0.1170757,-0.01905 0.3291467,-0.09256 0.4890035,-0.168352 0.081302,-0.03881 0.1666074,-0.09097 0.2509628,-0.151518 0.084352,0.06054 0.1695859,0.112697 0.2505696,0.151518 0.1601663,0.07578 0.3726378,0.149117 0.4893943,0.168352 0.04647,0.008 0.179241,0.01495 0.295989,0.01565 0.165657,0.0016 0.23868,-0.0049 0.334354,-0.02936 0.127443,-0.03241 0.391497,-0.162787 0.419314,-0.20711 0.02759,-0.0437 1.6e-4,-0.04584 -0.07869,-0.0062 -0.18033,0.09111 -0.524779,0.11678 -0.787339,0.05873 -0.155589,-0.03454 -0.3644004,-0.132272 -0.5215076,-0.243526 a 1.8339187,1.8339187 0 0 1 -0.1479968,-0.12137 c 0.059705,-0.05766 0.1154146,-0.11754 0.1671771,-0.180097 0.1112671,-0.1350952 0.240054,-0.3140948 0.2556597,-0.3562795 0.00604,-0.01513 0.039808,-0.077215 0.075571,-0.1374221 0.03606,-0.059891 0.09792,-0.1653763 0.137031,-0.2341267 0.0813,-0.1421213 0.11682,-0.1842338 0.182837,-0.218466 0.06141,-0.031786 0.05814,-0.050175 -0.01208,-0.068521 L 10.191928,8.9712738 C 10.077881,8.9419336 9.9774224,8.8783287 9.8802241,8.774732 9.7686669,8.6552177 9.7319094,8.5610684 9.7322312,8.3941784 c 0,-0.2802927 0.1888495,-0.4550715 0.5168018,-0.4792153 0.06141,-0.00458 0.137075,-0.00313 0.16796,0.00234 l 0.0556,0.010608 v 0.9858401 c 0,0.6369795 -0.006,1.0066631 -0.01646,1.0445636 -0.01978,0.071831 -0.06894,0.1062722 -0.184796,0.1292012 -0.07732,0.01536 -0.08731,0.02208 -0.08731,0.05521 v 0.03799 l 0.460031,0.0039 c 0.148559,0.0012 0.2789,-4.05e-4 0.368417,-0.0031 0.02748,0.117502 0.105139,0.190862 0.182446,0.165612 0.150543,-0.03115 0.312888,-0.8924869 -0.18362,-1.0625738 0.0014,-0.015772 9.5e-4,-0.031605 -3.91e-4,-0.047372 0.246386,-0.084106 0.331113,-0.3380433 0.335136,-0.5767029 2.56e-4,-0.015183 3.75e-4,-0.03002 0,-0.045025 -0.0057,-0.2251063 -0.07991,-0.4257228 -0.151125,-0.4404559 -0.01033,-0.00335 -0.02102,-0.00514 -0.03133,-0.00514 -0.07218,1.765e-4 -0.138742,0.081167 -0.156997,0.1981069 -0.02084,0.133662 0.02947,0.2637421 0.112758,0.2908966 0.09605,0.00146 0.147737,-0.1618231 0.11002,0.023093 -0.03342,0.1638309 -0.164851,0.4829782 -0.363326,0.3453177 -0.0045,-0.9909281 -0.003,-1.0151344 0.07478,-1.0727553 0.0215,-0.015976 0.07604,-0.033551 0.120976,-0.038757 0.0449,-0.00525 0.08143,-0.017418 0.08143,-0.027016 -9.51e-4,-0.049516 -0.03144,-0.060197 -0.204764,-0.072432 L 10.503509,7.7849248 C 10.091455,7.7543457 9.8513523,7.7804548 9.6468713,7.8773208 9.4995466,7.9470031 9.4362077,8.004783 9.3775075,8.1239766 c -0.047975,0.097815 -0.05212,0.116143 -0.050902,0.2537023 0.00123,0.185825 0.034412,0.2672668 0.1597384,0.3950396 0.1124836,0.1146339 0.1981863,0.1688831 0.3504069,0.2223814 l 0.1201984,0.042255 -0.079872,0.087704 A 3.0565308,3.0565308 0 0 0 9.6668422,9.4105494 C 9.5953271,9.5193714 9.5030527,9.6504811 9.4620785,9.7018372 L 9.3195669,9.8823259 c -0.016267,0.020694 -0.036578,0.04414 -0.059516,0.068905 A 1.5282654,1.5282654 0 0 1 9.2009374,9.8827244 L 9.0580524,9.7021385 A 5.5017559,5.5017559 0 0 1 8.8540732,9.4104592 3.0565308,3.0565308 0 0 0 8.6438285,9.1250438 L 8.5631741,9.0373395 8.684152,8.9950512 A 0.79469804,0.79469804 0 0 0 9.033777,8.7726706 C 9.1593957,8.6449011 9.1930082,8.5634594 9.1939064,8.3776311 9.1948238,8.2401001 9.1910015,8.2217382 9.1430046,8.1239287 9.0843044,8.004733 9.0209633,7.9469546 8.8736419,7.877273 8.7202147,7.8045401 8.5467923,7.7718048 8.2961557,7.7727432 Z M 7.1971764,9.0263774 A 0.2265783,0.23464066 0 0 0 6.97088,9.2608957 a 0.2265783,0.23464066 0 0 0 0.2262963,0.2345182 0.2265783,0.23464066 0 0 0 0.021141,-0.00158 l 0.00117,0.00158 0.2266914,-0.2345182 -0.2266881,-0.2345183 -0.00117,7.809e-4 a 0.2265783,0.23464066 0 0 0 -0.021142,-7.809e-4 z m 4.1042636,0 -0.226689,0.2345183 0.226689,0.2345182 0.0012,-0.00158 A 0.2265783,0.23464066 0 0 0 11.3238,9.4954139 0.2265783,0.23464066 0 0 0 11.550095,9.2608957 0.2265783,0.23464066 0 0 0 11.3238,9.0263774 0.2265783,0.23464066 0 0 0 11.30264,9.0271583 Z M 7.1956104,9.1348293 a 0.12173849,0.12607031 0 0 1 0.011356,7.809e-4 L 7.207746,9.1348293 7.3295071,9.2608975 7.207746,9.3869658 7.2069657,9.3861855 A 0.12173849,0.12607031 0 0 1 7.1956101,9.3869658 0.12173849,0.12607031 0 0 1 7.0738491,9.2608975 0.12173849,0.12607031 0 0 1 7.1956104,9.1348293 Z m 4.1175746,0 7.59e-4,7.809e-4 a 0.12173849,0.12607031 0 0 1 0.01133,-7.809e-4 0.12173849,0.12607031 0 0 1 0.121761,0.1260683 0.12173849,0.12607031 0 0 1 -0.121761,0.1260683 0.12173849,0.12607031 0 0 1 -0.01133,-7.803e-4 l -7.59e-4,7.803e-4 -0.121761,-0.1260683 z M 7.5577624,9.4590041 c 0.029518,-4.541e-4 0.061203,0.010945 0.094743,0.03367 l -0.00234,0.4960497 -0.049718,0.044638 a 0.25980514,0.25980514 0 0 1 -0.082609,0.04464 C 7.5137036,9.9740806 7.4688466,9.8849955 7.4015549,9.8630588 7.3055145,9.8615647 7.2538202,10.024097 7.2915379,9.8391773 7.3191598,9.7037559 7.4137559,9.4612296 7.5577684,9.4590143 Z m 3.4054066,0 c 0.144014,0.00222 0.23861,0.2447406 0.266232,0.380162 0.03773,0.1849249 -0.014,0.022462 -0.11002,0.023881 -0.0672,0.021914 -0.112074,0.1108039 -0.116282,0.2145509 a 0.25980514,0.25980514 0 0 1 -0.08262,-0.04464 l -0.05012,-0.044637 -0.0024,-0.4956598 c 0.03368,-0.02291 0.06551,-0.034126 0.09514,-0.03367 z m -1.7027027,1.0821499 -0.2345179,0.226298 3.911e-4,3.91e-4 -0.055203,0.03524 c 0.2619688,0.233533 -0.1091665,0.38914 -0.2897212,0.425967 -0.1849235,0.03773 -0.021675,-0.01398 -0.023093,-0.110019 -0.02716,-0.0833 -0.1572348,-0.133591 -0.2908966,-0.112759 -0.1336474,0.02087 -0.2202151,0.105026 -0.1930179,0.188318 0.014736,0.0712 0.2153494,0.145519 0.4404558,0.151126 0.015005,3.74e-4 0.029842,2.57e-4 0.045025,0 0.2386608,-0.0039 0.4925955,-0.08875 0.576703,-0.335139 0.015765,0.0014 0.031606,0.0016 0.047371,3.93e-4 0.1700874,0.496507 1.0314204,0.334163 1.0625754,0.18362 0.02719,-0.08329 -0.05936,-0.167454 -0.193019,-0.188318 -0.133663,-0.02084 -0.2637413,0.02947 -0.290895,0.112759 -0.00146,0.09604 0.161039,0.147738 -0.023875,0.110019 -0.1805666,-0.03683 -0.5513071,-0.19244 -0.2893351,-0.425974 l -0.055203,-0.03524 7.798e-4,-3.92e-4 z m 0,0.533637 -0.2345179,0.226689 7.798e-4,7.57e-4 a 0.23464066,0.2265783 0 0 0 -7.798e-4,0.02116 0.23464066,0.2265783 0 0 0 0.2345179,0.226294 0.23464066,0.2265783 0 0 0 0.234518,-0.226294 0.23464066,0.2265783 0 0 0 -0.00157,-0.02116 l 0.00157,-7.57e-4 z m 0,0.116668 0.126068,0.121761 -7.798e-4,3.91e-4 a 0.12607031,0.12173849 0 0 1 7.798e-4,0.01133 0.12607031,0.12173849 0 0 1 -0.126068,0.121761 0.12607031,0.12173849 0 0 1 -0.1260678,-0.121761 0.12607031,0.12173849 0 0 1 7.798e-4,-0.01133 l -7.798e-4,-3.91e-4 z" /></svg>
