<?xml version="1.0" encoding="UTF-8" standalone="no"?>
<svg
   xml:space="preserve"
   width="70"
   height="70"
   viewBox="0 0 18.521 18.521"
   version="1.1"
   id="svg5"
   sodipodi:docname="home_icon_2.svg"
   inkscape:version="1.3 (0e150ed6c4, 2023-07-21)"
   xmlns:inkscape="http://www.inkscape.org/namespaces/inkscape"
   xmlns:sodipodi="http://sodipodi.sourceforge.net/DTD/sodipodi-0.dtd"
   xmlns="http://www.w3.org/2000/svg"
   xmlns:svg="http://www.w3.org/2000/svg"><defs
     id="defs5" /><sodipodi:namedview
     id="namedview5"
     pagecolor="#ffffff"
     bordercolor="#000000"
     borderopacity="0.25"
     inkscape:showpageshadow="2"
     inkscape:pageopacity="0.0"
     inkscape:pagecheckerboard="0"
     inkscape:deskcolor="#d1d1d1"
     inkscape:zoom="8.1014234"
     inkscape:cx="43.81946"
     inkscape:cy="36.043049"
     inkscape:window-width="1920"
     inkscape:window-height="991"
     inkscape:window-x="-9"
     inkscape:window-y="-9"
     inkscape:window-maximized="1"
     inkscape:current-layer="svg5" /><rect
     style="opacity:1;fill:#ffffff;fill-opacity:1;stroke:none;stroke-width:0.314192;stroke-linecap:square;stroke-dasharray:none;stroke-opacity:0.639216"
     id="rect42"
     width="5.6234279"
     height="5.6234279"
     x="6.4487863"
     y="6.4487863"
     rx="0.57203829"
     ry="0.46315798" /><path
     id="path23"
     style="color:#000000;opacity:1;fill:#d2bb89;fill-opacity:1;stroke:#bf9950;stroke-width:0.254378;stroke-linecap:square;stroke-dasharray:none;stroke-opacity:0.639216"
     inkscape:transform-center-x="0.37857164"
     inkscape:transform-center-y="5.367088"
     d="M 11.056565,0.47301887 C 10.675267,1.5179229 9.8454279,2.2806511 8.9842822,2.9363086 8.2466964,3.5999019 7.9397205,4.6488214 8.118802,5.6142295 7.3361491,5.5998189 6.4212583,5.5568365 5.8939914,6.2591166 5.3137871,5.6119816 5.263423,4.7164863 5.2605314,3.8941995 5.090132,3.2165677 4.9577396,2.0147978 4.3254949,1.7747171 4.7826761,2.7658916 4.7592393,3.8736613 4.604714,4.9286023 4.5042188,5.8731939 5.073409,6.7295629 5.6276897,7.3789745 V 9.4860361 C 4.4764655,9.7476376 3.3886408,9.1271918 2.6476954,8.2911567 2.0473736,7.931486 1.1048454,7.1804769 0.48697594,7.4530024 1.5377192,7.8329956 2.2961192,8.6702547 2.9577181,9.5307509 3.5963423,10.319961 4.769644,10.496072 5.6276897,10.440449 c 0.028262,0.710068 -0.1684704,1.5795 0.5251508,2.052411 0.064594,0.520806 -1.2774651,0.792228 -1.8869655,0.728355 -0.8092523,0.0954 -2.1276517,0.275716 -2.4781946,0.960871 0.9920435,-0.457077 2.1003954,-0.43115 3.1558726,-0.277232 0.9428008,0.09914 1.8020069,-0.465896 2.4468943,-1.023969 H 9.50049 c 0.2617527,1.151223 -0.3592095,2.238547 -1.1948793,2.979498 -0.3595644,0.600829 -1.1110519,1.542646 -0.8381546,2.161713 0.3807398,-1.044616 1.2091371,-1.808141 2.0702962,-2.46329 0.7375847,-0.663594 1.0445597,-1.712512 0.8654807,-2.677921 0.782959,0.01451 1.698373,0.05724 2.225307,-0.645881 0.580122,0.646915 0.628833,1.54261 0.632466,2.36442 0.170359,0.678987 0.306064,1.876377 0.935534,2.120973 -0.457094,-0.991429 -0.431847,-2.099416 -0.277729,-3.154382 0.10062,-0.9454 -0.469159,-1.80243 -1.024465,-2.451862 V 9.0090781 c 1.151222,-0.2616023 2.239051,0.3588426 2.979993,1.1948799 0.600324,0.359671 1.542848,1.110676 2.16072,0.838155 C 16.990664,10.66149 16.228404,9.8324378 15.573259,8.9718156 14.90942,8.2340228 13.859916,7.9279229 12.894346,8.1073292 12.860185,7.3809781 13.076349,6.4894577 12.368697,6.001758 12.303715,5.480663 13.646341,5.2083086 14.256159,5.2724095 15.064398,5.1772224 16.387746,4.9983174 16.734354,4.3130283 15.742319,4.7701031 14.63395,4.7441835 13.578481,4.5902601 12.635381,4.4906087 11.776873,5.0574126 11.131587,5.6142295 H 9.0240288 C 8.7620953,4.4627691 9.3819495,3.3742387 10.218411,2.6332416 10.554253,2.064872 11.35619,1.0485314 11.056565,0.47301887 Z M 7.2821382,6.5939809 h 3.9577578 c 0.373862,0 0.674698,0.2438126 0.674698,0.5465145 v 4.2141236 c 0,0.302702 -0.300836,0.546514 -0.674698,0.546514 H 7.2821382 c -0.3738618,0 -0.6746971,-0.243812 -0.6746971,-0.546514 V 7.1404954 c 0,-0.3027019 0.3008353,-0.5465145 0.6746971,-0.5465145 z" /><path
     d="m 8.28523,7.7564468 q -0.1267476,0 -0.2822402,0.012047 l -0.4398827,0.031524 c -0.1752685,0.012338 -0.206187,0.023199 -0.2068024,0.073262 0,0.00941 0.037084,0.022048 0.082549,0.027344 0.045433,0.00529 0.1004759,0.023199 0.1221052,0.039264 0.07914,0.058719 0.080373,0.077581 0.075734,1.1035651 l -0.0047,0.9533377 -0.050403,0.045139 a 0.26275379,0.26275379 0 0 1 -0.1106762,0.05501 0.92736622,0.92736622 0 0 0 -0.079758,0.01623 c -0.030932,0.0093 -0.042347,0.05563 -0.017639,0.07139 0.012047,0.008 0.2315153,0.01225 0.4874852,0.0106 l 0.4655382,-0.0036 v -0.03844 c 0,-0.034 -0.010259,-0.0402 -0.088395,-0.05563 C 8.1206745,10.074051 8.0712163,10.039144 8.0511172,9.9664964 8.0405163,9.9281839 8.0346644,9.5541244 8.0343687,8.9099172 V 7.9125929 l 0.056572,-0.010867 c 0.030933,-0.0059 0.1072651,-0.00675 0.1697146,-0.00209 0.3316886,0.024679 0.5224184,0.2009256 0.5227271,0.4843933 3.096e-4,0.1690886 -0.037088,0.264306 -0.1499364,0.385159 -0.09801,0.1048039 -0.2000144,0.1690997 -0.3149955,0.1987513 l -0.1301278,0.03368 c -0.071411,0.018525 -0.074822,0.036793 -0.012338,0.068946 0.06677,0.034621 0.1026202,0.077289 0.1848474,0.2210279 0.039557,0.069561 0.1020027,0.1762096 0.1381824,0.2370994 0.036471,0.060571 0.071091,0.1230461 0.076969,0.1391205 0.01586,0.042347 0.145587,0.2232028 0.2584358,0.3598247 q 0.078525,0.0949 0.1690954,0.182371 c -0.055632,0.04885 -0.1082047,0.09338 -0.1499339,0.122723 -0.1585751,0.112515 -0.3697103,0.211118 -0.5270529,0.246064 -0.2658426,0.05871 -0.6136053,0.03278 -0.7962979,-0.05936 -0.079431,-0.03989 -0.1078827,-0.03742 -0.079758,0.0067 0.027904,0.0448 0.2952117,0.176212 0.4241157,0.209279 0.096451,0.02469 0.1706256,0.03119 0.3381772,0.02963 0.117785,-9.42e-4 0.2525586,-0.008 0.299233,-0.01576 0.1184037,-0.01927 0.3332311,-0.09366 0.4949026,-0.170309 0.082226,-0.03926 0.1681574,-0.09179 0.25347,-0.153022 0.085311,0.06122 0.1715666,0.113758 0.2534702,0.153022 0.1619842,0.07664 0.376823,0.150857 0.4949063,0.170309 0.04699,0.008 0.181468,0.01504 0.29954,0.01576 0.167538,0.0015 0.241419,-0.0049 0.33818,-0.02963 0.128889,-0.03278 0.395984,-0.164452 0.424116,-0.209279 0.0279,-0.0442 0,-0.04668 -0.07975,-0.0067 -0.182379,0.09214 -0.530761,0.118069 -0.7963,0.05936 C 10.037187,10.54386 9.8260548,10.44526 9.6671632,10.332743 A 1.8547327,1.8547327 0 0 1 9.5175491,10.210015 q 0.090574,-0.08747 0.1690985,-0.182371 c 0.1125265,-0.1366282 0.2426535,-0.3174708 0.258436,-0.3601343 0.00616,-0.015302 0.040502,-0.078201 0.076666,-0.139091 0.03647,-0.060569 0.09892,-0.1672461 0.138477,-0.236777 0.08222,-0.1437344 0.118081,-0.1864071 0.184848,-0.2210279 0.06212,-0.032149 0.05876,-0.050401 -0.0123,-0.068947 L 10.202605,8.967989 C 10.08732,8.9383214 9.9856076,8.8740192 9.8873054,8.7692524 9.7744863,8.6483811 9.7373682,8.5528708 9.7376938,8.3840868 c 0,-0.283474 0.1910507,-0.4599748 0.5227252,-0.4843933 0.06212,-0.0047 0.138477,-0.00351 0.169713,0.00209 l 0.05624,0.010867 v 0.9969224 c 0,0.6442101 -0.0058,1.0182535 -0.01645,1.0565841 -0.02001,0.072652 -0.06986,0.107556 -0.187022,0.130747 -0.0782,0.01554 -0.0884,0.02211 -0.0884,0.05563 v 0.03865 l 0.465538,0.0036 c 0.255938,0.0021 0.47543,-0.0028 0.487483,-0.0106 0.0247,-0.01554 0.01324,-0.06184 -0.01764,-0.07141 a 0.92736622,0.92736622 0 0 0 -0.08007,-0.01623 0.26275379,0.26275379 0 0 1 -0.110346,-0.05501 l -0.0507,-0.045139 -0.0044,-0.9533352 c -0.0047,-1.0256667 -0.0036,-1.0448334 0.07572,-1.103565 0.02175,-0.016158 0.07667,-0.033999 0.122114,-0.039262 0.04542,-0.00529 0.08251,-0.017639 0.08251,-0.027344 -9.42e-4,-0.050077 -0.03183,-0.06089 -0.207123,-0.073265 l -0.439865,-0.031573 c -0.416699,-0.030931 -0.6596687,-0.0047 -0.8664711,0.093365 -0.1489961,0.070472 -0.2129726,0.1292193 -0.2723387,0.249765 -0.04852,0.09892 -0.052543,0.1174654 -0.05131,0.2565862 0.00125,0.1879342 0.034618,0.2701636 0.161369,0.3993865 0.1137602,0.1159348 0.2003069,0.1709478 0.3542553,0.2250523 l 0.1217832,0.042642 -0.080988,0.088721 A 3.0912208,3.0912208 0 0 0 9.6713487,9.4122647 C 9.5990234,9.5223224 9.5059841,9.6549185 9.4645453,9.7068577 L 9.3204845,9.8892371 c -0.016453,0.020932 -0.037088,0.044807 -0.060276,0.069856 a 1.5456104,1.5456104 0 0 1 -0.05998,-0.069523 L 9.0558763,9.7071869 A 5.5641979,5.5641979 0 0 1 8.8493748,9.4122991 3.0912208,3.0912208 0 0 0 8.6366951,9.1235638 L 8.5554062,9.0348427 8.6775114,8.992203 A 0.80371741,0.80371741 0 0 0 9.0314556,8.76715 C 9.1585003,8.6379308 9.1922092,8.5557044 9.1931174,8.3677665 9.1940429,8.2286755 9.1903384,8.2100997 9.141807,8.1111802 9.0824407,7.9906315 9.0184648,7.9318839 8.8694716,7.861412 8.7143024,7.7878538 8.5387117,7.7547624 8.2852303,7.7557033"
     style="fill:#0a4887;fill-opacity:1;stroke-width:0.0596419"
     id="path30" /></svg>
