<?xml version="1.0" encoding="UTF-8" standalone="no"?>
<svg
   xml:space="preserve"
   width="70"
   height="70"
   viewBox="0 0 18.521 18.521"
   version="1.1"
   id="svg5"
   sodipodi:docname="home_icon_3.svg"
   inkscape:version="1.3 (0e150ed6c4, 2023-07-21)"
   xmlns:inkscape="http://www.inkscape.org/namespaces/inkscape"
   xmlns:sodipodi="http://sodipodi.sourceforge.net/DTD/sodipodi-0.dtd"
   xmlns="http://www.w3.org/2000/svg"
   xmlns:svg="http://www.w3.org/2000/svg"><defs
     id="defs5"><inkscape:path-effect
       effect="skeletal"
       id="path-effect7"
       is_visible="true"
       lpeversion="1"
       pattern="#path6"
       copytype="repeated_stretched"
       prop_scale="1.32"
       scale_y_rel="false"
       spacing="-0.2"
       normal_offset="-1.1"
       tang_offset="1.4"
       prop_units="false"
       vertical_pattern="false"
       hide_knot="false"
       fuse_tolerance="0" /><inkscape:path-effect
       effect="skeletal"
       id="path-effect5"
       is_visible="true"
       lpeversion="1"
       pattern="#rect2"
       copytype="repeated_stretched"
       prop_scale="1"
       scale_y_rel="false"
       spacing="1.9"
       normal_offset="-0.5"
       tang_offset="0"
       prop_units="false"
       vertical_pattern="false"
       hide_knot="false"
       fuse_tolerance="0" /></defs><sodipodi:namedview
     id="namedview5"
     pagecolor="#ffffff"
     bordercolor="#000000"
     borderopacity="0.25"
     inkscape:showpageshadow="2"
     inkscape:pageopacity="0.0"
     inkscape:pagecheckerboard="0"
     inkscape:deskcolor="#d1d1d1"
     inkscape:zoom="5.6568543"
     inkscape:cx="29.256543"
     inkscape:cy="39.951533"
     inkscape:window-width="1920"
     inkscape:window-height="991"
     inkscape:window-x="-9"
     inkscape:window-y="-9"
     inkscape:window-maximized="1"
     inkscape:current-layer="svg5" /><path
     id="path22"
     style="opacity:1;fill:#cccccc;fill-opacity:1;stroke:none;stroke-width:0.465455;stroke-linecap:square;stroke-dasharray:none;stroke-opacity:1"
     d="m 15.75383,-16.459472 c -0.765691,0.697255 -1.815001,0.887543 -2.79274,1.084998 -0.816953,0.30961 -1.687204,0.972155 -1.736712,1.913873 -0.690441,-0.07263 -1.253369,0.436667 -1.5184215,1.029981 -0.1513915,0.262218 -0.302783,0.524435 -0.4541745,0.786653 -0.5833708,-0.428765 -0.9385319,-1.12103 -0.9469816,-1.847603 -0.090297,-0.970368 0.341225,-1.951873 0.067248,-2.904019 -0.499592,-0.799037 -0.078478,0.642879 -0.2813267,1.006482 -0.106913,0.855792 -0.6602966,1.630878 -0.4826398,2.519593 0.087347,0.756805 0.4441334,1.6883 1.2836993,1.849086 -0.3287324,0.632858 -0.9156413,1.2672864 -0.6612374,2.0341483 0.5947728,0.728105 -0.5415724,0.504305 -0.9769646,0.33693 -1.0110818,-0.357686 -1.6958052,-1.2888326 -2.7043452,-1.6363643 -0.3464761,-0.0883 -0.7226872,0.09623 -0.196319,0.201509 0.8348421,0.3711103 1.4152864,1.0994513 2.0144334,1.7550863 0.7013514,0.567009 1.7989374,1.010373 2.6268801,0.454288 0.2128048,-0.278306 0.4987689,0.141061 0.7494014,0.2146 0.5413718,0.312561 1.0827438,0.625122 1.6241158,0.937683 -0.171451,1.122129 -1.303308,1.682167 -2.249225,2.066909 -0.5362167,0.175931 -1.6064737,0.713873 -1.4303018,1.154023 0.7604439,-0.653202 1.7743835,-0.831063 2.7231578,-1.025014 0.817052,-0.309734 1.68735,-0.972433 1.736935,-1.914263 0.690441,0.07263 1.253369,-0.436666 1.518422,-1.02998 0.132906,-0.230201 0.265812,-0.460401 0.398719,-0.690602 0.827023,0.31373 1.035204,1.316167 1.007266,2.109426 0.01229,0.848415 -0.329145,1.713592 -0.07208,2.546145 0.499592,0.799038 0.07848,-0.642878 0.281328,-1.006481 0.105045,-0.853659 0.661559,-1.626868 0.478874,-2.512983 -0.09064,-0.753611 -0.467775,-1.667614 -1.303115,-1.815543 0.33204,-0.6476252 0.940749,-1.2906243 0.684419,-2.0743013 -0.594773,-0.728107 0.541573,-0.504306 0.976966,-0.336931 1.011082,0.357685 1.695805,1.2888325 2.704346,1.6363639 0.346475,0.088299 0.722686,-0.09623 0.196316,-0.2015094 -0.834842,-0.3711115 -1.415291,-1.0994475 -2.014432,-1.7550875 -0.701351,-0.567011 -1.798939,-1.010377 -2.626881,-0.454289 -0.212804,0.278308 -0.498769,-0.14106 -0.749402,-0.214599 -0.541372,-0.312561 -1.082743,-0.625122 -1.624115,-0.937683 0.171451,-1.122128 1.303309,-1.682167 2.249226,-2.066909 0.555976,-0.275513 1.434228,-0.473754 1.499661,-1.213616 z" /><path
     id="path1"
     style="color:#000000;opacity:1;fill:#fac10e;fill-opacity:1;stroke:none;stroke-width:0.213292;stroke-linecap:square;stroke-dasharray:none;stroke-opacity:0.639216"
     inkscape:transform-center-x="0.3174264"
     inkscape:transform-center-y="4.5002182"
     d="m 13.213457,-17.345422 c -0.319712,0.876135 -1.01552,1.51567 -1.737577,2.065429 -0.618454,0.556412 -0.875848,1.435915 -0.725692,2.245394 -0.656242,-0.01208 -1.4233627,-0.04812 -1.8654677,0.540728 -0.4864927,-0.542612 -0.5287222,-1.293472 -0.5311462,-1.982945 -0.1428777,-0.568184 -0.2538863,-1.575849 -0.7840136,-1.777153 0.383339,0.831084 0.3636881,1.759931 0.2341206,2.644482 -0.084264,0.792026 0.3929934,1.510077 0.8577491,2.054599 v 1.7667372 c -0.965283,0.2193492 -1.8774069,-0.3008852 -2.4986776,-1.0018872 -0.5033604,-0.301578 -1.2936552,-0.931287 -1.8117294,-0.702779 0.8810322,0.318619 1.5169385,1.020647 2.071678,1.7421591 0.5354769,0.6617402 1.5192711,0.8094072 2.2387291,0.7627682 0.023696,0.59538 -0.1412594,1.324386 0.4403308,1.720914 0.054158,0.436688 -1.0711342,0.664271 -1.5821911,0.610714 -0.6785449,0.07999 -1.7840015,0.231184 -2.0779263,0.805675 0.8318123,-0.383252 1.7611479,-0.361512 2.6461486,-0.232454 0.7905236,0.08313 1.5109542,-0.390647 2.0516827,-0.858582 h 1.769237 c 0.219475,0.965282 -0.301191,1.876986 -1.001887,2.498262 -0.301489,0.503785 -0.9315998,1.293484 -0.70278,1.812562 0.319245,-0.875894 1.013843,-1.516098 1.735911,-2.06543 0.618454,-0.556413 0.875847,-1.435914 0.725692,-2.245394 0.656499,0.01217 1.424059,0.048 1.865885,-0.541561 0.486423,0.542428 0.527266,1.293454 0.530313,1.982529 0.142843,0.569319 0.256629,1.573312 0.78443,1.778402 -0.383266,-0.831298 -0.362097,-1.760327 -0.232871,-2.644899 0.08437,-0.792703 -0.393383,-1.511309 -0.858998,-2.055848 v -1.7650723 c 0.965281,-0.21935 1.877409,0.3008837 2.498677,1.0018883 0.503362,0.301578 1.293653,0.931284 1.811729,0.702779 -0.875708,-0.319146 -1.514851,-1.0142935 -2.06418,-1.7359113 -0.556618,-0.618628 -1.436611,-0.875288 -2.246226,-0.724859 -0.02864,-0.609033 0.152607,-1.356559 -0.440748,-1.765487 -0.05448,-0.43693 1.071284,-0.665295 1.582607,-0.611547 0.677695,-0.07981 1.787301,-0.229822 2.077927,-0.804427 -0.831806,0.38325 -1.761156,0.361518 -2.64615,0.232455 -0.790774,-0.08356 -1.510619,0.3917 -2.051681,0.858582 h -1.767155 c -0.219627,-0.965481 0.300111,-1.878196 1.001471,-2.499511 0.281598,-0.476569 0.95401,-1.328754 0.702779,-1.811312 z m -3.164797,5.132329 h 3.318517 c 0.313477,0 0.565724,0.204433 0.565724,0.458244 v 3.5334763 c 0,0.253811 -0.252247,0.458243 -0.565724,0.458243 H 10.04866 c -0.3134779,0 -0.5657241,-0.204432 -0.5657241,-0.458243 v -3.5334763 c 0,-0.253811 0.2522462,-0.458244 0.5657241,-0.458244 z" /><path
     id="path23"
     style="opacity:1;fill:#0242be;fill-opacity:1;stroke:none;stroke-width:0.494908;stroke-linecap:square;stroke-dasharray:none;stroke-opacity:1"
     d="M 9.5163008,1.534804 C 9.1995076,2.1437164 8.7388658,2.7762899 7.6579996,3.7248709 6.5771334,4.6734518 6.7138971,6.0321966 7.2445844,6.8280684 l 0.058395,0.1095551 A 3.0402181,3.0402181 0 0 0 6.7588216,7.5422432 C 4.9187623,6.5558942 6.5789334,3.395789 5.626064,2.4458677 5.656169,3.131598 5.5736455,3.9091153 5.1118789,5.2710435 4.6501116,6.6329719 5.4475739,7.741565 6.3050984,8.1654666 l 0.1033538,0.064079 A 3.0402181,3.0402181 0 0 0 6.2368849,9.0274372 C 4.1545979,9.087861 4.0117288,5.5260574 2.7125205,5.1800922 3.0814577,5.7588994 3.3988499,6.4734794 3.6799121,7.8838275 3.9609742,9.2941757 5.2058143,9.8554583 6.1604031,9.7938057 l 0.1136892,0.00362 a 3.0402181,3.0402181 0 0 0 0.2346131,0.7503494 c -1.657869,1.01917 -3.4304049,-1.5481797 -4.7144833,-1.5983699 -0.088789,-0.00347 -0.1749805,0.00528 -0.2589013,0.027905 0.6089087,0.3167972 1.2409724,0.7769134 2.1895502,1.8577849 0.9485803,1.080867 2.3073246,0.944619 3.1031976,0.413932 l 0.095085,-0.05064 a 3.0402181,3.0402181 0 0 0 0.6066868,0.554493 c -0.9882184,1.835014 -4.1449242,0.176291 -5.094308,1.12862 0.6857291,-0.0301 1.4632479,0.05241 2.8251759,0.514185 1.3619282,0.461769 2.4705212,-0.335693 2.8944231,-1.193219 l 0.059428,-0.0956 a 3.0402181,3.0402181 0 0 0 0.7999584,0.176218 c 0.067855,2.088345 -3.5010276,2.229522 -3.847345,3.530049 C 5.745982,15.444202 6.4605575,15.126799 7.870908,14.845741 9.2812562,14.564679 9.8425393,13.31984 9.7808862,12.36525 l 0.00362,-0.115239 A 3.0402181,3.0402181 0 0 0 10.564308,12.00351 c 1.105376,1.77503 -1.9162456,3.682896 -1.5658097,4.982686 0.3167976,-0.608908 0.7774311,-1.241489 1.8583007,-2.190067 1.080867,-0.94858 0.944104,-2.307325 0.413416,-3.103197 l -0.05685,-0.106455 a 3.0402181,3.0402181 0 0 0 0.545708,-0.603069 c 1.858497,0.979292 0.189276,4.150163 1.144126,5.10206 -0.0301,-0.685729 0.05241,-1.463249 0.514186,-2.825176 0.461768,-1.361928 -0.335695,-2.470005 -1.19322,-2.893906 l -0.113172,-0.07028 A 3.0402181,3.0402181 0 0 0 12.283082,9.5080323 C 14.391013,9.4160883 14.52955,13.00638 15.834318,13.353827 15.46538,12.775021 15.147987,12.06044 14.866927,10.650092 14.585868,9.2397438 13.341025,8.6779441 12.386436,8.7395969 l -0.132293,-0.00413 A 3.0402181,3.0402181 0 0 0 11.995241,7.9344708 C 13.772546,6.8149281 15.683933,9.845561 16.985679,9.4945963 16.376767,9.1778035 15.74471,8.717678 14.796129,7.6368119 14.262553,7.0288243 13.599111,6.8060436 12.97917,6.8218672 12.496993,6.8341742 12.041126,6.9907045 11.692932,7.2228799 l -0.120408,0.064596 A 3.0402181,3.0402181 0 0 0 10.972039,6.748486 C 11.951362,4.8899872 15.12272,6.5592098 16.074616,5.6043595 15.388885,5.6344655 14.611368,5.5524583 13.24944,5.0906912 12.994078,5.0041098 12.747744,4.9617633 12.513044,4.9558145 11.496009,4.9300355 10.699437,5.5866553 10.355017,6.2833939 l -0.07131,0.114206 A 3.0402181,3.0402181 0 0 0 9.4930462,6.2301667 C 9.4153566,4.1338128 12.993611,3.9935978 13.340391,2.6913329 12.761584,3.0602699 12.047003,3.3776623 10.636656,3.6587244 9.2263074,3.9397865 8.6650251,5.1846266 8.7266779,6.1392154 l -0.00413,0.1348768 A 3.0402181,3.0402181 0 0 0 7.9515244,6.5200741 C 6.8419093,4.7443594 9.866896,2.8351808 9.5163008,1.534804 Z" /><path
     id="rect42"
     style="opacity:1;fill:#cccccc;fill-opacity:1;stroke:#d2bb89;stroke-width:0.105834;stroke-linecap:square;stroke-dasharray:none;stroke-opacity:1"
     d="m -11.002571,9.7065129 c -0.388548,1.0647731 -1.233997,1.8418221 -2.111518,2.5099471 -0.751611,0.676212 -1.064611,1.745291 -0.882124,2.729057 -0.797536,-0.01469 -1.729773,-0.05882 -2.267066,0.656813 -0.591237,-0.65944 -0.642498,-1.571771 -0.645444,-2.409693 -0.17364,-0.690518 -0.308655,-1.915449 -0.952922,-2.160095 0.465875,1.010022 0.441686,2.139302 0.284223,3.214303 -0.102407,0.962554 0.478019,1.834751 1.042839,2.496511 v 2.147175 c -1.173115,0.266576 -2.282016,-0.365575 -3.037051,-1.217507 -0.611737,-0.366511 -1.571817,-1.131927 -2.201436,-0.854219 1.070724,0.387218 1.843519,1.240343 2.517699,2.117202 0.650768,0.804218 1.846426,0.983765 2.720788,0.927084 0.0288,0.72357 -0.171954,1.60946 0.534856,2.091364 0.06582,0.53071 -1.301807,0.807685 -1.922897,0.742597 -0.824641,0.09722 -2.167724,0.280576 -2.524933,0.97876 1.010908,-0.465768 2.140306,-0.439003 3.215853,-0.282156 0.960729,0.101028 1.83626,-0.47467 2.49341,-1.043356 h 2.149759 c 0.26673,1.173114 -0.365947,2.280978 -1.217507,3.036017 -0.366402,0.612256 -1.131789,1.572146 -0.853703,2.202986 0.38798,-1.064481 1.231917,-1.842856 2.109451,-2.510463 0.75161,-0.676213 1.064608,-1.744772 0.882124,-2.72854 0.797847,0.01479 1.7306289,0.05812 2.2675829,-0.658364 0.591153,0.659217 0.64071,1.57174 0.64441,2.409177 0.1736,0.691897 0.312,1.912398 0.953439,2.161645 -0.465786,-1.010282 -0.440238,-2.139277 -0.283189,-3.214303 0.102529,-0.963378 -0.478008,-1.836795 -1.043874,-2.498578 v -2.145108 c 1.173113,-0.266578 2.281504,0.365572 3.036535,1.217507 0.611739,0.366512 1.572333,1.131922 2.201952,0.854219 -1.064253,-0.387861 -1.84131,-1.232979 -2.508913,-2.109967 -0.676462,-0.751823 -1.745643,-1.063394 -2.729574,-0.880575 -0.03481,-0.740163 0.18522,-1.648651 -0.535889,-2.145624 -0.06622,-0.531005 1.302,-0.808951 1.923414,-0.743631 0.823608,-0.097 2.172251,-0.27889 2.52545,-0.97721 -1.010898,0.465766 -2.140314,0.439006 -3.215853,0.282156 -0.961034,-0.101546 -1.8358539,0.476468 -2.4934099,1.043873 h -2.147692 c -0.266914,-1.173357 0.364623,-2.282998 1.216991,-3.038085 0.342227,-0.579177 1.159541,-1.614462 0.854219,-2.2009191 z" /><path
     style="opacity:1;fill:#ff0000;fill-opacity:1;stroke:none;stroke-width:0.264586;stroke-linecap:square;stroke-opacity:0.639216"
     id="path2"
     inkscape:path-effect="#path-effect7"
     sodipodi:type="arc"
     sodipodi:cx="9.2605"
     sodipodi:cy="9.2605"
     sodipodi:rx="3.5598488"
     sodipodi:ry="3.5598488"
     d="m 12.068809,17.661262 c 0.427587,-1.598012 1.374387,-3.311425 1.526312,-4.921036 -0.0078,-0.903298 -0.539682,-1.695938 -1.293758,-2.186025 -0.686792,-0.446358 -1.633453,-0.6680459 -2.12689,-0.7723491 -0.0095,0.055535 -0.02344,0.1132298 -0.0414,0.171964 0.38546,0.5109231 0.475127,0.4647471 0.687519,0.6187241 1.336027,0.890033 2.037566,1.923379 1.711731,3.681984 -0.271939,1.467719 -1.508402,2.96689 -0.463511,3.406738 -2e-6,0 -4e-6,0 -5e-6,0 z M 4.6555159,16.833224 c 1.3788007,-0.663893 3.1987419,-0.959214 4.6049838,-1.748929 2e-7,0 3e-7,0 3e-7,0 0.1149332,-0.0742 0.2249464,-0.149935 0.3301991,-0.227251 0.7092059,-0.636626 0.8910739,-1.573403 0.7061249,-2.44876 -0.182735,-0.864883 -0.6780655,-1.559213 -0.9128329,-2.050595 -0.03066,0.02802 -0.06244,0.05141 -0.094987,0.06906 -0.011504,0.120223 -0.021307,0.206 -0.028504,0.307931 -0.00971,0.141618 -0.00933,0.24556 0,0.343201 0,0 0,0 0,0 0.011667,0.125141 0.037238,0.21557 0.042831,0.271894 0.091994,0.693333 0.1498001,1.267167 -0.042831,1.884597 -0.3505799,1.115446 -1.376121,1.765479 -2.6017606,2.188165 -1.1033627,0.380516 -2.2503327,0.516686 -2.0032197,1.410687 0,0 -3.7e-6,-4e-6 -3.7e-6,-4e-6 z M 0.58245592,11.091989 c 1.55918908,0.635592 3.16824698,1.781685 4.74809648,2.098532 0.894542,0.08484 1.7396004,-0.365645 2.308804,-1.063777 0.5261315,-0.645304 0.8373552,-1.547496 0.9878508,-2.042154 -0.056528,-0.01561 -0.1143137,-0.03518 -0.1722354,-0.05836 -0.5480023,0.331909 -0.5122806,0.42746 -0.6856661,0.621856 -1.017128,1.236 -2.1244761,1.84026 -3.8332759,1.319236 -1.426076,-0.434819 -2.8164946,-1.880505 -3.35357385,-0.875326 -10e-9,-2e-6 -2e-8,-4e-6 -3e-8,-5e-6 z M 2.2199718,3.8680201 C 2.7856095,5.4163307 2.9089077,7.423018 3.6639452,8.9304131 3.7383591,9.0471359 3.82478,9.1579167 3.9220805,9.2605 4.5600711,9.8852804 5.408011,10.041514 6.210811,9.9196718 6.9946545,9.8007065 7.6710659,9.4336285 8.168172,9.2940772 8.1612273,9.282977 8.1550814,9.2717782 8.1497958,9.2605 8.1268789,9.2421174 8.1065239,9.2211577 8.0886469,9.1978878 7.5888574,9.0850022 7.299412,9.097054 7.1714116,9.0936361 5.5336549,9.1063618 4.4373251,8.7343303 3.7320599,6.9902764 3.157243,5.5688086 3.3222765,3.6946312 2.2199678,3.8680234 c 1.4e-6,-1.1e-6 2.7e-6,-2.2e-6 4e-6,-3.3e-6 z M 8.4616369,0.39603542 C 7.6095129,1.9017032 6.2625622,3.3906987 5.7806933,4.925944 5.6025012,5.8035031 5.9670541,6.6907906 6.6033358,7.3305558 7.1987925,7.9292724 8.0526892,8.3214616 8.5371241,8.5199914 8.5578191,8.4639005 8.5820387,8.4074555 8.6094313,8.3517771 8.3306745,7.7710039 8.237919,7.8014043 8.0606021,7.6072865 6.939506,6.4734843 6.4384629,5.3079995 7.1581217,3.6642514 7.7577702,2.2946148 9.4189799,1.0266015 8.4616311,0.39603493 c 1.9e-6,1.7e-7 3.8e-6,3.3e-7 5.8e-6,4.9e-7 z M 15.371269,2.8296278 C 13.780793,3.2342441 11.791906,3.1668693 10.23249,3.7575382 9.8288881,3.959617 9.4883149,4.284928 9.2605,4.6926778 c -1e-7,10e-8 -1e-7,2e-7 -1e-7,3e-7 -0.6392682,1.1754674 -0.1749922,2.3439373 1e-7,3.2370347 0.018864,0.086399 0.034057,0.1623928 0.047452,0.2357123 0.033274,-0.030462 0.072781,-0.054558 0.1173993,-0.072638 C 9.6829115,7.4246219 9.59097,7.5417936 9.6412755,7.2006312 9.8207832,5.5869998 10.338807,4.5430976 12.124785,4.0200984 c 1.464735,-0.4289273 3.298634,-0.076895 3.246481,-1.1904749 10e-7,1.4e-6 2e-6,2.9e-6 3e-6,4.3e-6 z m 2.845929,6.7171138 C 16.779749,8.4695595 15.426524,6.9201869 13.950725,6.2731955 13.098314,6.0008697 12.17911,6.2751365 11.477276,6.8435502 10.813377,7.3812411 10.348365,8.182132 10.100173,8.6453435 c 0.05422,0.024773 0.107897,0.052635 0.159901,0.083233 0.610198,-0.2249087 0.578061,-0.3083775 0.795197,-0.4684368 1.239944,-0.9908867 2.447924,-1.3836358 4.011262,-0.4614654 0.751991,0.4435794 1.226389,0.980238 1.792117,1.499466 0.499239,0.4582046 0.954723,0.7537612 1.358549,0.2485959 -1e-6,1.9e-6 -1e-6,3.9e-6 -1e-6,5.9e-6 z"
     transform="translate(-31.056998,1.0289969)" /><path
     id="rect2"
     style="opacity:1;fill:#ac9393;fill-opacity:1;stroke:none;stroke-width:0.19441;stroke-linecap:square;stroke-opacity:0.639216"
     d="m 4.1744825,7.487046 -0.6773737,-0.4911363 -0.00453,0.00323 a 0.6775215,0.49126613 0 0 0 -0.062402,-0.00323 0.6775215,0.49126613 0 0 0 -0.6773737,0.4911363 0.6775215,0.49126613 0 0 0 0.6773737,0.4914596 0.6775215,0.49126613 0 0 0 0.063373,-0.00226 V 7.975919 l 0.00356,0.00258 z m -0.349195,0 -0.3640681,0.2641595 -0.00194,-0.00129 A 0.3640262,0.26395287 0 0 1 3.4253273,7.7512055 0.3640262,0.26395287 0 0 1 3.061259,7.487046 0.3640262,0.26395287 0 0 1 3.4253273,7.2232098 a 0.3640262,0.26395287 0 0 1 0.033626,0.00162 l 0.00226,-0.00162 z"
     transform="matrix(0,1.4872435,-1.4872435,0,6.7009605,-8.1023422)" /><path
     id="path4"
     style="opacity:1;fill:#ac9393;fill-opacity:1;stroke:none;stroke-width:0.310721;stroke-linecap:square;stroke-opacity:0.639216"
     d="m -2.8996232,-1.2235826 -0.7849721,1.08258098 0.00517,0.00713 a 0.78517956,1.0828673 0 0 0 -0.00517,0.099777 0.78517956,1.0828673 0 0 0 0.784972,1.08258092 0.78517956,1.0828673 0 0 0 0.7854889,-1.08258092 0.78517956,1.0828673 0 0 0 -0.00362,-0.1012025 h -5.168e-4 l 0.00413,-0.0057 z" /><path
     id="path5"
     style="opacity:1;fill:#f4d7d7;fill-opacity:1;stroke:none;stroke-width:0.166948;stroke-linecap:square;stroke-opacity:0.639216"
     d="m -2.8995037,-0.66527002 -0.4217584,0.581661 0.00278,0.00383 a 0.42186991,0.58181485 0 0 0 -0.00278,0.053606 0.42186991,0.58181485 0 0 0 0.4217584,0.5816609 0.42186991,0.58181485 0 0 0 0.4220361,-0.5816609 0.42186991,0.58181485 0 0 0 -0.00195,-0.054375 h -2.777e-4 l 0.00222,-0.00306 z" /><path
     id="circle5"
     style="opacity:1;fill:#d2bb89;fill-opacity:1;stroke:none;stroke-width:0.646424;stroke-linecap:square;stroke-opacity:1"
     d="m -23.764084,-2.2801982 c -0.547465,0.856495 -1.311874,1.64107197 -2.244515,2.30447297 0.0033,0.0062 0.0071,0.01337 0.01039,0.02005 -0.02598,0.07479 -0.04912,0.150643 -0.06911,0.227371 -0.320631,1.35687303 0.529298,2.83098103 2.315535,2.82964703 1.812202,-0.0012 2.706775,-1.489304 2.340939,-2.85570103 -0.02097,-0.07836 -0.04571,-0.155691 -0.07327,-0.231923 -5.03e-4,1.29e-4 -10e-4,2.56e-4 -0.0015,3.8e-4 0.0028,-0.0055 0.0055,-0.01106 0.0085,-0.01636 -0.979107,-0.643483 -1.735334,-1.42518097 -2.287116,-2.27810997 z m 0.0031,1.32184597 c 0.355003,0.458523 0.770714,0.893587 1.249993,1.294813 -0.002,0.003 -0.0031,0.0058 -0.0052,0.0085 0.0096,0.04199 0.01772,0.08431 0.02391,0.126927 0.105261,0.75383303 -0.418928,1.46188303 -1.262126,1.46233303 -0.838441,7.1e-4 -1.352147,-0.703526 -1.256505,-1.45505603 0.0062,-0.04216 0.01404,-0.08403 0.02363,-0.125475 0,0 -0.0065,-0.0092 -0.0065,-0.0092 0.466814,-0.405352 0.880214,-0.84196 1.232637,-1.3022 z m -6.389765,-4.79790697 c -1.018657,0.0048 -2.086578,-0.196072 -3.155065,-0.651727 -0.0038,0.0067 -0.0074,0.01314 -0.01159,0.02005 -0.07752,0.01752 -0.154483,0.03782 -0.230495,0.06142 -1.330747,0.447858 -2.087504,2.004103 -1.111689,3.510333 0.963639,1.487774 2.662336,1.398183 3.628759,0.38832 0.05563,-0.0582 0.10865,-0.118906 0.159176,-0.181482 -3.61e-4,-3.53e-4 -7.23e-4,-7.01e-4 -0.0011,-10e-4 0.0057,-7.01e-4 0.01192,-0.001 0.01786,-0.0018 0.05018,-1.144349 0.290869,-2.214707 0.70412,-3.144103 z m -1.107405,0.722103 c -0.191366,0.547571 -0.331216,1.132982 -0.416701,1.74584 -0.0036,2.56e-4 -0.0062,-1.24e-4 -0.0097,2.12e-4 -0.03025,0.03054 -0.06165,0.05999 -0.09432,0.088 -0.57896,0.491595 -1.448997,0.445724 -1.902424,-0.254024 -0.455206,-0.701963 -0.148816,-1.525324 0.535696,-1.851623 0.0388,-0.01752 0.07829,-0.03351 0.118364,-0.04787 0.0018,-0.0037 0.0029,-0.0071 0.0047,-0.0106 0.595708,0.177379 1.186396,0.284904 1.764511,0.330194 z m 1.029212,-7.7847298 c -0.483355,-0.914592 -0.827989,-1.962284 -0.984618,-3.09438 -0.0072,-8.3e-5 -0.01498,-1.34e-4 -0.02282,1.3e-4 -0.05438,-0.05777 -0.111208,-0.11338 -0.170191,-0.166676 -1.058837,-0.914007 -2.769253,-0.848388 -3.590827,0.662176 -0.822893,1.512552 0.05072,2.987897 1.391832,3.379599 0.07734,0.0224 0.155587,0.04154 0.234401,0.05755 1.42e-4,-4.83e-4 2.79e-4,-9.66e-4 4.21e-4,-0.0015 0.0032,0.005 0.0065,0.01005 0.0097,0.01524 1.034298,-0.484717 2.10064,-0.762625 3.132112,-0.852014 z m -1.171241,-0.638345 c -0.578465,0.09264 -1.16412,0.241398 -1.746569,0.449125 -0.0016,-0.0029 -0.0031,-0.0057 -0.0046,-0.0084 -0.0413,-0.01268 -0.08211,-0.02698 -0.12231,-0.043 -0.707525,-0.286193 -1.079062,-1.078905 -0.689171,-1.794432 0.389186,-0.714777 1.255118,-0.831934 1.879499,-0.392732 0.03439,0.02546 0.06821,0.05204 0.100666,0.08004 0.0039,-5.29e-4 0.0076,-6.23e-4 0.01136,-0.001 0.142334,0.601936 0.335234,1.174662 0.571084,1.710599 z m 7.14225,-3.180482 c 0.547469,-0.856491 1.311876,-1.641069 2.244523,-2.304467 -0.0035,-0.0068 -0.0069,-0.01328 -0.0106,-0.02005 0.026,-0.0748 0.04912,-0.15065 0.06912,-0.22738 0.320707,-1.356873 -0.529217,-2.830978 -2.315451,-2.829649 -1.812205,0.0011 -2.706777,1.489301 -2.340949,2.855698 0.02107,0.07833 0.04571,0.155659 0.07329,0.231914 5e-4,-1.28e-4 0.001,-2.54e-4 0.0015,-3.82e-4 -0.0029,0.0054 -0.0056,0.01099 -0.0083,0.01609 0.97898,0.643573 1.735204,1.425274 2.286984,2.278204 z m -0.0031,-1.321844 c -0.35498,-0.458538 -0.770712,-0.893597 -1.249993,-1.294817 0.0016,-0.0027 0.0034,-0.0055 0.0051,-0.008 -0.0098,-0.04195 -0.0177,-0.08428 -0.02392,-0.126914 -0.105224,-0.753844 0.418965,-1.461894 1.262161,-1.462338 0.838444,-7.12e-4 1.35215,0.703526 1.256508,1.455057 -0.0061,0.04216 -0.01404,0.08402 -0.02361,0.125509 0.0021,0.003 0.0043,0.0063 0.0064,0.0094 -0.466813,0.405364 -0.880222,0.841957 -1.232648,1.302193 z m 6.38975,4.797917 c 1.018653,-0.0047 2.086574,0.196086 3.155067,0.65174 0.0037,-0.0069 0.0078,-0.01304 0.01129,-0.01982 0.07753,-0.01745 0.154469,-0.03782 0.23046,-0.0614 1.330736,-0.447951 2.087491,-2.004196 1.111685,-3.510428 -0.963621,-1.487784 -2.662334,-1.398193 -3.628763,-0.388334 -0.05559,0.05823 -0.108603,0.118936 -0.159194,0.181496 3.62e-4,3.5e-4 7.24e-4,6.99e-4 0.0011,0.0011 -0.006,5.72e-4 -0.01199,9.25e-4 -0.01775,0.0015 -0.04981,1.144451 -0.2905,2.214811 -0.703754,3.144205 z m 1.107403,-0.722102 c 0.19137,-0.547571 0.33122,-1.132979 0.416708,-1.745838 0.0032,-2.6e-5 0.0065,-4.9e-5 0.0097,-1.31e-4 0.03026,-0.03053 0.06168,-0.06001 0.09434,-0.088 0.57897,-0.491572 1.448997,-0.445715 1.902421,0.254031 0.455201,0.701965 0.148823,1.525322 -0.535695,1.851619 -0.03881,0.01756 -0.07832,0.03354 -0.118376,0.04788 -0.0014,0.0035 -0.003,0.0071 -0.0044,0.01051 -0.595715,-0.177402 -1.186406,-0.284924 -1.764516,-0.330218 z m -1.029226,7.7847278 c 0.483348,0.914597 0.82798,1.962289 0.984602,3.09439 0.0078,2.72e-4 0.01498,-3.36e-4 0.02259,-5.1e-5 0.05437,0.05776 0.111231,0.113375 0.170212,0.166709 1.058856,0.914 2.769271,0.848386 3.590855,-0.662175 0.822911,-1.512532 -0.05071,-2.987878 -1.391812,-3.379586 -0.07735,-0.02236 -0.155576,-0.04151 -0.234406,-0.05755 -1.4e-4,4.79e-4 -2.78e-4,9.66e-4 -4.17e-4,0.0015 -0.0032,-0.0051 -0.0065,-0.01037 -0.0097,-0.01521 -1.034315,0.484719 -2.10065,0.762635 -3.132093,0.852143 z m 1.171238,0.638347 c 0.578449,-0.09265 1.164122,-0.241385 1.746596,-0.449029 0.0018,0.0032 0.003,0.0053 0.0046,0.0085 0.04133,0.01268 0.0821,0.02694 0.122317,0.04301 0.707513,0.286207 1.079049,1.078915 0.689146,1.794447 -0.389184,0.714775 -1.255122,0.831927 -1.879498,0.392724 -0.03453,-0.02538 -0.06825,-0.05204 -0.100651,-0.08005 -0.0037,3.74e-4 -0.0078,5.79e-4 -0.01152,0.0011 -0.142301,-0.601849 -0.335194,-1.174571 -0.571031,-1.710517 z" /><path
     id="path6"
     style="color:#000000;opacity:1;fill:#fac10e;fill-opacity:1;stroke:none;stroke-width:0.254378;stroke-linecap:square;stroke-dasharray:none;stroke-opacity:0.639216"
     inkscape:transform-center-x="-0.43166448"
     inkscape:transform-center-y="-2.9318407"
     d="m 2.9581228,4.1644119 c -0.381297,1.044903 -1.2110985,1.807264 -2.07224251,2.462921 -0.8368473,0.792338 -1.5521603,2.616307 -0.4418383,3.4261781 l 0.4196173,-0.04651 c 0.28548701,-0.3695881 0.0765,-0.6035061 0.06201,-0.7017721 C 0.39788113,6.9850697 3.6245555,5.4444838 2.9581208,4.1644109 Z"
     sodipodi:nodetypes="ccccccc"
     transform="rotate(-1.546186,-33.313822,155.5683)" /><path
     id="path7"
     style="color:#000000;opacity:1;fill:#fac10e;fill-opacity:1;stroke:none;stroke-width:0.254378;stroke-linecap:square;stroke-dasharray:none;stroke-opacity:0.639216"
     inkscape:transform-center-x="-0.43166448"
     inkscape:transform-center-y="-2.9318407"
     d="m 30.371856,-4.56493 c -0.352964,1.0548109 -1.161893,1.8392847 -2.005032,2.517939 -0.815163,0.81463 -1.481,2.657236 -0.349229,3.4368527 l 0.418209,-0.057816 c 0.275411,-0.37715679 0.06019,-0.60535057 0.04305,-0.70318981 -0.5902,-2.30507329 2.59373,-3.93216279 1.892998,-5.19378739 z"
     sodipodi:nodetypes="ccccccc" /><g
     style="stroke:#d2bb89;stroke-opacity:1"
     id="g5"
     transform="translate(24.826097,6.030912)"><path
       d="m 7.201,4.606 c 1.288,-0.449 2.641,-0.546 4.117,0"
       style="fill:none;stroke:#d2bb89;stroke-width:0.340421;stroke-linecap:square;stroke-linejoin:miter;stroke-dasharray:none;stroke-opacity:1"
       transform="matrix(0.68946,0,0,0.68946,2.876,1.838)"
       id="path3" /><path
       d="m 7.202,4.97 c 1.287,-0.448 2.64,-0.545 4.116,0"
       style="fill:none;stroke:#d2bb89;stroke-width:0.152527;stroke-linecap:square;stroke-linejoin:miter;stroke-dasharray:none;stroke-opacity:1"
       transform="matrix(0.68946,0,0,0.68946,2.876,1.838)"
       id="path4-4" /><path
       d="M 6.895,4.091 5.906,2.174 7.924,3.082 9.26,1.498 10.597,3.082 12.615,2.174 11.626,4.091"
       style="fill:none;stroke:#d2bb89;stroke-width:0.340421;stroke-linecap:square;stroke-linejoin:miter;stroke-dasharray:none;stroke-opacity:1"
       transform="matrix(0.68946,0,0,0.68946,2.876,1.838)"
       id="path5-0" /></g><path
     id="path21"
     style="opacity:0.67517;fill:#008080;fill-opacity:1;stroke:none;stroke-width:0.465455;stroke-linecap:square;stroke-dasharray:none;stroke-opacity:1"
     d="m -10.723849,3.5077123 c -0.310464,0.9278027 -1.022021,1.6180644 -1.763639,2.2150029 -0.606739,0.606342 -1.119411,1.8599889 -0.659547,2.6468218 -0.474036,0.2320261 -0.800001,0.7174869 -0.800001,1.282729 v 1.27682 c -0.145744,-0.06866 -0.381037,-0.07394 -0.43,-0.09182 -2.015454,-0.564178 -1.854421,-3.7052941 -3.123641,-3.7263691 0.648268,0.7327707 0.889755,1.6938195 1.035911,2.634549 0.254687,0.9517501 1.448645,2.3051951 2.51773,1.9036391 v 1.055 c 0,0.595204 0.360623,1.103248 0.875911,1.318638 -1.509991,1.311978 -4.057935,-0.308221 -4.697734,0.758638 0.958732,-0.195031 1.91223,0.07622 2.800004,0.42 0.928942,0.249234 2.502776,-0.01161 2.74364,-1.068183 h 2.5713674 c 0.02275,0.06583 0.05341,0.114401 0.05909,0.146818 0.519134,2.027523 -2.2818154,3.458929 -1.6654574,4.568642 0.310464,-0.927802 1.022021,-1.617609 1.7636394,-2.214548 0.606738,-0.606341 1.119409,-1.860443 0.659546,-2.647276 0.474036,-0.232026 0.800001,-0.717486 0.800001,-1.282729 v -1.165909 c 0.180117,0.01342 0.390424,-0.03355 0.430001,-0.01909 2.015454,0.564176 1.85442,3.705293 3.12364,3.726368 -0.648267,-0.732771 -0.889755,-1.693819 -1.03591,-2.634549 -0.255257,-0.953881 -1.447172,-2.269764 -2.51773,-1.857275 V 9.652266 c 0,-0.5952037 -0.360623,-1.1032474 -0.875911,-1.3186381 1.509992,-1.3119789 4.057935,0.3082207 4.697735,-0.7586375 -0.958733,0.1950318 -1.912232,-0.07621 -2.800004,-0.4200005 -0.928943,-0.2492351 -2.502777,0.011605 -2.743641,1.0681832 h -2.5713664 c -0.02274,-0.065833 -0.05341,-0.1144005 -0.05909,-0.1468184 -0.519135,-2.0275229 2.281814,-3.4589282 1.665457,-4.5686424 z" /><path
     id="rect21"
     style="opacity:1;fill:#ceced0;fill-opacity:1;stroke:none;stroke-width:0.465455;stroke-linecap:square;stroke-dasharray:none;stroke-opacity:1"
     d="M 9.5286822,1.633181 C 9.2142012,2.619867 8.4006172,3.309316 7.6525972,3.969187 7.0999007,4.6457928 6.6775134,5.6546988 7.1054971,6.4950058 c -0.6342551,0.2823201 -0.867116,1.004848 -0.8000011,1.6512 0,0.302783 0,0.605566 0,0.908349 C 5.5858994,8.9749148 4.9321886,8.5529798 4.561584,7.9279738 3.998201,7.1327588 3.8811575,6.0669908 3.1678135,5.3793958 2.3356354,4.9372049 3.4212888,5.9753848 3.4274183,6.3916978 3.7627253,7.1862928 3.6710235,8.134228 4.2692364,8.815049 4.7232836,9.4267886 5.4980172,10.055093 6.305496,9.7745556 6.337234,10.486992 6.1461704,11.329878 6.7499216,11.866798 7.6290622,12.199969 6.5330586,12.574325 6.0723103,12.64707 5.0178449,12.842846 3.9592837,12.378811 2.9120968,12.58211 c -0.344206,0.09677 -0.5777506,0.444681 -0.069263,0.272671 0.9085497,-0.09603 1.7753999,0.24451 2.6220939,0.512733 0.8908923,0.140368 2.063112,-0.02446 2.5020895,-0.920015 0.04514,-0.347423 0.502477,-0.127222 0.7563,-0.188852 0.625122,0 1.250245,0 1.8753668,0 0.412584,1.057517 -0.287614,2.108453 -0.9144308,2.914608 -0.376412,0.420469 -1.034311,1.421469 -0.661667,1.714564 0.331963,-0.945912 1.1211298,-1.606914 1.8458168,-2.249267 0.552721,-0.676764 0.975072,-1.685827 0.547099,-2.526268 0.634255,-0.28232 0.867116,-1.004848 0.800001,-1.6512 0,-0.265813 0,-0.5316247 0,-0.7974376 0.873088,-0.1418138 1.554597,0.6222316 1.927031,1.3231826 0.434854,0.728603 0.571748,1.648587 1.210651,2.241066 0.832178,0.442191 -0.253474,-0.595989 -0.259604,-1.012302 C 14.757723,11.42378 14.853074,10.475904 14.251807,9.7998491 13.796502,9.1925239 13.012895,8.5895399 12.215504,8.8790999 c -0.03626,-0.72688 0.169401,-1.588088 -0.444426,-2.138607 -0.879142,-0.333172 0.216863,-0.707529 0.677612,-0.780274 1.054465,-0.1957761 2.113026,0.2682599 3.160214,0.06496 0.344206,-0.09677 0.57775,-0.4446809 0.06926,-0.27267 -0.908551,0.09603 -1.775402,-0.2445039 -2.622094,-0.512734 -0.890893,-0.14037 -2.063115,0.02446 -2.50209,0.920014 -0.04514,0.347424 -0.502477,0.1272231 -0.7563008,0.188853 -0.625122,0 -1.250244,0 -1.875366,0 -0.4125835,-1.057516 0.287616,-2.1084529 0.914433,-2.9146078 0.343732,-0.51659 1.0052,-1.127397 0.691936,-1.8008531 z" /><rect
     style="opacity:1;fill:#fac10e;fill-opacity:1;stroke:none;stroke-width:0.529171;stroke-linecap:square;stroke-dasharray:none;stroke-opacity:1"
     id="rect24"
     width="0"
     height="0"
     x="10.533818"
     y="6.9040337"
     rx="0"
     ry="0" /><rect
     style="opacity:1;fill:#0242be;fill-opacity:1;stroke:none;stroke-width:0.439612;stroke-linecap:square;stroke-dasharray:none;stroke-opacity:1"
     id="rect23"
     width="4.5794158"
     height="4.5132694"
     x="6.9707923"
     y="7.0038652"
     rx="0.78739452"
     ry="0.79117012" /><path
     id="path30"
     style="fill:#e3e5e4;fill-opacity:1;stroke:none;stroke-width:0.0321985;stroke-dasharray:none;stroke-opacity:1"
     d="m 9.2604731,7.421985 a 0.18844705,0.18197192 0 0 0 -0.1883485,0.1817453 0.18844705,0.18197192 0 0 0 6.262e-4,0.016977 l -6.262e-4,9.87e-4 0.1883485,0.1820603 0.1883485,-0.1820603 -0.00126,-9.87e-4 A 0.18844705,0.18197192 0 0 0 9.4488216,7.6037303 0.18844705,0.18197192 0 0 0 9.2604731,7.421985 Z m 0,0.082695 a 0.1012509,0.09777188 0 0 1 0.101249,0.097791 0.1012509,0.09777188 0 0 1 -6.263e-4,0.00912 l 6.263e-4,6.263e-4 -0.101249,0.097793 -0.1012489,-0.09779 6.263e-4,-6.272e-4 a 0.1012509,0.09777188 0 0 1 -6.263e-4,-0.00912 0.1012509,0.09777188 0 0 1 0.1012489,-0.09779 z M 8.7419639,7.585804 C 8.5611741,7.590294 8.400053,7.649988 8.3882204,7.7071775 8.3663804,7.7740705 8.4359024,7.841665 8.5432389,7.858422 8.6505869,7.875157 8.755058,7.83476 8.7768668,7.767864 8.7780368,7.690733 8.6469007,7.6492128 8.7954228,7.679507 8.9404373,7.709082 9.2385016,7.8340581 9.0281075,8.0216161 l 0.044335,0.028302 -3.149e-4,6.263e-4 0.1883485,0.1817454 0.1883485,-0.1817454 -6.263e-4,-6.263e-4 0.044335,-0.028301 C 9.2821338,7.8340571 9.579886,7.7090854 9.7249023,7.6795078 c 0.1485185,-0.030293 0.018036,0.011225 0.019175,0.088357 0.021804,0.066893 0.126279,0.1072906 0.2336279,0.090558 C 10.085046,7.8416698 10.154568,7.7740678 10.132723,7.7071777 10.107703,7.5862726 9.4159411,7.4558875 9.2793395,7.8546491 9.2666695,7.8535691 9.2539545,7.853872 9.2412945,7.8549632 9.1737465,7.6570835 8.9698016,7.5890362 8.7781269,7.5858042 c -0.012194,-2.064e-4 -0.02411,-3.006e-4 -0.036161,0 z M 8.4860112,8.0656373 v 6.263e-4 c -0.0671,0 -0.1418748,0.00305 -0.2241946,0.00943 l -0.3493413,0.025151 c -0.1391839,0.0098 -0.1636478,0.018421 -0.1641368,0.058172 0,0.00745 0.029297,0.017488 0.065404,0.021697 0.03608,0.00422 0.079985,0.018377 0.097162,0.031127 0.062344,0.046256 0.063636,0.065556 0.060056,0.8612474 C 7.8116202,9.1834546 7.7059916,8.9273037 7.6791601,8.7957557 7.6488666,8.6472382 7.6903844,8.7783482 7.7675186,8.7771997 7.834412,8.7553864 7.8748091,8.6509197 7.8580763,8.5435718 7.8434145,8.4496528 7.7899626,8.3846079 7.7319866,8.3844661 c -0.00828,-2.06e-5 -0.016795,0.00135 -0.025155,0.00413 -0.057186,0.011835 -0.1168705,0.1729537 -0.1213732,0.3537435 -3.005e-4,0.012051 -2.057e-4,0.023967 0,0.036161 0.00324,0.1916748 0.071279,0.3956175 0.2691596,0.4631677 -0.00108,0.012664 -0.00135,0.025381 -3.15e-4,0.038047 -0.3987613,0.1365982 -0.2683759,0.8283627 -0.1474712,0.8533797 0.062019,0.02025 0.1240662,-0.03854 0.1462141,-0.132692 0.071882,0.0022 0.1766865,0.0032 0.2962009,0.0025 l 0.3694649,-0.00314 v -0.030508 c 0,-0.027 -0.00808,-0.031764 -0.070124,-0.044021 C 8.3553028,9.9065918 8.3161339,9.8788205 8.3001737,9.8211286 8.2917392,9.7907067 8.2868849,9.4937837 8.2866515,8.9822074 V 8.1901801 l 0.044964,-0.00879 c 0.024568,-0.00467 0.085306,-0.00529 0.1348939,-0.00153 0.2633975,0.019597 0.4148134,0.159767 0.4150583,0.3848733 2.468e-4,0.1342758 -0.029557,0.2096629 -0.1191715,0.305634 -0.077831,0.083224 -0.1586706,0.1343018 -0.2499784,0.1578486 l -0.1034501,0.02673 c -0.056709,0.014716 -0.059365,0.02918 -0.00974,0.054717 0.053021,0.027493 0.081546,0.061626 0.1468424,0.1757709 0.031414,0.055238 0.081008,0.1396805 0.1097392,0.1880344 0.028965,0.0481 0.056332,0.097917 0.060998,0.1106823 0.012598,0.03363 0.1157135,0.1773303 0.2053282,0.2858241 0.041572,0.050245 0.08632,0.098334 0.1342659,0.1446423 -0.044174,0.0388 -0.086033,0.07418 -0.1191724,0.09748 -0.1259274,0.08935 -0.293569,0.167829 -0.4185175,0.19558 -0.2111103,0.04662 -0.4872575,0.026 -0.6323366,-0.04717 -0.06308,-0.03167 -0.085539,-0.02998 -0.063205,0.005 0.022163,0.03558 0.2343995,0.140078 0.336764,0.166336 0.076593,0.01961 0.1354754,0.02483 0.2685308,0.02358 0.093535,-7.63e-4 0.2006505,-0.0064 0.2377151,-0.01257 0.094027,-0.0153 0.2643477,-0.07434 0.3927336,-0.135208 0.065296,-0.03117 0.1338074,-0.07306 0.2015558,-0.121689 0.067746,0.04862 0.1361996,0.09051 0.2012401,0.121689 0.1286344,0.06086 0.2992767,0.11976 0.3930475,0.135208 0.037318,0.0064 0.1439536,0.01201 0.2377172,0.01257 0.133044,0.0013 0.191691,-0.0039 0.26853,-0.02358 0.102353,-0.02603 0.314423,-0.130739 0.336764,-0.166336 0.02216,-0.0351 1.28e-4,-0.03682 -0.0632,-0.005 -0.144829,0.07317 -0.421466,0.09379 -0.632336,0.04717 -0.124958,-0.02774 -0.2926607,-0.106232 -0.4188383,-0.195583 a 1.4728759,1.4728759 0 0 1 -0.1188594,-0.09748 c 0.047951,-0.04631 0.092693,-0.0944 0.134265,-0.1446418 0.089362,-0.1084986 0.1927947,-0.2522585 0.2053281,-0.2861386 0.00485,-0.012151 0.031971,-0.062014 0.060693,-0.1103679 0.028965,-0.0481 0.07864,-0.1328187 0.1100537,-0.1880343 0.065297,-0.1141419 0.093822,-0.1479637 0.1468419,-0.1754567 0.04932,-0.025528 0.04669,-0.040297 -0.0097,-0.055031 l -0.103458,-0.02673 C 9.9169635,9.0046497 9.8362823,8.9535667 9.7582194,8.870365 9.6686244,8.7743795 9.6391034,8.6987653 9.6393618,8.5647309 c 0,-0.2251116 0.1516708,-0.3654818 0.4150592,-0.3848724 0.04932,-0.00368 0.110089,-0.00251 0.134894,0.00188 l 0.04465,0.00852 v 0.7917581 c 0,0.5115776 -0.0048,0.8084822 -0.01322,0.8389211 -0.01589,0.057694 -0.05537,0.085348 -0.148415,0.1037645 -0.0621,0.012338 -0.07012,0.01773 -0.07012,0.044335 v 0.030508 l 0.369465,0.00314 c 0.119312,9.87e-4 0.223993,-3.26e-4 0.295887,-0.0025 0.02207,0.09437 0.08444,0.153287 0.146528,0.133008 0.120906,-0.02502 0.25129,-0.7167829 -0.147471,-0.8533849 0.0011,-0.012667 7.63e-4,-0.025383 -3.14e-4,-0.038046 0.19788,-0.067548 0.265927,-0.2714929 0.269158,-0.4631677 2.06e-4,-0.012194 3.01e-4,-0.02411 0,-0.036161 -0.0046,-0.1807897 -0.06418,-0.3419109 -0.121373,-0.3537435 -0.0083,-0.00269 -0.01688,-0.00413 -0.02516,-0.00413 -0.05797,1.418e-4 -0.111428,0.065188 -0.126089,0.1591057 -0.01674,0.107348 0.02367,0.2118193 0.09056,0.2336279 0.07714,0.00117 0.118652,-0.129965 0.08836,0.018547 -0.02684,0.1315776 -0.132397,0.3878945 -0.291798,0.2773352 -0.0036,-0.7958445 -0.0024,-0.8152853 0.06006,-0.8615624 0.01727,-0.012831 0.06107,-0.026946 0.09716,-0.031127 0.03606,-0.00422 0.0654,-0.013989 0.0654,-0.021697 -7.63e-4,-0.039768 -0.02525,-0.048346 -0.164452,-0.058172 l -0.349333,-0.025197 c -0.3309327,-0.024559 -0.5237664,-0.00359 -0.6879913,0.074206 -0.118321,0.055964 -0.1691904,0.1023688 -0.2163343,0.1980968 -0.03853,0.078558 -0.041859,0.093278 -0.040881,0.203756 9.87e-4,0.1492417 0.027637,0.2146501 0.1282908,0.3172683 0.090339,0.092066 0.1591694,0.1356352 0.2814224,0.1786013 l 0.096535,0.033936 -0.064148,0.070438 A 2.4547928,2.4547928 0 0 0 9.5868459,9.3810093 C 9.52941,9.4684076 9.4553016,9.5737058 9.422394,9.6149515 l -0.1144554,0.144956 c -0.013065,0.016623 -0.029377,0.03545 -0.047799,0.055341 A 1.2273964,1.2273964 0 0 1 9.2126638,9.7602243 L 9.0979083,9.6151937 A 4.4186275,4.4186275 0 0 1 8.9340864,9.3809369 2.4547928,2.4547928 0 0 0 8.7652325,9.1517111 l -0.064776,-0.070438 0.097161,-0.033963 A 0.63824616,0.63824616 0 0 0 9.078412,8.8687095 C 9.1793002,8.7660939 9.2062954,8.7006856 9.2070168,8.5514412 9.2077536,8.4409859 9.2046838,8.4262389 9.166136,8.3476851 9.1189921,8.2519554 9.0681209,8.2055518 8.9498026,8.1495884 8.8265806,8.0911744 8.6872998,8.0648837 8.4860059,8.0656374 Z m -0.882629,1.0068318 a 0.18197192,0.18844705 0 0 0 -0.1817455,0.1883488 0.18197192,0.18844705 0 0 0 0.1817454,0.1883487 0.18197192,0.18844705 0 0 0 0.016979,-0.00127 l 9.422e-4,0.00127 L 7.803366,9.2608179 7.6213059,9.0724691 7.6203637,9.0730963 a 0.18197192,0.18844705 0 0 0 -0.01698,-6.272e-4 z m 3.2962588,0 -0.182061,0.1883488 0.182061,0.1883487 9.87e-4,-0.00127 a 0.18197192,0.18844705 0 0 0 0.01699,0.00127 0.18197192,0.18844705 0 0 0 0.181745,-0.1883487 0.18197192,0.18844705 0 0 0 -0.181745,-0.1883488 0.18197192,0.18844705 0 0 0 -0.01699,6.272e-4 z m -3.2975165,0.087101 a 0.09777188,0.1012509 0 0 1 0.00912,6.272e-4 l 6.265e-4,-6.272e-4 0.09779,0.1012492 -0.09779,0.1012493 -6.267e-4,-6.267e-4 a 0.09777188,0.1012509 0 0 1 -0.00912,6.267e-4 0.09777188,0.1012509 0 0 1 -0.09779,-0.1012493 0.09777188,0.1012509 0 0 1 0.09779,-0.1012492 z m 3.3069495,0 6.09e-4,6.272e-4 a 0.09777188,0.1012509 0 0 1 0.0091,-6.272e-4 0.09777188,0.1012509 0 0 1 0.09779,0.1012493 0.09777188,0.1012509 0 0 1 -0.09779,0.1012493 0.09777188,0.1012509 0 0 1 -0.0091,-6.267e-4 l -6.09e-4,6.267e-4 -0.09779,-0.1012493 z M 7.8929798,9.4199248 c 0.023707,-3.647e-4 0.049154,0.00879 0.076091,0.027041 l -0.00188,0.3983929 -0.03993,0.035845 a 0.20865741,0.20865741 0 0 1 -0.066346,0.035847 C 7.8575948,9.8335947 7.8215688,9.7620438 7.7675248,9.744425 7.6903918,9.743265 7.6488746,9.8737609 7.6791668,9.725246 7.7013508,9.6164851 7.7773238,9.4217051 7.8929846,9.419926 Z m 2.7349852,0 c 0.115662,0.00178 0.191635,0.1965591 0.213819,0.3053199 0.0303,0.1485184 -0.01124,0.018036 -0.08836,0.019179 -0.05397,0.017597 -0.09001,0.08899 -0.09339,0.1723127 a 0.20865741,0.20865741 0 0 1 -0.06635,-0.035845 l -0.04025,-0.035846 -0.0019,-0.3980794 c 0.02705,-0.0184 0.05261,-0.027408 0.07641,-0.027041 z m -1.3674919,0.8691072 -0.1883485,0.181747 3.141e-4,3.14e-4 -0.044335,0.0283 c 0.2103951,0.187557 -0.087675,0.31253 -0.2326839,0.342107 -0.1485177,0.0303 -0.017408,-0.01123 -0.018547,-0.08836 -0.021813,-0.0669 -0.12628,-0.107291 -0.2336279,-0.09056 -0.1073363,0.01676 -0.1768614,0.08435 -0.1550185,0.151244 0.011835,0.05718 0.1729536,0.116871 0.3537434,0.121374 0.012051,3e-4 0.023967,2.06e-4 0.036161,0 0.1916757,-0.0031 0.3956184,-0.07128 0.4631677,-0.26916 0.012661,0.0011 0.025384,0.0013 0.038045,3.15e-4 0.1366024,0.39876 0.8283655,0.268377 0.8533865,0.147471 0.02184,-0.06689 -0.04767,-0.134487 -0.1550189,-0.151244 -0.1073488,-0.01674 -0.2118191,0.02367 -0.233627,0.09056 -0.00117,0.07713 0.1293352,0.118653 -0.019175,0.08836 C 9.579891,10.81192 9.282138,10.686948 9.4925357,10.49939 l -0.044335,-0.0283 6.263e-4,-3.15e-4 z m 0,0.42858 -0.1883485,0.182061 6.263e-4,6.08e-4 a 0.18844705,0.18197192 0 0 0 -6.263e-4,0.01699 0.18844705,0.18197192 0 0 0 0.1883485,0.181744 0.18844705,0.18197192 0 0 0 0.1883485,-0.181744 0.18844705,0.18197192 0 0 0 -0.00126,-0.01699 l 0.00126,-6.08e-4 z m 0,0.0937 0.101249,0.09779 -6.263e-4,3.14e-4 a 0.1012509,0.09777188 0 0 1 6.263e-4,0.0091 0.1012509,0.09777188 0 0 1 -0.101249,0.09779 0.1012509,0.09777188 0 0 1 -0.1012489,-0.09779 0.1012509,0.09777188 0 0 1 6.263e-4,-0.0091 l -6.263e-4,-3.14e-4 z" /><path
     id="path25"
     style="opacity:1;fill:#cccccc;fill-opacity:1;stroke:none;stroke-width:0.465455;stroke-linecap:square;stroke-dasharray:none;stroke-opacity:1"
     d="m 32.613786,-9.28098 c -0.314481,0.9866859 -1.128065,1.6761349 -1.876085,2.3360059 -0.552696,0.6766061 -0.975084,1.6855121 -0.5471,2.525819 -0.634255,0.28232 -0.867116,1.004848 -0.800001,1.6512 0,0.3027829 0,0.6055659 0,0.9083489 -0.719597,-0.07964 -1.373308,-0.501575 -1.743912,-1.1265809 -0.563383,-0.795215 -0.680427,-1.860983 -1.393771,-2.5485779 -0.832178,-0.442191 0.253476,0.595989 0.259605,1.0123019 0.335307,0.794595 0.243605,1.74253 0.841818,2.4233509 0.454047,0.6117396 1.228781,1.24004452 2.03626,0.9595067 0.03174,0.71243686 -0.159326,1.55532186 0.444425,2.09224186 0.879141,0.33317104 -0.216863,0.70752704 -0.677611,0.78027204 -1.054465,0.195776 -2.113026,-0.268259 -3.160213,-0.06496 -0.344206,0.09677 -0.577751,0.444681 -0.06926,0.272671 0.908549,-0.09603 1.7754,0.24451 2.622094,0.512733 0.890892,0.140368 2.063112,-0.02446 2.502089,-0.920015 0.04514,-0.347423 0.502477,-0.127222 0.7563,-0.188852 0.625122,0 1.250245,0 1.875367,0 0.412584,1.057517 -0.287614,2.108453 -0.914431,2.914609 -0.376412,0.420469 -1.034311,1.421469 -0.661667,1.714564 0.331963,-0.945912 1.12113,-1.606914 1.845817,-2.249268 0.552721,-0.676764 0.975072,-1.685827 0.547099,-2.526268 0.634255,-0.28232004 0.867116,-1.00484804 0.800001,-1.65119904 0,-0.265813 0,-0.53162524 0,-0.79743816 0.873088,-0.1418138 1.554597,0.62223216 1.927031,1.32318216 0.434854,0.728603 0.571748,1.64858704 1.210651,2.24106604 0.832178,0.442191 -0.253474,-0.595989 -0.259604,-1.012302 -0.335858,-0.79181304 -0.240507,-1.73968804 -0.841774,-2.4157434 -0.455305,-0.6073252 -1.238912,-1.2103092 -2.036303,-0.9207492 -0.03626,-0.7268799 0.169401,-1.5880879 -0.444426,-2.1386069 -0.879142,-0.333172 0.216863,-0.707529 0.677612,-0.7802739 1.054465,-0.195776 2.113026,0.2682599 3.160214,0.06496 0.344206,-0.09677 0.57775,-0.444681 0.06926,-0.27267 -0.908551,0.09603 -1.775402,-0.244504 -2.622094,-0.512734 -0.890893,-0.14037 -2.063115,0.02446 -2.50209,0.920014 -0.04514,0.347424 -0.502477,0.127223 -0.756301,0.188853 -0.625122,0 -1.250244,0 -1.875366,0 -0.412583,-1.057516 0.287616,-2.108453 0.914433,-2.914608 0.343732,-0.51659 1.0052,-1.127397 0.691936,-1.800853 z" /><path
     style="opacity:0.666667;fill:#ff00ff;fill-opacity:1;stroke:none;stroke-width:0.529171;stroke-linecap:square;stroke-dasharray:none;stroke-opacity:1"
     d="m -12.452065,22.307883 -0.512635,-0.01654 c -0.954592,0.06165 -2.199428,-0.499625 -2.480491,-1.909978 -0.281063,-1.410352 -0.598453,-2.124926 -0.967392,-2.703735 1.343853,0.357853 1.450035,4.156557 3.745542,3.828224 l 0.281122,2e-6 z"
     id="path29"
     sodipodi:nodetypes="cczcccc"
     inkscape:transform-center-x="4.547567"
     inkscape:transform-center-y="-1.7714839" /><path
     style="opacity:0.666667;fill:#ff00ff;fill-opacity:1;stroke:none;stroke-width:0.529171;stroke-linecap:square;stroke-dasharray:none;stroke-opacity:1"
     d="m -7.2513018,21.220601 0.512634,0.01654 c 0.954592,-0.06165 2.199429,0.499626 2.480492,1.909977 0.281062,1.410354 0.598453,2.124927 0.967391,2.703736 -1.343852,-0.357854 -1.450035,-4.156557 -3.745541,-3.828224 l -0.281123,-2e-6 z"
     id="path31"
     sodipodi:nodetypes="cczcccc"
     inkscape:transform-center-x="-4.5475669"
     inkscape:transform-center-y="1.7714843" /><path
     id="path36"
     style="fill:#2936ef;fill-opacity:1;stroke:none;stroke-width:0.035884;stroke-dasharray:none;stroke-opacity:1"
     d="m -4.2333994,11.180336 a 0.21001676,0.20280048 0 0 0 -0.2099069,0.202548 0.21001676,0.20280048 0 0 0 6.979e-4,0.01892 l -6.979e-4,0.0011 0.2099069,0.202899 0.209907,-0.202899 -0.0014,-0.0011 a 0.21001676,0.20280048 0 0 0 0.0014,-0.01892 0.21001676,0.20280048 0 0 0 -0.209907,-0.202548 z m 0,0.09216 a 0.11284011,0.10896288 0 0 1 0.112838,0.108984 0.11284011,0.10896288 0 0 1 -6.98e-4,0.01016 l 6.98e-4,6.98e-4 -0.112838,0.108986 -0.112838,-0.108983 6.98e-4,-6.99e-4 a 0.11284011,0.10896288 0 0 1 -6.98e-4,-0.01016 0.11284011,0.10896288 0 0 1 0.112838,-0.108983 z m -0.577858,0.09041 c -0.201483,0.005 -0.381046,0.07153 -0.394233,0.135266 -0.02434,0.07455 0.05314,0.149881 0.172762,0.168556 0.119635,0.01865 0.236064,-0.02637 0.260369,-0.100923 0.0013,-0.08596 -0.144842,-0.132232 0.02068,-0.09847 0.1616129,0.03296 0.4937939,0.172241 0.259318,0.381267 l 0.04941,0.03154 -3.51e-4,6.98e-4 0.2099069,0.202548 0.209907,-0.202548 -6.98e-4,-6.98e-4 0.04941,-0.03154 c -0.2344829,-0.209028 0.09735,-0.348304 0.258965,-0.381267 0.165518,-0.03376 0.0201,0.01251 0.02137,0.09847 0.0243,0.07455 0.140733,0.119571 0.2603691,0.100923 0.119627,-0.01867 0.197106,-0.09401 0.172761,-0.168556 -0.02788,-0.134744 -0.7988251,-0.280053 -0.9510621,0.164351 -0.01412,-0.0012 -0.02829,-8.66e-4 -0.0424,3.5e-4 -0.07528,-0.220529 -0.302568,-0.296365 -0.516182,-0.299967 -0.01359,-2.3e-4 -0.02687,-3.35e-4 -0.0403,0 z m -0.285249,0.534755 v 6.98e-4 c -0.07478,0 -0.158114,0.0034 -0.249856,0.01051 l -0.389327,0.02803 c -0.155115,0.01092 -0.182379,0.02053 -0.182924,0.06483 0,0.0083 0.03265,0.01949 0.07289,0.02418 0.04021,0.0047 0.08914,0.02048 0.108283,0.03469 0.06948,0.05155 0.07092,0.07306 0.06693,0.959826 -0.177578,0.122999 -0.2952969,-0.162471 -0.3251995,-0.309076 -0.033761,-0.165517 0.012509,-0.0194 0.098472,-0.02068 0.07455,-0.02431 0.119571,-0.140734 0.100923,-0.260369 -0.01634,-0.104669 -0.07591,-0.177159 -0.140522,-0.177317 -0.00923,-2.3e-5 -0.018717,0.0015 -0.028034,0.0046 -0.063732,0.01319 -0.1302476,0.19275 -0.1352657,0.394233 -3.348e-4,0.01343 -2.292e-4,0.02671 0,0.0403 0.00361,0.213614 0.079438,0.4409 0.2999677,0.516182 -0.0012,0.01411 -0.0015,0.02829 -3.51e-4,0.0424 -0.4444036,0.152233 -0.2990943,0.923178 -0.1643508,0.951059 0.069118,0.02257 0.1382668,-0.04295 0.1629498,-0.14788 0.08011,0.0024 0.19691,0.0036 0.330104,0.0028 l 0.411754,-0.0035 v -0.034 c 0,-0.03009 -0.009,-0.0354 -0.07815,-0.04906 -0.103963,-0.02079 -0.147615,-0.05174 -0.165402,-0.116033 -0.0094,-0.0339 -0.01481,-0.364812 -0.01507,-0.934944 v -0.882683 l 0.05011,-0.0098 c 0.02738,-0.0052 0.09507,-0.0059 0.150334,-0.0017 0.293546,0.02184 0.462293,0.178054 0.462566,0.428926 2.75e-4,0.149645 -0.03294,0.233661 -0.132812,0.340617 -0.08674,0.09275 -0.176832,0.149674 -0.278591,0.175916 l -0.115291,0.02979 c -0.0632,0.0164 -0.06616,0.03252 -0.01086,0.06098 0.05909,0.03064 0.09088,0.06868 0.1636501,0.19589 0.03501,0.06156 0.09028,0.155668 0.1222999,0.209557 0.03228,0.0536 0.06278,0.109124 0.06798,0.123351 0.01404,0.03748 0.1289581,0.197627 0.2288301,0.318539 0.04633,0.056 0.0962,0.10959 0.149634,0.161199 -0.04923,0.04324 -0.09588,0.08267 -0.132813,0.108633 -0.140341,0.09958 -0.327171,0.187039 -0.4664211,0.217966 -0.235274,0.05196 -0.543029,0.02898 -0.704714,-0.05257 -0.0703,-0.0353 -0.09533,-0.03341 -0.07044,0.0056 0.0247,0.03965 0.261229,0.156112 0.37531,0.185375 0.08536,0.02185 0.150982,0.02767 0.299267,0.02628 0.104241,-8.5e-4 0.223617,-0.0071 0.264924,-0.01401 0.104789,-0.01705 0.294605,-0.08285 0.437686,-0.150684 0.07277,-0.03474 0.149123,-0.08142 0.224626,-0.135617 0.0755,0.05418 0.151789,0.100866 0.224274,0.135617 0.143358,0.06783 0.333532,0.133468 0.438036,0.150684 0.04159,0.0071 0.1604305,0.01338 0.2649255,0.01401 0.148273,0.0014 0.213633,-0.0044 0.299267,-0.02628 0.114068,-0.02901 0.350412,-0.145703 0.37531,-0.185375 0.02469,-0.03912 1.42e-4,-0.04103 -0.07043,-0.0056 -0.161406,0.08155 -0.469707,0.104524 -0.704713,0.05257 -0.1392605,-0.03092 -0.3261585,-0.118391 -0.4667785,-0.217969 a 1.6414617,1.6414617 0 0 1 -0.132464,-0.108636 c 0.05344,-0.05161 0.103303,-0.105205 0.149633,-0.161198 0.09959,-0.120917 0.214862,-0.281132 0.22883,-0.31889 0.0054,-0.01354 0.03563,-0.06911 0.06764,-0.123001 0.03228,-0.0536 0.087641,-0.148021 0.1226505,-0.209556 0.07277,-0.127207 0.104562,-0.1649 0.16365,-0.19554 0.05497,-0.02845 0.05203,-0.04491 -0.01086,-0.06133 l -0.1153,-0.02979 c -0.1020275,-0.02626 -0.1919435,-0.08319 -0.2789415,-0.175915 -0.09985,-0.106972 -0.13275,-0.191241 -0.132462,-0.340617 0,-0.250878 0.169031,-0.407315 0.4625675,-0.428925 0.05497,-0.0041 0.12269,-0.0028 0.150334,0.0021 l 0.04976,0.0095 v 0.882383 c 0,0.570133 -0.0053,0.901021 -0.01473,0.934944 -0.01771,0.0643 -0.06171,0.09512 -0.165402,0.115642 -0.06921,0.01375 -0.07814,0.01976 -0.07814,0.04941 v 0.034 l 0.411754,0.0035 c 0.132968,0.0011 0.249631,-3.63e-4 0.329754,-0.0028 0.0246,0.105171 0.0941,0.170832 0.1633,0.148232 0.134744,-0.02789 0.280052,-0.798828 -0.164351,-0.951065 0.0012,-0.01412 8.5e-4,-0.02829 -3.5e-4,-0.0424 0.220529,-0.07528 0.296365,-0.302568 0.299966,-0.516182 2.3e-4,-0.01359 3.35e-4,-0.02687 0,-0.0403 -0.0051,-0.201483 -0.07153,-0.381046 -0.135265,-0.394233 -0.0093,-0.003 -0.01881,-0.0046 -0.02804,-0.0046 -0.06461,1.58e-4 -0.124182,0.07265 -0.140522,0.177317 -0.01865,0.119635 0.02638,0.236064 0.100922,0.260369 0.08597,0.0013 0.132232,-0.144841 0.09847,0.02067 -0.02991,0.146638 -0.147551,0.432293 -0.325197,0.309079 -0.004,-0.886937 -0.0027,-0.908603 0.06693,-0.960177 0.01925,-0.0143 0.06806,-0.03003 0.108283,-0.03469 0.04019,-0.0047 0.07289,-0.01559 0.07289,-0.02418 -8.5e-4,-0.04432 -0.02814,-0.05388 -0.183275,-0.06483 l -0.389321,-0.02808 c -0.368812,-0.02737 -0.5837175,-0.004 -0.7667395,0.0827 -0.131864,0.06237 -0.188556,0.114086 -0.241096,0.220771 -0.04294,0.08755 -0.04665,0.103955 -0.04556,0.227078 0.0011,0.166324 0.0308,0.239219 0.142975,0.353583 0.100679,0.102604 0.177388,0.15116 0.313634,0.199044 l 0.107584,0.03782 -0.07149,0.0785 a 2.7357692,2.7357692 0 0 0 -0.188172,0.255531 c -0.06401,0.0974 -0.146601,0.214753 -0.183275,0.260719 l -0.127556,0.161548 c -0.01456,0.01853 -0.03274,0.03951 -0.05327,0.06168 a 1.3678846,1.3678846 0 0 1 -0.05291,-0.06132 L -4.4145714,13.62458 a 4.924385,4.924385 0 0 1 -0.182573,-0.26107 2.7357692,2.7357692 0 0 0 -0.188181,-0.255463 l -0.07219,-0.0785 0.108282,-0.03785 a 0.71130001,0.71130001 0 0 0 0.312934,-0.199044 c 0.1124361,-0.114361 0.1425211,-0.187256 0.1433251,-0.353583 8.21e-4,-0.123098 -0.0026,-0.139533 -0.04556,-0.227078 -0.05254,-0.106687 -0.1092341,-0.158402 -0.241095,-0.220771 -0.137326,-0.0651 -0.292549,-0.0944 -0.516883,-0.09356 z m -0.983655,1.122074 a 0.20280048,0.21001676 0 0 0 -0.2025481,0.209907 0.20280048,0.21001676 0 0 0 0.202548,0.209908 0.20280048,0.21001676 0 0 0 0.018923,-0.0014 l 0.00105,0.0014 0.2029011,-0.209908 -0.2028988,-0.209907 -0.00105,6.99e-4 a 0.20280048,0.21001676 0 0 0 -0.018923,-6.99e-4 z m 3.67355,0 -0.2029,0.209907 0.2029,0.209908 0.0011,-0.0014 a 0.20280048,0.21001676 0 0 0 0.01893,0.0014 0.20280048,0.21001676 0 0 0 0.202548,-0.209908 0.20280048,0.21001676 0 0 0 -0.202548,-0.209907 0.20280048,0.21001676 0 0 0 -0.01893,6.99e-4 z m -3.6749517,0.09707 a 0.10896288,0.11284011 0 0 1 0.010162,6.99e-4 l 6.982e-4,-6.99e-4 0.1089834,0.112838 -0.1089834,0.112839 -6.984e-4,-6.99e-4 a 0.10896288,0.11284011 0 0 1 -0.010162,6.99e-4 0.10896288,0.11284011 0 0 1 -0.1089835,-0.112839 0.10896288,0.11284011 0 0 1 0.1089837,-0.112838 z m 3.6854647,0 6.78e-4,6.99e-4 a 0.10896288,0.11284011 0 0 1 0.01017,-6.99e-4 0.10896288,0.11284011 0 0 1 0.108983,0.112838 0.10896288,0.11284011 0 0 1 -0.108983,0.112839 0.10896288,0.11284011 0 0 1 -0.01017,-6.99e-4 l -6.78e-4,6.99e-4 -0.108984,-0.112839 z m -3.361318,0.290156 c 0.02642,-4.07e-4 0.05478,0.0098 0.0848,0.03014 l -0.0021,0.443993 -0.0445,0.03995 a 0.2325404,0.2325404 0 0 1 -0.07394,0.03995 c -0.0037,-0.09301 -0.04385,-0.172749 -0.104079,-0.192385 -0.085962,-0.0013 -0.132231,0.14414 -0.098471,-0.02137 0.024723,-0.121209 0.1093925,-0.338284 0.2382915,-0.340267 z m 3.048033,0 c 0.1289,0.002 0.213569,0.219057 0.238292,0.340267 0.03377,0.165517 -0.01252,0.0201 -0.09847,0.02137 -0.06015,0.01961 -0.100311,0.09918 -0.104077,0.192035 a 0.2325404,0.2325404 0 0 1 -0.07395,-0.03995 l -0.04486,-0.03995 -0.0021,-0.443643 c 0.03014,-0.02051 0.05863,-0.03055 0.08515,-0.03014 z m -1.524016,0.968585 -0.209907,0.20255 3.5e-4,3.5e-4 -0.04941,0.03154 c 0.234477,0.209025 -0.09771,0.348303 -0.259317,0.381265 -0.165517,0.03377 -0.0194,-0.01252 -0.02067,-0.09847 -0.02431,-0.07456 -0.140734,-0.119572 -0.260369,-0.100923 -0.119622,0.01868 -0.197105,0.09401 -0.172762,0.168556 0.01319,0.06372 0.19275,0.130248 0.394233,0.135266 0.01343,3.35e-4 0.02671,2.3e-4 0.0403,0 0.213615,-0.0035 0.440901,-0.07944 0.516182,-0.299968 0.01411,0.0012 0.02829,0.0015 0.0424,3.51e-4 0.152238,0.444403 0.923181,0.299096 0.951066,0.164351 0.02434,-0.07455 -0.05313,-0.149881 -0.172763,-0.168556 -0.119636,-0.01865 -0.236064,0.02638 -0.260368,0.100923 -0.0013,0.08596 0.144139,0.132234 -0.02137,0.09847 -0.161617,-0.03296 -0.493451,-0.172242 -0.258971,-0.381268 l -0.04941,-0.03154 6.98e-4,-3.51e-4 z m 0,0.477636 -0.209907,0.202899 6.98e-4,6.78e-4 a 0.21001676,0.20280048 0 0 0 -6.98e-4,0.01893 0.21001676,0.20280048 0 0 0 0.209907,0.202547 0.21001676,0.20280048 0 0 0 0.209907,-0.202547 0.21001676,0.20280048 0 0 0 -0.0014,-0.01893 l 0.0014,-6.78e-4 z m 0,0.104428 0.112838,0.108983 -6.98e-4,3.5e-4 a 0.11284011,0.10896288 0 0 1 6.98e-4,0.01017 0.11284011,0.10896288 0 0 1 -0.112838,0.108983 0.11284011,0.10896288 0 0 1 -0.112838,-0.108983 0.11284011,0.10896288 0 0 1 6.98e-4,-0.01017 l -6.98e-4,-3.5e-4 z" /></svg>
