<svg xmlns="http://www.w3.org/2000/svg" xml:space="preserve" width="70" height="70" viewBox="0 0 18.521 18.521"><path d="M.627 4.09v8.748c2.844 4.085 6.996 5.057 8.634 5.057s5.789-.972 8.633-5.057V4.09c-4.81-.745-7.457-2.261-8.634-2.261S5.438 3.345.627 4.089z" style="opacity:.638298;fill:gray;stroke:#bf9950;stroke-width:.4;stroke-linecap:square;stroke-linejoin:miter;stroke-dasharray:none;stroke-opacity:1"/><path d="M6.105 5.44q-.41 0-.913.039l-1.423.102c-.567.04-.667.075-.669.237 0 .031.12.071.267.088s.325.075.395.127c.256.19.26.251.245 3.57l-.015 3.084-.163.146a.85.85 0 0 1-.358.178 3 3 0 0 0-.258.053c-.1.031-.137.18-.057.231.039.025.749.04 1.577.034l1.506-.012v-.124c0-.11-.033-.13-.286-.18-.38-.076-.54-.189-.605-.424-.034-.124-.053-1.334-.054-3.418V5.945l.183-.035c.1-.019.347-.022.549-.007 1.073.08 1.69.65 1.691 1.567.001.547-.12.855-.485 1.246-.317.339-.647.547-1.019.643l-.421.109c-.231.06-.242.119-.04.223.216.112.332.25.598.715.128.225.33.57.447.767.118.196.23.398.249.45.051.137.471.722.836 1.164q.254.307.547.59c-.18.158-.35.302-.485.397-.513.364-1.196.683-1.705.796-.86.19-1.985.106-2.576-.192-.257-.129-.349-.121-.258.022.09.145.955.57 1.372.677.312.08.552.101 1.094.096.381-.003.817-.026.968-.051.383-.063 1.078-.303 1.601-.551.266-.127.544-.297.82-.495.276.198.555.368.82.495.524.248 1.219.488 1.601.551.152.025.587.048.969.051.542.005.781-.016 1.094-.096.417-.106 1.281-.532 1.372-.677.09-.143 0-.151-.258-.022-.59.298-1.717.382-2.576.192-.509-.113-1.192-.432-1.706-.796a6 6 0 0 1-.484-.397q.293-.283.547-.59c.364-.442.785-1.027.836-1.165.02-.05.131-.253.248-.45.118-.196.32-.541.448-.766.266-.465.382-.603.598-.715.201-.104.19-.163-.04-.223l-.421-.109c-.373-.096-.702-.304-1.02-.643-.365-.391-.485-.7-.484-1.246 0-.917.618-1.488 1.691-1.567.201-.015.448-.012.549.007l.182.035V9.17c0 2.084-.019 3.294-.053 3.418-.065.235-.226.348-.605.423-.253.05-.286.071-.286.18v.125l1.506.012c.828.007 1.538-.009 1.577-.034.08-.05.043-.2-.057-.231a3 3 0 0 0-.259-.053.85.85 0 0 1-.357-.178l-.164-.146-.014-3.084c-.015-3.318-.011-3.38.245-3.57.07-.052.248-.11.395-.127s.267-.057.267-.088c-.003-.162-.103-.197-.67-.237l-1.423-.102c-1.348-.1-2.134-.015-2.803.302-.482.228-.689.418-.881.808-.157.32-.17.38-.166.83.004.608.112.874.522 1.292.368.375.648.553 1.146.728l.394.138-.262.287a10 10 0 0 0-.688.934c-.234.356-.535.785-.669.953l-.466.59c-.053.067-.12.145-.195.226a5 5 0 0 1-.194-.225l-.467-.59a18 18 0 0 1-.668-.954 10 10 0 0 0-.688-.934l-.263-.287.395-.138A2.6 2.6 0 0 0 8.52 8.71c.411-.418.52-.684.523-1.292.003-.45-.009-.51-.166-.83-.192-.39-.399-.58-.881-.808-.502-.238-1.07-.345-1.89-.342" style="fill:#0a4887;stroke-width:.19294;fill-opacity:1"/><g style="stroke:#d2bb89;stroke-opacity:1"><path d="M7.201 4.606c1.288-.449 2.641-.546 4.117 0" style="fill:none;stroke:#d2bb89;stroke-width:.340421;stroke-linecap:square;stroke-linejoin:miter;stroke-dasharray:none;stroke-opacity:1" transform="translate(2.876 1.838)scale(.68946)"/><path d="M7.202 4.97c1.287-.448 2.64-.545 4.116 0" style="fill:none;stroke:#d2bb89;stroke-width:.152527;stroke-linecap:square;stroke-linejoin:miter;stroke-dasharray:none;stroke-opacity:1" transform="translate(2.876 1.838)scale(.68946)"/><path d="m6.895 4.091-.989-1.917 2.018.908L9.26 1.498l1.337 1.584 2.018-.908-.989 1.917" style="fill:none;stroke:#d2bb89;stroke-width:.340421;stroke-linecap:square;stroke-linejoin:miter;stroke-dasharray:none;stroke-opacity:1" transform="translate(2.876 1.838)scale(.68946)"/></g></svg>