<?xml version="1.0" encoding="UTF-8" standalone="no"?>
<svg
   xml:space="preserve"
   width="70"
   height="70"
   viewBox="0 0 18.521 18.521"
   version="1.1"
   id="svg5"
   sodipodi:docname="home_icon_5.svg"
   inkscape:version="1.3 (0e150ed6c4, 2023-07-21)"
   xmlns:inkscape="http://www.inkscape.org/namespaces/inkscape"
   xmlns:sodipodi="http://sodipodi.sourceforge.net/DTD/sodipodi-0.dtd"
   xmlns="http://www.w3.org/2000/svg"
   xmlns:svg="http://www.w3.org/2000/svg"><defs
     id="defs5"><inkscape:path-effect
       effect="skeletal"
       id="path-effect7"
       is_visible="true"
       lpeversion="1"
       pattern="m 2.9581228,4.1644119 c -0.381297,1.044903 -1.2110985,1.807264 -2.07224251,2.462921 -0.8368473,0.792338 -1.5521603,2.616307 -0.4418383,3.4261781 l 0.4196173,-0.04651 c 0.28548701,-0.3695881 0.0765,-0.6035061 0.06201,-0.7017721 C 0.39788113,6.9850697 3.6245555,5.4444838 2.9581208,4.1644109 Z"
       copytype="repeated_stretched"
       prop_scale="1.32"
       scale_y_rel="false"
       spacing="-0.2"
       normal_offset="-1.1"
       tang_offset="1.4"
       prop_units="false"
       vertical_pattern="false"
       hide_knot="false"
       fuse_tolerance="0" /><inkscape:path-effect
       effect="skeletal"
       id="path-effect5"
       is_visible="true"
       lpeversion="1"
       pattern="m 4.1744825,7.487046 -0.6773737,-0.4911363 -0.00453,0.00323 a 0.6775215,0.49126613 0 0 0 -0.062402,-0.00323 0.6775215,0.49126613 0 0 0 -0.6773737,0.4911363 0.6775215,0.49126613 0 0 0 0.6773737,0.4914596 0.6775215,0.49126613 0 0 0 0.063373,-0.00226 V 7.975919 l 0.00356,0.00258 z m -0.349195,0 -0.3640681,0.2641595 -0.00194,-0.00129 A 0.3640262,0.26395287 0 0 1 3.4253273,7.7512055 0.3640262,0.26395287 0 0 1 3.061259,7.487046 0.3640262,0.26395287 0 0 1 3.4253273,7.2232098 a 0.3640262,0.26395287 0 0 1 0.033626,0.00162 l 0.00226,-0.00162 z"
       copytype="repeated_stretched"
       prop_scale="1"
       scale_y_rel="false"
       spacing="1.9"
       normal_offset="-0.5"
       tang_offset="0"
       prop_units="false"
       vertical_pattern="false"
       hide_knot="false"
       fuse_tolerance="0" /></defs><sodipodi:namedview
     id="namedview5"
     pagecolor="#ffffff"
     bordercolor="#000000"
     borderopacity="0.25"
     inkscape:showpageshadow="2"
     inkscape:pageopacity="0.0"
     inkscape:pagecheckerboard="0"
     inkscape:deskcolor="#d1d1d1"
     inkscape:zoom="8"
     inkscape:cx="35.375"
     inkscape:cy="34.375"
     inkscape:window-width="1920"
     inkscape:window-height="991"
     inkscape:window-x="-9"
     inkscape:window-y="-9"
     inkscape:window-maximized="1"
     inkscape:current-layer="svg5" /><rect
     style="opacity:1;fill:#fac10e;fill-opacity:1;stroke:none;stroke-width:0.529171;stroke-linecap:square;stroke-dasharray:none;stroke-opacity:1"
     id="rect24"
     width="0"
     height="0"
     x="10.533818"
     y="6.9040337"
     rx="0"
     ry="0" /><g
     id="g1"
     transform="translate(0.74836139)"><rect
       style="opacity:1;fill:#0242be;fill-opacity:1;stroke:#ceced0;stroke-width:0.439612;stroke-linecap:square;stroke-dasharray:none;stroke-opacity:1"
       id="rect36"
       width="4.5794158"
       height="4.5132694"
       x="6.2224307"
       y="7.0038652"
       rx="0.78739452"
       ry="0.79117012" /><path
       id="path36"
       style="fill:#e3e5e4;fill-opacity:1;stroke:none;stroke-width:0.0321985;stroke-dasharray:none;stroke-opacity:1"
       d="m 8.5121116,7.421985 a 0.18844705,0.18197192 0 0 0 -0.188348,0.1817453 0.18844705,0.18197192 0 0 0 6.26e-4,0.016977 l -6.26e-4,9.87e-4 0.188348,0.1820603 0.188349,-0.1820603 -0.0013,-9.87e-4 a 0.18844705,0.18197192 0 0 0 0.0013,-0.016977 0.18844705,0.18197192 0 0 0 -0.188349,-0.1817453 z m 0,0.082695 a 0.1012509,0.09777188 0 0 1 0.101249,0.097791 0.1012509,0.09777188 0 0 1 -6.26e-4,0.00912 l 6.26e-4,6.263e-4 -0.101249,0.097793 -0.101249,-0.09779 6.27e-4,-6.272e-4 a 0.1012509,0.09777188 0 0 1 -6.27e-4,-0.00912 0.1012509,0.09777188 0 0 1 0.101249,-0.09779 z m -0.518509,0.081124 c -0.18079,0.00449 -0.341911,0.064184 -0.353744,0.1213735 -0.02184,0.066893 0.04768,0.1344875 0.155019,0.1512445 0.107348,0.016735 0.211819,-0.023662 0.233628,-0.090558 0.0012,-0.077131 -0.129966,-0.1186512 0.01856,-0.088357 0.145014,0.029575 0.443079,0.1545511 0.232685,0.3421091 l 0.04434,0.028302 -3.15e-4,6.263e-4 0.188348,0.1817454 0.188349,-0.1817454 -6.27e-4,-6.263e-4 0.04434,-0.028301 c -0.210399,-0.18756 0.08735,-0.3125317 0.232369,-0.3421093 0.148519,-0.030293 0.01804,0.011225 0.01917,0.088357 0.0218,0.066893 0.126279,0.1072906 0.233628,0.090558 0.107341,-0.016753 0.176863,-0.084355 0.155018,-0.1512451 -0.02502,-0.1209051 -0.716782,-0.2512902 -0.853383,0.1474714 -0.01267,-0.00108 -0.02538,-7.771e-4 -0.03805,3.141e-4 -0.06755,-0.1978797 -0.271493,-0.265927 -0.463168,-0.269159 -0.01219,-2.064e-4 -0.02411,-3.006e-4 -0.03616,0 z m -0.255953,0.4798333 v 6.263e-4 c -0.0671,0 -0.141875,0.00305 -0.224194,0.00943 l -0.349342,0.025151 c -0.139184,0.0098 -0.163647,0.018421 -0.164136,0.058172 0,0.00745 0.0293,0.017488 0.0654,0.021697 0.03608,0.00422 0.07998,0.018377 0.09716,0.031127 0.06234,0.046256 0.06364,0.065556 0.06006,0.8612474 -0.159341,0.1103666 -0.264969,-0.1457843 -0.291801,-0.2773323 -0.03029,-0.1485175 0.01122,-0.017408 0.08836,-0.018556 0.06689,-0.021813 0.10729,-0.12628 0.09056,-0.2336279 -0.01466,-0.093919 -0.06811,-0.1589639 -0.126089,-0.1591057 -0.0083,-2.06e-5 -0.0168,0.00135 -0.02515,0.00413 -0.05719,0.011835 -0.116871,0.1729537 -0.121374,0.3537435 -3e-4,0.012051 -2.05e-4,0.023967 0,0.036161 0.0032,0.1916748 0.07128,0.3956175 0.26916,0.4631677 -0.0011,0.012664 -0.0014,0.025381 -3.15e-4,0.038047 -0.398761,0.1365982 -0.268376,0.8283627 -0.147471,0.8533797 0.06202,0.02025 0.124066,-0.03854 0.146214,-0.132692 0.07188,0.0022 0.176686,0.0032 0.296201,0.0025 l 0.369465,-0.00314 V 9.969255 c 0,-0.027 -0.0081,-0.031764 -0.07012,-0.044021 -0.09328,-0.018642 -0.132454,-0.046413 -0.148414,-0.1041054 -0.0084,-0.030422 -0.01329,-0.3273449 -0.01352,-0.8389212 V 8.1901801 l 0.04496,-0.00879 c 0.02457,-0.00467 0.08531,-0.00529 0.134893,-0.00153 0.263398,0.019597 0.414814,0.159767 0.415059,0.3848733 2.47e-4,0.1342758 -0.02956,0.2096629 -0.119172,0.305634 -0.07783,0.083224 -0.15867,0.1343018 -0.249978,0.1578486 l -0.10345,0.02673 c -0.05671,0.014716 -0.05936,0.02918 -0.0097,0.054717 0.05302,0.027493 0.08155,0.061626 0.146842,0.1757709 0.03141,0.055238 0.08101,0.1396805 0.109739,0.1880344 0.02896,0.0481 0.05633,0.097917 0.061,0.1106823 0.0126,0.03363 0.115714,0.1773303 0.205329,0.2858241 0.04157,0.050245 0.08632,0.098334 0.134265,0.1446423 -0.04417,0.0388 -0.08603,0.07418 -0.119172,0.09748 -0.125927,0.08935 -0.293569,0.167829 -0.418517,0.19558 -0.211111,0.04662 -0.487258,0.026 -0.632337,-0.04717 -0.06308,-0.03167 -0.08554,-0.02998 -0.0632,0.005 0.02216,0.03558 0.234399,0.140078 0.336764,0.166336 0.07659,0.01961 0.135475,0.02483 0.268531,0.02358 0.09354,-7.63e-4 0.20065,-0.0064 0.237715,-0.01257 0.09403,-0.0153 0.264348,-0.07434 0.392733,-0.135208 0.0653,-0.03117 0.133808,-0.07306 0.201556,-0.121689 0.06775,0.04862 0.1362,0.09051 0.20124,0.121689 0.128635,0.06086 0.299277,0.11976 0.393048,0.135208 0.03732,0.0064 0.143953,0.01201 0.237717,0.01257 0.133044,0.0013 0.191691,-0.0039 0.26853,-0.02358 0.102353,-0.02603 0.314423,-0.130739 0.336764,-0.166336 0.02216,-0.0351 1.28e-4,-0.03682 -0.0632,-0.005 -0.144829,0.07317 -0.421466,0.09379 -0.632336,0.04717 -0.124958,-0.02774 -0.292661,-0.106232 -0.418838,-0.195583 a 1.4728759,1.4728759 0 0 1 -0.11886,-0.09748 c 0.04795,-0.04631 0.09269,-0.0944 0.134265,-0.1446418 0.08936,-0.1084986 0.192795,-0.2522585 0.205328,-0.2861386 0.0049,-0.012151 0.03197,-0.062014 0.06069,-0.1103679 0.02896,-0.0481 0.07864,-0.1328187 0.110054,-0.1880343 0.0653,-0.1141419 0.09382,-0.1479637 0.146842,-0.1754567 0.04932,-0.025528 0.04669,-0.040297 -0.0097,-0.055031 l -0.103458,-0.02673 C 9.1686596,9.0046497 9.0879736,8.9535667 9.0099106,8.870365 8.9203106,8.77438 8.8907946,8.6987653 8.8910536,8.5647309 c 0,-0.2251116 0.151671,-0.3654818 0.415059,-0.3848724 0.04932,-0.00368 0.110089,-0.00251 0.134894,0.00188 l 0.04465,0.00852 v 0.7917581 c 0,0.5115776 -0.0048,0.8084822 -0.01322,0.8389211 -0.01589,0.057694 -0.05537,0.085348 -0.148415,0.1037645 -0.0621,0.012338 -0.07012,0.01773 -0.07012,0.044335 v 0.030508 l 0.369465,0.00314 c 0.119312,9.87e-4 0.223993,-3.26e-4 0.295887,-0.0025 0.02207,0.09437 0.08444,0.153287 0.1465284,0.133008 0.120906,-0.02502 0.25129,-0.7167819 -0.1474714,-0.8533839 0.0011,-0.012667 7.63e-4,-0.025383 -3.14e-4,-0.038046 0.1978804,-0.067548 0.2659274,-0.2714929 0.2691584,-0.4631677 2.06e-4,-0.012194 3.01e-4,-0.02411 0,-0.036161 -0.0046,-0.1807897 -0.06418,-0.3419109 -0.121373,-0.3537435 -0.0083,-0.00269 -0.01688,-0.00413 -0.02516,-0.00413 -0.05797,1.418e-4 -0.1114284,0.065188 -0.1260894,0.1591057 -0.01674,0.107348 0.02367,0.2118193 0.09056,0.2336279 0.07714,0.00117 0.118652,-0.129965 0.08836,0.018547 -0.02684,0.1315776 -0.1323986,0.3878945 -0.2917996,0.2773352 -0.0036,-0.7958445 -0.0024,-0.8152853 0.06006,-0.8615624 0.01727,-0.012831 0.06107,-0.026946 0.09716,-0.031127 0.03606,-0.00422 0.0654,-0.013989 0.0654,-0.021697 -7.63e-4,-0.039768 -0.02525,-0.048346 -0.164452,-0.058172 L 9.510488,8.0754213 C 9.179555,8.0508623 8.986722,8.0718313 8.822497,8.1496273 8.704176,8.2055913 8.653306,8.2519961 8.606162,8.3477241 c -0.03853,0.078558 -0.04186,0.093278 -0.04088,0.203756 9.87e-4,0.1492417 0.02764,0.2146501 0.128291,0.3172683 0.09034,0.092066 0.15917,0.1356352 0.281423,0.1786013 l 0.09653,0.033936 -0.06415,0.070438 A 2.4547928,2.4547928 0 0 0 8.83853,9.3810101 C 8.78109,9.4684081 8.706986,9.5737066 8.674078,9.6149523 l -0.114455,0.144956 c -0.01306,0.016623 -0.02938,0.03545 -0.0478,0.055341 A 1.2273964,1.2273964 0 0 1 8.464343,9.7602253 L 8.3495466,9.6151937 A 4.4186275,4.4186275 0 0 1 8.1857246,9.3809369 2.4547928,2.4547928 0 0 0 8.0168716,9.1517111 l -0.06478,-0.070438 0.09716,-0.033963 a 0.63824616,0.63824616 0 0 0 0.280794,-0.1786006 c 0.100888,-0.1026156 0.127883,-0.1680239 0.128605,-0.3172683 7.37e-4,-0.1104553 -0.0023,-0.1252023 -0.04088,-0.2037561 -0.04714,-0.09573 -0.09802,-0.1421333 -0.216333,-0.1980967 -0.123222,-0.058414 -0.262503,-0.084705 -0.463797,-0.083951 z m -0.882629,1.0068318 a 0.18197192,0.18844705 0 0 0 -0.181745,0.1883488 0.18197192,0.18844705 0 0 0 0.181745,0.1883487 0.18197192,0.18844705 0 0 0 0.01698,-0.00127 l 9.42e-4,0.00127 0.182063,-0.1883487 -0.18206,-0.1883488 -9.42e-4,6.272e-4 a 0.18197192,0.18844705 0 0 0 -0.01698,-6.272e-4 z m 3.2962594,0 -0.1820614,0.1883488 0.1820614,0.1883487 9.87e-4,-0.00127 a 0.18197192,0.18844705 0 0 0 0.01699,0.00127 0.18197192,0.18844705 0 0 0 0.181745,-0.1883487 0.18197192,0.18844705 0 0 0 -0.181745,-0.1883488 0.18197192,0.18844705 0 0 0 -0.01699,6.272e-4 z m -3.2975164,0.087101 a 0.09777188,0.1012509 0 0 1 0.0091,6.272e-4 l 6.26e-4,-6.272e-4 0.09779,0.1012492 -0.09779,0.1012493 -6.27e-4,-6.267e-4 a 0.09777188,0.1012509 0 0 1 -0.0091,6.267e-4 0.09777188,0.1012509 0 0 1 -0.09779,-0.1012493 0.09777188,0.1012509 0 0 1 0.097791,-0.1012492 z m 3.3069494,0 6.09e-4,6.272e-4 a 0.09777188,0.1012509 0 0 1 0.0091,-6.272e-4 0.09777188,0.1012509 0 0 1 0.09779,0.1012493 0.09777188,0.1012509 0 0 1 -0.09779,0.1012493 0.09777188,0.1012509 0 0 1 -0.0091,-6.267e-4 l -6.09e-4,6.267e-4 -0.09779,-0.1012493 z M 7.1446186,9.4199248 c 0.02371,-3.647e-4 0.04915,0.00879 0.07609,0.027041 l -0.0019,0.3983929 -0.03993,0.035845 a 0.20865741,0.20865741 0 0 1 -0.06635,0.035847 c -0.0033,-0.083456 -0.03935,-0.1550069 -0.09339,-0.1726257 -0.07713,-0.00116 -0.11865,0.1293359 -0.08836,-0.019179 0.02218,-0.1087609 0.09816,-0.3035409 0.213818,-0.30532 z m 2.734985,0 c 0.115662,0.00178 0.1916354,0.1965591 0.2138194,0.3053199 0.0303,0.1485184 -0.01124,0.018036 -0.08836,0.019179 -0.05397,0.017597 -0.09001,0.08899 -0.09339,0.1723127 A 0.20865741,0.20865741 0 0 1 9.845323,9.8808914 L 9.805073,9.8450454 9.803173,9.446966 c 0.02705,-0.0184 0.05261,-0.027408 0.07641,-0.027041 z m -1.367492,0.8691072 -0.188348,0.181747 3.14e-4,3.14e-4 -0.04434,0.0283 c 0.210395,0.187557 -0.08767,0.31253 -0.232684,0.342107 -0.148518,0.0303 -0.01741,-0.01123 -0.01855,-0.08836 -0.02181,-0.0669 -0.12628,-0.107291 -0.233628,-0.09056 -0.107336,0.01676 -0.176861,0.08435 -0.155019,0.151244 0.01183,0.05718 0.172954,0.116871 0.353744,0.121374 0.01205,3e-4 0.02397,2.06e-4 0.03616,0 0.191676,-0.0031 0.395618,-0.07128 0.463168,-0.26916 0.01266,0.0011 0.02538,0.0013 0.03805,3.15e-4 0.136602,0.39876 0.828365,0.268377 0.853386,0.147471 0.02184,-0.06689 -0.04767,-0.134487 -0.155019,-0.151244 -0.107349,-0.01674 -0.211819,0.02367 -0.233627,0.09056 -0.0012,0.07713 0.129335,0.118653 -0.01917,0.08836 -0.145018,-0.02958 -0.442771,-0.154552 -0.232373,-0.34211 l -0.04434,-0.0283 6.26e-4,-3.15e-4 z m 0,0.42858 -0.188348,0.182061 6.26e-4,6.08e-4 a 0.18844705,0.18197192 0 0 0 -6.26e-4,0.01699 0.18844705,0.18197192 0 0 0 0.188348,0.181744 0.18844705,0.18197192 0 0 0 0.188349,-0.181744 0.18844705,0.18197192 0 0 0 -0.0013,-0.01699 l 0.0013,-6.08e-4 z m 0,0.0937 0.101249,0.09779 -6.26e-4,3.14e-4 a 0.1012509,0.09777188 0 0 1 6.26e-4,0.0091 0.1012509,0.09777188 0 0 1 -0.101249,0.09779 0.1012509,0.09777188 0 0 1 -0.101249,-0.09779 0.1012509,0.09777188 0 0 1 6.27e-4,-0.0091 l -6.27e-4,-3.14e-4 z" /></g></svg>
