<?xml version="1.0" encoding="UTF-8" standalone="no"?>
<svg
   xml:space="preserve"
   width="70"
   height="70"
   viewBox="0 0 18.521 18.521"
   version="1.1"
   id="svg5"
   sodipodi:docname="home_icon_4.svg"
   inkscape:version="1.3 (0e150ed6c4, 2023-07-21)"
   xmlns:inkscape="http://www.inkscape.org/namespaces/inkscape"
   xmlns:sodipodi="http://sodipodi.sourceforge.net/DTD/sodipodi-0.dtd"
   xmlns="http://www.w3.org/2000/svg"
   xmlns:svg="http://www.w3.org/2000/svg"><defs
     id="defs5"><inkscape:path-effect
       effect="skeletal"
       id="path-effect7"
       is_visible="true"
       lpeversion="1"
       pattern="m 2.9581228,4.1644119 c -0.381297,1.044903 -1.2110985,1.807264 -2.07224251,2.462921 -0.8368473,0.792338 -1.5521603,2.616307 -0.4418383,3.4261781 l 0.4196173,-0.04651 c 0.28548701,-0.3695881 0.0765,-0.6035061 0.06201,-0.7017721 C 0.39788113,6.9850697 3.6245555,5.4444838 2.9581208,4.1644109 Z"
       copytype="repeated_stretched"
       prop_scale="1.32"
       scale_y_rel="false"
       spacing="-0.2"
       normal_offset="-1.1"
       tang_offset="1.4"
       prop_units="false"
       vertical_pattern="false"
       hide_knot="false"
       fuse_tolerance="0" /><inkscape:path-effect
       effect="skeletal"
       id="path-effect5"
       is_visible="true"
       lpeversion="1"
       pattern="m 4.1744825,7.487046 -0.6773737,-0.4911363 -0.00453,0.00323 a 0.6775215,0.49126613 0 0 0 -0.062402,-0.00323 0.6775215,0.49126613 0 0 0 -0.6773737,0.4911363 0.6775215,0.49126613 0 0 0 0.6773737,0.4914596 0.6775215,0.49126613 0 0 0 0.063373,-0.00226 V 7.975919 l 0.00356,0.00258 z m -0.349195,0 -0.3640681,0.2641595 -0.00194,-0.00129 A 0.3640262,0.26395287 0 0 1 3.4253273,7.7512055 0.3640262,0.26395287 0 0 1 3.061259,7.487046 0.3640262,0.26395287 0 0 1 3.4253273,7.2232098 a 0.3640262,0.26395287 0 0 1 0.033626,0.00162 l 0.00226,-0.00162 z"
       copytype="repeated_stretched"
       prop_scale="1"
       scale_y_rel="false"
       spacing="1.9"
       normal_offset="-0.5"
       tang_offset="0"
       prop_units="false"
       vertical_pattern="false"
       hide_knot="false"
       fuse_tolerance="0" /></defs><sodipodi:namedview
     id="namedview5"
     pagecolor="#ffffff"
     bordercolor="#000000"
     borderopacity="0.25"
     inkscape:showpageshadow="2"
     inkscape:pageopacity="0.0"
     inkscape:pagecheckerboard="0"
     inkscape:deskcolor="#d1d1d1"
     inkscape:zoom="4"
     inkscape:cx="70.375"
     inkscape:cy="50.25"
     inkscape:window-width="1920"
     inkscape:window-height="991"
     inkscape:window-x="-9"
     inkscape:window-y="-9"
     inkscape:window-maximized="1"
     inkscape:current-layer="svg5" /><path
     id="path23"
     style="opacity:1;fill:#0242be;fill-opacity:1;stroke:none;stroke-width:0.494908;stroke-linecap:square;stroke-dasharray:none;stroke-opacity:1"
     d="M 9.5163008,1.534804 C 9.1995076,2.1437164 8.7388658,2.7762899 7.6579996,3.7248709 6.5771334,4.6734518 6.7138971,6.0321966 7.2445844,6.8280684 l 0.058395,0.1095551 A 3.0402181,3.0402181 0 0 0 6.7588216,7.5422432 C 4.9187623,6.5558942 6.5789334,3.395789 5.626064,2.4458677 5.656169,3.131598 5.5736455,3.9091153 5.1118789,5.2710435 4.6501116,6.6329719 5.4475739,7.741565 6.3050984,8.1654666 l 0.1033538,0.064079 A 3.0402181,3.0402181 0 0 0 6.2368849,9.0274372 C 4.1545979,9.087861 4.0117288,5.5260574 2.7125205,5.1800922 3.0814577,5.7588994 3.3988499,6.4734794 3.6799121,7.8838275 3.9609742,9.2941757 5.2058143,9.8554583 6.1604031,9.7938057 l 0.1136892,0.00362 a 3.0402181,3.0402181 0 0 0 0.2346131,0.7503494 c -1.657869,1.01917 -3.4304049,-1.5481797 -4.7144833,-1.5983699 -0.088789,-0.00347 -0.1749805,0.00528 -0.2589013,0.027905 0.6089087,0.3167972 1.2409724,0.7769134 2.1895502,1.8577849 0.9485803,1.080867 2.3073246,0.944619 3.1031976,0.413932 l 0.095085,-0.05064 a 3.0402181,3.0402181 0 0 0 0.6066868,0.554493 c -0.9882184,1.835014 -4.1449242,0.176291 -5.094308,1.12862 0.6857291,-0.0301 1.4632479,0.05241 2.8251759,0.514185 1.3619282,0.461769 2.4705212,-0.335693 2.8944231,-1.193219 l 0.059428,-0.0956 a 3.0402181,3.0402181 0 0 0 0.7999584,0.176218 c 0.067855,2.088345 -3.5010276,2.229522 -3.847345,3.530049 C 5.745982,15.444202 6.4605575,15.126799 7.870908,14.845741 9.2812562,14.564679 9.8425393,13.31984 9.7808862,12.36525 l 0.00362,-0.115239 A 3.0402181,3.0402181 0 0 0 10.564308,12.00351 c 1.105376,1.77503 -1.9162456,3.682896 -1.5658097,4.982686 0.3167976,-0.608908 0.7774311,-1.241489 1.8583007,-2.190067 1.080867,-0.94858 0.944104,-2.307325 0.413416,-3.103197 l -0.05685,-0.106455 a 3.0402181,3.0402181 0 0 0 0.545708,-0.603069 c 1.858497,0.979292 0.189276,4.150163 1.144126,5.10206 -0.0301,-0.685729 0.05241,-1.463249 0.514186,-2.825176 0.461768,-1.361928 -0.335695,-2.470005 -1.19322,-2.893906 l -0.113172,-0.07028 A 3.0402181,3.0402181 0 0 0 12.283082,9.5080323 C 14.391013,9.4160883 14.52955,13.00638 15.834318,13.353827 15.46538,12.775021 15.147987,12.06044 14.866927,10.650092 14.585868,9.2397438 13.341025,8.6779441 12.386436,8.7395969 l -0.132293,-0.00413 A 3.0402181,3.0402181 0 0 0 11.995241,7.9344708 C 13.772546,6.8149281 15.683933,9.845561 16.985679,9.4945963 16.376767,9.1778035 15.74471,8.717678 14.796129,7.6368119 14.262553,7.0288243 13.599111,6.8060436 12.97917,6.8218672 12.496993,6.8341742 12.041126,6.9907045 11.692932,7.2228799 l -0.120408,0.064596 A 3.0402181,3.0402181 0 0 0 10.972039,6.748486 C 11.951362,4.8899872 15.12272,6.5592098 16.074616,5.6043595 15.388885,5.6344655 14.611368,5.5524583 13.24944,5.0906912 12.994078,5.0041098 12.747744,4.9617633 12.513044,4.9558145 11.496009,4.9300355 10.699437,5.5866553 10.355017,6.2833939 l -0.07131,0.114206 A 3.0402181,3.0402181 0 0 0 9.4930462,6.2301667 C 9.4153566,4.1338128 12.993611,3.9935978 13.340391,2.6913329 12.761584,3.0602699 12.047003,3.3776623 10.636656,3.6587244 9.2263074,3.9397865 8.6650251,5.1846266 8.7266779,6.1392154 l -0.00413,0.1348768 A 3.0402181,3.0402181 0 0 0 7.9515244,6.5200741 C 6.8419093,4.7443594 9.866896,2.8351808 9.5163008,1.534804 Z" /><path
     id="rect21"
     style="opacity:1;fill:#ceced0;fill-opacity:1;stroke:none;stroke-width:0.465455;stroke-linecap:square;stroke-dasharray:none;stroke-opacity:1"
     d="M 9.5286822,1.633181 C 9.2142012,2.619867 8.4006172,3.309316 7.6525972,3.969187 7.0999007,4.6457928 6.6775134,5.6546988 7.1054971,6.4950058 c -0.6342551,0.2823201 -0.867116,1.004848 -0.8000011,1.6512 0,0.302783 0,0.605566 0,0.908349 C 5.5858994,8.9749148 4.9321886,8.5529798 4.561584,7.9279738 3.998201,7.1327588 3.8811575,6.0669908 3.1678135,5.3793958 2.3356354,4.9372049 3.4212888,5.9753848 3.4274183,6.3916978 3.7627253,7.1862928 3.6710235,8.134228 4.2692364,8.815049 4.7232836,9.4267886 5.4980172,10.055093 6.305496,9.7745556 6.337234,10.486992 6.1461704,11.329878 6.7499216,11.866798 7.6290622,12.199969 6.5330586,12.574325 6.0723103,12.64707 5.0178449,12.842846 3.9592837,12.378811 2.9120968,12.58211 c -0.344206,0.09677 -0.5777506,0.444681 -0.069263,0.272671 0.9085497,-0.09603 1.7753999,0.24451 2.6220939,0.512733 0.8908923,0.140368 2.063112,-0.02446 2.5020895,-0.920015 0.04514,-0.347423 0.502477,-0.127222 0.7563,-0.188852 0.625122,0 1.250245,0 1.8753668,0 0.412584,1.057517 -0.287614,2.108453 -0.9144308,2.914608 -0.376412,0.420469 -1.034311,1.421469 -0.661667,1.714564 0.331963,-0.945912 1.1211298,-1.606914 1.8458168,-2.249267 0.552721,-0.676764 0.975072,-1.685827 0.547099,-2.526268 0.634255,-0.28232 0.867116,-1.004848 0.800001,-1.6512 0,-0.265813 0,-0.5316247 0,-0.7974376 0.873088,-0.1418138 1.554597,0.6222316 1.927031,1.3231826 0.434854,0.728603 0.571748,1.648587 1.210651,2.241066 0.832178,0.442191 -0.253474,-0.595989 -0.259604,-1.012302 C 14.757723,11.42378 14.853074,10.475904 14.251807,9.7998491 13.796502,9.1925239 13.012895,8.5895399 12.215504,8.8790999 c -0.03626,-0.72688 0.169401,-1.588088 -0.444426,-2.138607 -0.879142,-0.333172 0.216863,-0.707529 0.677612,-0.780274 1.054465,-0.1957761 2.113026,0.2682599 3.160214,0.06496 0.344206,-0.09677 0.57775,-0.4446809 0.06926,-0.27267 -0.908551,0.09603 -1.775402,-0.2445039 -2.622094,-0.512734 -0.890893,-0.14037 -2.063115,0.02446 -2.50209,0.920014 -0.04514,0.347424 -0.502477,0.1272231 -0.7563008,0.188853 -0.625122,0 -1.250244,0 -1.875366,0 -0.4125835,-1.057516 0.287616,-2.1084529 0.914433,-2.9146078 0.343732,-0.51659 1.0052,-1.127397 0.691936,-1.8008531 z" /><rect
     style="opacity:1;fill:#fac10e;fill-opacity:1;stroke:none;stroke-width:0.529171;stroke-linecap:square;stroke-dasharray:none;stroke-opacity:1"
     id="rect24"
     width="0"
     height="0"
     x="10.533818"
     y="6.9040337"
     rx="0"
     ry="0" /><rect
     style="opacity:1;fill:#0242be;fill-opacity:1;stroke:none;stroke-width:0.439612;stroke-linecap:square;stroke-dasharray:none;stroke-opacity:1"
     id="rect23"
     width="4.5794158"
     height="4.5132694"
     x="6.9707923"
     y="7.0038652"
     rx="0.78739452"
     ry="0.79117012" /><path
     id="path30"
     style="fill:#e3e5e4;fill-opacity:1;stroke:none;stroke-width:0.0321985;stroke-dasharray:none;stroke-opacity:1"
     d="m 9.2604731,7.421985 a 0.18844705,0.18197192 0 0 0 -0.1883485,0.1817453 0.18844705,0.18197192 0 0 0 6.262e-4,0.016977 l -6.262e-4,9.87e-4 0.1883485,0.1820603 0.1883485,-0.1820603 -0.00126,-9.87e-4 A 0.18844705,0.18197192 0 0 0 9.4488216,7.6037303 0.18844705,0.18197192 0 0 0 9.2604731,7.421985 Z m 0,0.082695 a 0.1012509,0.09777188 0 0 1 0.101249,0.097791 0.1012509,0.09777188 0 0 1 -6.263e-4,0.00912 l 6.263e-4,6.263e-4 -0.101249,0.097793 -0.1012489,-0.09779 6.263e-4,-6.272e-4 a 0.1012509,0.09777188 0 0 1 -6.263e-4,-0.00912 0.1012509,0.09777188 0 0 1 0.1012489,-0.09779 z M 8.7419639,7.585804 C 8.5611741,7.590294 8.400053,7.649988 8.3882204,7.7071775 8.3663804,7.7740705 8.4359024,7.841665 8.5432389,7.858422 8.6505869,7.875157 8.755058,7.83476 8.7768668,7.767864 8.7780368,7.690733 8.6469007,7.6492128 8.7954228,7.679507 8.9404373,7.709082 9.2385016,7.8340581 9.0281075,8.0216161 l 0.044335,0.028302 -3.149e-4,6.263e-4 0.1883485,0.1817454 0.1883485,-0.1817454 -6.263e-4,-6.263e-4 0.044335,-0.028301 C 9.2821338,7.8340571 9.579886,7.7090854 9.7249023,7.6795078 c 0.1485185,-0.030293 0.018036,0.011225 0.019175,0.088357 0.021804,0.066893 0.126279,0.1072906 0.2336279,0.090558 C 10.085046,7.8416698 10.154568,7.7740678 10.132723,7.7071777 10.107703,7.5862726 9.4159411,7.4558875 9.2793395,7.8546491 9.2666695,7.8535691 9.2539545,7.853872 9.2412945,7.8549632 9.1737465,7.6570835 8.9698016,7.5890362 8.7781269,7.5858042 c -0.012194,-2.064e-4 -0.02411,-3.006e-4 -0.036161,0 z M 8.4860112,8.0656373 v 6.263e-4 c -0.0671,0 -0.1418748,0.00305 -0.2241946,0.00943 l -0.3493413,0.025151 c -0.1391839,0.0098 -0.1636478,0.018421 -0.1641368,0.058172 0,0.00745 0.029297,0.017488 0.065404,0.021697 0.03608,0.00422 0.079985,0.018377 0.097162,0.031127 0.062344,0.046256 0.063636,0.065556 0.060056,0.8612474 C 7.8116202,9.1834546 7.7059916,8.9273037 7.6791601,8.7957557 7.6488666,8.6472382 7.6903844,8.7783482 7.7675186,8.7771997 7.834412,8.7553864 7.8748091,8.6509197 7.8580763,8.5435718 7.8434145,8.4496528 7.7899626,8.3846079 7.7319866,8.3844661 c -0.00828,-2.06e-5 -0.016795,0.00135 -0.025155,0.00413 -0.057186,0.011835 -0.1168705,0.1729537 -0.1213732,0.3537435 -3.005e-4,0.012051 -2.057e-4,0.023967 0,0.036161 0.00324,0.1916748 0.071279,0.3956175 0.2691596,0.4631677 -0.00108,0.012664 -0.00135,0.025381 -3.15e-4,0.038047 -0.3987613,0.1365982 -0.2683759,0.8283627 -0.1474712,0.8533797 0.062019,0.02025 0.1240662,-0.03854 0.1462141,-0.132692 0.071882,0.0022 0.1766865,0.0032 0.2962009,0.0025 l 0.3694649,-0.00314 v -0.030508 c 0,-0.027 -0.00808,-0.031764 -0.070124,-0.044021 C 8.3553028,9.9065918 8.3161339,9.8788205 8.3001737,9.8211286 8.2917392,9.7907067 8.2868849,9.4937837 8.2866515,8.9822074 V 8.1901801 l 0.044964,-0.00879 c 0.024568,-0.00467 0.085306,-0.00529 0.1348939,-0.00153 0.2633975,0.019597 0.4148134,0.159767 0.4150583,0.3848733 2.468e-4,0.1342758 -0.029557,0.2096629 -0.1191715,0.305634 -0.077831,0.083224 -0.1586706,0.1343018 -0.2499784,0.1578486 l -0.1034501,0.02673 c -0.056709,0.014716 -0.059365,0.02918 -0.00974,0.054717 0.053021,0.027493 0.081546,0.061626 0.1468424,0.1757709 0.031414,0.055238 0.081008,0.1396805 0.1097392,0.1880344 0.028965,0.0481 0.056332,0.097917 0.060998,0.1106823 0.012598,0.03363 0.1157135,0.1773303 0.2053282,0.2858241 0.041572,0.050245 0.08632,0.098334 0.1342659,0.1446423 -0.044174,0.0388 -0.086033,0.07418 -0.1191724,0.09748 -0.1259274,0.08935 -0.293569,0.167829 -0.4185175,0.19558 -0.2111103,0.04662 -0.4872575,0.026 -0.6323366,-0.04717 -0.06308,-0.03167 -0.085539,-0.02998 -0.063205,0.005 0.022163,0.03558 0.2343995,0.140078 0.336764,0.166336 0.076593,0.01961 0.1354754,0.02483 0.2685308,0.02358 0.093535,-7.63e-4 0.2006505,-0.0064 0.2377151,-0.01257 0.094027,-0.0153 0.2643477,-0.07434 0.3927336,-0.135208 0.065296,-0.03117 0.1338074,-0.07306 0.2015558,-0.121689 0.067746,0.04862 0.1361996,0.09051 0.2012401,0.121689 0.1286344,0.06086 0.2992767,0.11976 0.3930475,0.135208 0.037318,0.0064 0.1439536,0.01201 0.2377172,0.01257 0.133044,0.0013 0.191691,-0.0039 0.26853,-0.02358 0.102353,-0.02603 0.314423,-0.130739 0.336764,-0.166336 0.02216,-0.0351 1.28e-4,-0.03682 -0.0632,-0.005 -0.144829,0.07317 -0.421466,0.09379 -0.632336,0.04717 -0.124958,-0.02774 -0.2926607,-0.106232 -0.4188383,-0.195583 a 1.4728759,1.4728759 0 0 1 -0.1188594,-0.09748 c 0.047951,-0.04631 0.092693,-0.0944 0.134265,-0.1446418 0.089362,-0.1084986 0.1927947,-0.2522585 0.2053281,-0.2861386 0.00485,-0.012151 0.031971,-0.062014 0.060693,-0.1103679 0.028965,-0.0481 0.07864,-0.1328187 0.1100537,-0.1880343 0.065297,-0.1141419 0.093822,-0.1479637 0.1468419,-0.1754567 0.04932,-0.025528 0.04669,-0.040297 -0.0097,-0.055031 l -0.103458,-0.02673 C 9.9169635,9.0046497 9.8362823,8.9535667 9.7582194,8.870365 9.6686244,8.7743795 9.6391034,8.6987653 9.6393618,8.5647309 c 0,-0.2251116 0.1516708,-0.3654818 0.4150592,-0.3848724 0.04932,-0.00368 0.110089,-0.00251 0.134894,0.00188 l 0.04465,0.00852 v 0.7917581 c 0,0.5115776 -0.0048,0.8084822 -0.01322,0.8389211 -0.01589,0.057694 -0.05537,0.085348 -0.148415,0.1037645 -0.0621,0.012338 -0.07012,0.01773 -0.07012,0.044335 v 0.030508 l 0.369465,0.00314 c 0.119312,9.87e-4 0.223993,-3.26e-4 0.295887,-0.0025 0.02207,0.09437 0.08444,0.153287 0.146528,0.133008 0.120906,-0.02502 0.25129,-0.7167829 -0.147471,-0.8533849 0.0011,-0.012667 7.63e-4,-0.025383 -3.14e-4,-0.038046 0.19788,-0.067548 0.265927,-0.2714929 0.269158,-0.4631677 2.06e-4,-0.012194 3.01e-4,-0.02411 0,-0.036161 -0.0046,-0.1807897 -0.06418,-0.3419109 -0.121373,-0.3537435 -0.0083,-0.00269 -0.01688,-0.00413 -0.02516,-0.00413 -0.05797,1.418e-4 -0.111428,0.065188 -0.126089,0.1591057 -0.01674,0.107348 0.02367,0.2118193 0.09056,0.2336279 0.07714,0.00117 0.118652,-0.129965 0.08836,0.018547 -0.02684,0.1315776 -0.132397,0.3878945 -0.291798,0.2773352 -0.0036,-0.7958445 -0.0024,-0.8152853 0.06006,-0.8615624 0.01727,-0.012831 0.06107,-0.026946 0.09716,-0.031127 0.03606,-0.00422 0.0654,-0.013989 0.0654,-0.021697 -7.63e-4,-0.039768 -0.02525,-0.048346 -0.164452,-0.058172 l -0.349333,-0.025197 c -0.3309327,-0.024559 -0.5237664,-0.00359 -0.6879913,0.074206 -0.118321,0.055964 -0.1691904,0.1023688 -0.2163343,0.1980968 -0.03853,0.078558 -0.041859,0.093278 -0.040881,0.203756 9.87e-4,0.1492417 0.027637,0.2146501 0.1282908,0.3172683 0.090339,0.092066 0.1591694,0.1356352 0.2814224,0.1786013 l 0.096535,0.033936 -0.064148,0.070438 A 2.4547928,2.4547928 0 0 0 9.5868459,9.3810093 C 9.52941,9.4684076 9.4553016,9.5737058 9.422394,9.6149515 l -0.1144554,0.144956 c -0.013065,0.016623 -0.029377,0.03545 -0.047799,0.055341 A 1.2273964,1.2273964 0 0 1 9.2126638,9.7602243 L 9.0979083,9.6151937 A 4.4186275,4.4186275 0 0 1 8.9340864,9.3809369 2.4547928,2.4547928 0 0 0 8.7652325,9.1517111 l -0.064776,-0.070438 0.097161,-0.033963 A 0.63824616,0.63824616 0 0 0 9.078412,8.8687095 C 9.1793002,8.7660939 9.2062954,8.7006856 9.2070168,8.5514412 9.2077536,8.4409859 9.2046838,8.4262389 9.166136,8.3476851 9.1189921,8.2519554 9.0681209,8.2055518 8.9498026,8.1495884 8.8265806,8.0911744 8.6872998,8.0648837 8.4860059,8.0656374 Z m -0.882629,1.0068318 a 0.18197192,0.18844705 0 0 0 -0.1817455,0.1883488 0.18197192,0.18844705 0 0 0 0.1817454,0.1883487 0.18197192,0.18844705 0 0 0 0.016979,-0.00127 l 9.422e-4,0.00127 L 7.803366,9.2608179 7.6213059,9.0724691 7.6203637,9.0730963 a 0.18197192,0.18844705 0 0 0 -0.01698,-6.272e-4 z m 3.2962588,0 -0.182061,0.1883488 0.182061,0.1883487 9.87e-4,-0.00127 a 0.18197192,0.18844705 0 0 0 0.01699,0.00127 0.18197192,0.18844705 0 0 0 0.181745,-0.1883487 0.18197192,0.18844705 0 0 0 -0.181745,-0.1883488 0.18197192,0.18844705 0 0 0 -0.01699,6.272e-4 z m -3.2975165,0.087101 a 0.09777188,0.1012509 0 0 1 0.00912,6.272e-4 l 6.265e-4,-6.272e-4 0.09779,0.1012492 -0.09779,0.1012493 -6.267e-4,-6.267e-4 a 0.09777188,0.1012509 0 0 1 -0.00912,6.267e-4 0.09777188,0.1012509 0 0 1 -0.09779,-0.1012493 0.09777188,0.1012509 0 0 1 0.09779,-0.1012492 z m 3.3069495,0 6.09e-4,6.272e-4 a 0.09777188,0.1012509 0 0 1 0.0091,-6.272e-4 0.09777188,0.1012509 0 0 1 0.09779,0.1012493 0.09777188,0.1012509 0 0 1 -0.09779,0.1012493 0.09777188,0.1012509 0 0 1 -0.0091,-6.267e-4 l -6.09e-4,6.267e-4 -0.09779,-0.1012493 z M 7.8929798,9.4199248 c 0.023707,-3.647e-4 0.049154,0.00879 0.076091,0.027041 l -0.00188,0.3983929 -0.03993,0.035845 a 0.20865741,0.20865741 0 0 1 -0.066346,0.035847 C 7.8575948,9.8335947 7.8215688,9.7620438 7.7675248,9.744425 7.6903918,9.743265 7.6488746,9.8737609 7.6791668,9.725246 7.7013508,9.6164851 7.7773238,9.4217051 7.8929846,9.419926 Z m 2.7349852,0 c 0.115662,0.00178 0.191635,0.1965591 0.213819,0.3053199 0.0303,0.1485184 -0.01124,0.018036 -0.08836,0.019179 -0.05397,0.017597 -0.09001,0.08899 -0.09339,0.1723127 a 0.20865741,0.20865741 0 0 1 -0.06635,-0.035845 l -0.04025,-0.035846 -0.0019,-0.3980794 c 0.02705,-0.0184 0.05261,-0.027408 0.07641,-0.027041 z m -1.3674919,0.8691072 -0.1883485,0.181747 3.141e-4,3.14e-4 -0.044335,0.0283 c 0.2103951,0.187557 -0.087675,0.31253 -0.2326839,0.342107 -0.1485177,0.0303 -0.017408,-0.01123 -0.018547,-0.08836 -0.021813,-0.0669 -0.12628,-0.107291 -0.2336279,-0.09056 -0.1073363,0.01676 -0.1768614,0.08435 -0.1550185,0.151244 0.011835,0.05718 0.1729536,0.116871 0.3537434,0.121374 0.012051,3e-4 0.023967,2.06e-4 0.036161,0 0.1916757,-0.0031 0.3956184,-0.07128 0.4631677,-0.26916 0.012661,0.0011 0.025384,0.0013 0.038045,3.15e-4 0.1366024,0.39876 0.8283655,0.268377 0.8533865,0.147471 0.02184,-0.06689 -0.04767,-0.134487 -0.1550189,-0.151244 -0.1073488,-0.01674 -0.2118191,0.02367 -0.233627,0.09056 -0.00117,0.07713 0.1293352,0.118653 -0.019175,0.08836 C 9.579891,10.81192 9.282138,10.686948 9.4925357,10.49939 l -0.044335,-0.0283 6.263e-4,-3.15e-4 z m 0,0.42858 -0.1883485,0.182061 6.263e-4,6.08e-4 a 0.18844705,0.18197192 0 0 0 -6.263e-4,0.01699 0.18844705,0.18197192 0 0 0 0.1883485,0.181744 0.18844705,0.18197192 0 0 0 0.1883485,-0.181744 0.18844705,0.18197192 0 0 0 -0.00126,-0.01699 l 0.00126,-6.08e-4 z m 0,0.0937 0.101249,0.09779 -6.263e-4,3.14e-4 a 0.1012509,0.09777188 0 0 1 6.263e-4,0.0091 0.1012509,0.09777188 0 0 1 -0.101249,0.09779 0.1012509,0.09777188 0 0 1 -0.1012489,-0.09779 0.1012509,0.09777188 0 0 1 6.263e-4,-0.0091 l -6.263e-4,-3.14e-4 z" /></svg>
