<?xml version="1.0" encoding="UTF-8" standalone="no"?>
<!-- Created with Inkscape (http://www.inkscape.org/) -->

<svg
   width="70"
   height="35"
   viewBox="0 0 18.520833 9.2604165"
   version="1.1"
   id="svg1"
   xml:space="preserve"
   inkscape:version="1.3 (0e150ed6c4, 2023-07-21)"
   sodipodi:docname="rain_rest_svg_assets.svg"
   inkscape:export-filename="Hydrangea_Gerbera_daisy_Alstroemeria_pink_Roses_flower_bag_sold.png"
   inkscape:export-xdpi="96"
   inkscape:export-ydpi="96"
   xmlns:inkscape="http://www.inkscape.org/namespaces/inkscape"
   xmlns:sodipodi="http://sodipodi.sourceforge.net/DTD/sodipodi-0.dtd"
   xmlns="http://www.w3.org/2000/svg"
   xmlns:svg="http://www.w3.org/2000/svg"><sodipodi:namedview
     id="namedview1"
     pagecolor="#ffffff"
     bordercolor="#000000"
     borderopacity="0.25"
     inkscape:showpageshadow="2"
     inkscape:pageopacity="0.0"
     inkscape:pagecheckerboard="0"
     inkscape:deskcolor="#d1d1d1"
     inkscape:document-units="mm"
     inkscape:zoom="4"
     inkscape:cx="-14.5"
     inkscape:cy="-15.5"
     inkscape:window-width="1920"
     inkscape:window-height="991"
     inkscape:window-x="-9"
     inkscape:window-y="-9"
     inkscape:window-maximized="1"
     inkscape:current-layer="layer1" /><defs
     id="defs1" /><g
     inkscape:label="Layer 1"
     inkscape:groupmode="layer"
     id="layer1"><path
       style="fill:#000000;stroke-width:0.0759523"
       d="M 13.856293,6.2047252 C 13.705729,6.1797192 13.432288,6.0854953 13.22631,5.9876345 12.933906,5.8487138 12.604657,5.5816779 12.360555,5.28547 12.217134,5.111433 12.051693,4.8809533 12.031382,4.8268883 12.023857,4.806906 11.97989,4.7272529 11.933634,4.6498851 11.887378,4.5725165 11.808076,4.43672 11.757398,4.3481162 11.652732,4.165122 11.607296,4.1107483 11.522322,4.0668068 c -0.07943,-0.041072 -0.07527,-0.064455 0.01566,-0.088002 0.04145,-0.010735 0.116052,-0.029993 0.16579,-0.0428 0.146461,-0.03771 0.2763,-0.1196324 0.401181,-0.25313 0.143961,-0.1538979 0.191153,-0.2751965 0.190843,-0.4905401 -5.29e-4,-0.3606623 -0.243258,-0.5855418 -0.665773,-0.6167835 -0.07925,-0.00586 -0.176457,-0.00458 -0.21603,0.00283 l -0.07194,0.013496 7.6e-5,1.2701449 c 7.2e-5,0.8204926 0.0075,1.2968897 0.02109,1.3456945 0.02567,0.092426 0.08885,0.1366139 0.237922,0.1663786 0.09959,0.019878 0.112645,0.028134 0.112645,0.07115 v 0.048649 l -0.592825,0.00491 c -0.326053,0.00272 -0.605445,-0.00314 -0.620872,-0.013043 -0.03144,-0.020097 -0.01691,-0.078821 0.02257,-0.091206 0.01407,-0.00439 0.05988,-0.013743 0.101824,-0.020714 0.04194,-0.007 0.105238,-0.038589 0.14067,-0.070243 l 0.06443,-0.057548 0.0056,-1.2140483 c 0.0061,-1.3062041 0.0044,-1.3305066 -0.0963,-1.4052049 -0.02779,-0.02061 -0.09787,-0.04308 -0.155742,-0.049934 -0.05787,-0.00686 -0.105078,-0.022506 -0.10491,-0.034782 8.97e-4,-0.063735 0.04023,-0.07765 0.263586,-0.093216 0.125649,-0.00876 0.377663,-0.026888 0.560032,-0.040287 0.530864,-0.03901 0.840192,-0.00569 1.10361,0.1188905 0.18988,0.089799 0.271237,0.1644322 0.346995,0.3183178 0.06175,0.1254383 0.06653,0.1493186 0.06534,0.3266637 -0.0017,0.239178 -0.04406,0.3441328 -0.205811,0.5087657 -0.144784,0.1473679 -0.255015,0.2173284 -0.450762,0.2860859 l -0.155466,0.054607 0.103381,0.1130429 c 0.05685,0.062173 0.178713,0.2276165 0.270791,0.3676514 0.09207,0.1400347 0.210469,0.3088628 0.263092,0.3751728 0.05263,0.066309 0.135389,0.1709355 0.183921,0.2325003 0.124154,0.1574951 0.428566,0.4462942 0.594443,0.5639554 0.202075,0.1433372 0.471086,0.2687604 0.671522,0.3130892 0.338239,0.074808 0.781467,0.041919 1.014066,-0.075237 0.101208,-0.050969 0.137065,-0.047959 0.101427,0.00857 -0.03577,0.056717 -0.375885,0.2245099 -0.540309,0.2665636 -0.12289,0.031426 -0.217157,0.039724 -0.430452,0.037895 -0.150205,-0.00125 -0.321812,-0.010451 -0.381349,-0.020327 z"
       id="path3" /><path
       style="fill:#000000;stroke-width:0.0726749"
       d="M 4.990926,6.2937144 C 4.5070979,6.1915674 4.0310942,5.8959924 3.6802732,5.4798624 3.5186094,5.2881043 3.2933462,4.9262648 3.1308474,4.5973221 3.0170027,4.3668692 2.9366211,4.2626171 2.8424331,4.2232633 2.7378643,4.1795712 2.7634142,4.1460151 2.9286611,4.1100127 3.3262393,4.0233929 3.5949128,3.7550128 3.6203161,3.4191139 3.6393967,3.1668228 3.5266801,2.9617682 3.3083087,2.851507 3.1778892,2.7856559 2.9127716,2.7445907 2.7555143,2.7658823 c -0.1044487,0.014143 -0.102067,0.00915 -0.1188125,0.2491028 -0.013105,0.1878705 -0.031941,0.4168314 -0.1067431,1.2979288 -0.031871,0.375438 -0.057957,0.7621712 -0.057965,0.8594074 -1.56e-5,0.2255854 0.027708,0.2657602 0.2068017,0.2996281 0.117986,0.02231 0.1612661,0.05896 0.1297919,0.109879 -0.00764,0.01237 -0.2267601,0.0194 -0.6045865,0.0194 -0.5032945,0 -0.596204,-0.0044 -0.6165343,-0.02885 -0.032588,-0.03927 0.00686,-0.08653 0.072232,-0.08653 0.079544,0 0.1930358,-0.041406 0.2345173,-0.085561 0.021401,-0.022788 0.047393,-0.086131 0.057762,-0.1407722 0.016341,-0.086161 0.1138571,-1.1061128 0.145658,-1.5234675 0.00608,-0.079318 0.028488,-0.3202395 0.049873,-0.535382 0.021385,-0.2151418 0.034467,-0.3955835 0.029064,-0.400981 C 2.1573548,2.7804667 1.8447637,2.8554957 1.7092291,2.9118601 1.452989,3.0184204 1.2730908,3.1675596 1.1478225,3.3772775 c -0.053604,0.089742 -0.06512,0.1289341 -0.067213,0.2287268 -0.00409,0.1953191 0.096555,0.3124964 0.300152,0.3494437 0.051666,0.00938 0.072107,0.022865 0.072107,0.047585 0,0.052235 -0.082259,0.079129 -0.2420285,0.079129 -0.1775309,0 -0.27367844,-0.043413 -0.34922894,-0.1576881 -0.047506,-0.071854 -0.0528519,-0.09681 -0.0524387,-0.2447815 3.976e-4,-0.1415146 0.007858,-0.178927 0.0528757,-0.2650751 C 0.96378816,3.219921 1.1554642,3.0383288 1.4087367,2.8966914 1.7123233,2.7269158 2.1979415,2.6198738 2.7992442,2.5901891 3.4231927,2.5593871 3.906574,2.7221239 4.0831131,3.022423 c 0.047892,0.081469 0.052102,0.1051558 0.051611,0.2905988 -4.701e-4,0.1802223 -0.006,0.2123229 -0.051237,0.2989731 -0.056453,0.1080628 -0.2758227,0.3255302 -0.4035954,0.4000896 -0.04567,0.026649 -0.1479346,0.072039 -0.2272528,0.1008626 -0.079318,0.028825 -0.1474637,0.054966 -0.1514359,0.058094 -0.00398,0.00311 0.019179,0.0279 0.051448,0.055052 0.049592,0.041727 0.2601912,0.3445555 0.4749224,0.6829025 0.1998171,0.3148459 0.583967,0.7291658 0.8460839,0.9125318 0.2173968,0.152081 0.3287623,0.208137 0.5421027,0.272865 0.1494556,0.04534 0.203245,0.05159 0.4577839,0.05312 0.3052746,0.0019 0.4382341,-0.02346 0.6681369,-0.127087 0.0502,-0.02263 0.097795,-0.03458 0.1057576,-0.02655 0.046255,0.04664 -0.3747219,0.264939 -0.5952201,0.308654 -0.2060727,0.04085 -0.6474128,0.03634 -0.8612888,-0.0088 z"
       id="path2" /><path
       style="fill:#000000;stroke-width:0.077412"
       d="M 4.8351995,3.2148059 C 4.7290241,3.1645958 4.6826348,3.110692 4.6680024,3.0205224 4.6509783,2.9156261 4.7214413,2.7785199 4.8154001,2.7337146 4.9642503,2.662733 5.1906539,2.709944 5.2496568,2.8242668 c 0.03487,0.067558 0.032238,0.2129112 -0.00514,0.285235 -0.062076,0.120039 -0.2667673,0.1727033 -0.409292,0.105304 z"
       id="path12" /><path
       style="fill:#000000;stroke-width:0.0806696"
       d="m 7.9201063,5.4648725 c -0.035637,-0.035631 -0.011925,-0.092697 0.044092,-0.1061276 0.1188784,-0.028506 0.1740045,-0.070875 0.1981463,-0.152278 0.015629,-0.05272 0.021358,-0.2772957 0.016823,-0.6598542 -0.00684,-0.5774533 -0.0071,-0.5801712 -0.0578,-0.634106 -0.032469,-0.034539 -0.084773,-0.059244 -0.1443328,-0.068175 -0.1011404,-0.015166 -0.1209985,-0.030636 -0.1022049,-0.079612 0.00814,-0.021136 0.069464,-0.040072 0.1841814,-0.056847 0.1473289,-0.021541 0.4072204,-0.079803 0.534822,-0.119891 0.033343,-0.010479 0.03735,0.00581 0.03735,0.1516789 v 0.1634151 l 0.063312,-0.053278 C 9.0547435,3.5466699 9.5111457,3.4974253 9.7589375,3.734948 9.9255128,3.8946206 9.9544973,4.0399115 9.9544973,4.7152369 v 0.5093019 l 0.052814,0.052814 c 0.02905,0.029051 0.08166,0.058586 0.116914,0.06563 0.07564,0.015129 0.117446,0.05832 0.100133,0.1034526 -0.01846,0.048097 -0.9983265,0.048363 -1.0382339,2.42e-4 -0.033161,-0.03996 0.00554,-0.096049 0.066306,-0.096049 0.021859,0 0.068955,-0.026411 0.1046736,-0.05869 l 0.064939,-0.058699 0.00606,-0.5014583 C 9.4314712,4.455981 9.4267116,4.1832448 9.4176509,4.1257043 9.3913777,3.9594837 9.2638792,3.8565628 9.0842436,3.8565628 c -0.1006542,0 -0.2849298,0.088935 -0.3537541,0.1707278 l -0.051067,0.060689 0.00251,0.5619591 c 0.00285,0.6379476 0.00363,0.6411105 0.1626203,0.6876955 0.07927,0.023232 0.096048,0.037074 0.096048,0.079265 v 0.051127 l -0.5029818,0.00566 c -0.2766403,0.00311 -0.5095543,-8.647e-4 -0.5175878,-0.00888 z"
       id="path11" /><path
       style="fill:#000000;stroke-width:0.077412"
       d="m 4.4636903,5.4966979 c -0.021044,-0.054846 0.00789,-0.086109 0.09219,-0.099584 0.045442,-0.00724 0.1084476,-0.03541 0.1400077,-0.06254 l 0.057384,-0.049329 0.00606,-0.5753952 c 0.00706,-0.6712713 9.151e-4,-0.702186 -0.1465316,-0.7398788 -0.1326873,-0.033919 -0.1394595,-0.037803 -0.13214,-0.075813 0.0054,-0.028052 0.048946,-0.043095 0.2012128,-0.069506 0.1068747,-0.018538 0.2695891,-0.053149 0.3615865,-0.076914 0.091998,-0.023762 0.1769441,-0.043206 0.1887695,-0.043206 0.014549,0 0.023377,0.2591575 0.027313,0.8014326 l 0.00582,0.801431 0.048996,0.033209 c 0.026948,0.018261 0.091436,0.042909 0.143302,0.054776 0.097447,0.022284 0.1373187,0.078291 0.081101,0.1139202 -0.015189,0.00959 -0.2606329,0.01765 -0.545429,0.01781 -0.4415804,3.089e-4 -0.5195482,-0.00426 -0.5296015,-0.030411 z"
       id="path10" /><path
       style="fill:#000000;stroke-width:0.0803637"
       d="M 17.034894,5.520963 C 16.87833,5.4893815 16.766482,5.3913338 16.708642,5.2349897 c -0.0082,-0.022053 -0.01473,-0.3401977 -0.0146,-0.7069904 l 2.41e-4,-0.6668975 H 16.55628 c -0.130983,0 -0.138006,-0.00257 -0.138006,-0.050355 0,-0.039381 0.02939,-0.067543 0.134886,-0.1292394 0.206695,-0.1208792 0.338822,-0.2552938 0.41406,-0.4212289 0.05948,-0.1311888 0.07049,-0.1433783 0.129498,-0.1433783 h 0.06449 l 0.006,0.271102 0.006,0.2711022 0.265547,0.010627 c 0.288245,0.011538 0.298386,0.016842 0.267504,0.139891 -0.01282,0.051018 -0.01527,0.051476 -0.278302,0.051476 h -0.265381 l 9.48e-4,0.5794143 c 0.001,0.6211649 0.01274,0.7407377 0.07931,0.8073062 0.06286,0.062864 0.204119,0.071478 0.352052,0.021467 0.09738,-0.032924 0.126239,-0.03601 0.134532,-0.014406 0.03079,0.080219 -0.145612,0.1986046 -0.377294,0.2532166 -0.145821,0.034368 -0.199684,0.036558 -0.3171,0.01286 z"
       id="path9" /><path
       style="fill:#000000;stroke-width:0.0796677"
       d="M 15.375172,5.626704 C 15.305622,5.61618 15.19019,5.596865 15.118678,5.583732 L 14.988656,5.559857 14.974636,5.38802 c -0.0076,-0.094512 -0.01085,-0.2145226 -0.007,-0.2666933 0.0062,-0.083699 0.01333,-0.09559 0.06064,-0.101102 0.04385,-0.00512 0.06048,0.00817 0.0914,0.073045 0.06851,0.1436745 0.15826,0.2350339 0.298897,0.3042692 0.119168,0.058662 0.150782,0.065516 0.257026,0.055671 0.159256,-0.01476 0.227956,-0.048758 0.26768,-0.1324686 0.07762,-0.163503 0.01639,-0.2326291 -0.380536,-0.4297255 -0.455924,-0.2263917 -0.57826,-0.3626975 -0.577046,-0.6429409 0.0012,-0.2819428 0.202344,-0.4536207 0.588536,-0.5023665 0.155226,-0.019594 0.221658,-0.017604 0.402255,0.01204 0.11898,0.01953 0.229743,0.046644 0.24614,0.060255 0.01995,0.016553 0.0262,0.049711 0.01891,0.1001769 -0.006,0.041489 -0.01697,0.1347174 -0.02439,0.207176 -0.01296,0.1266012 -0.01576,0.131743 -0.07178,0.131743 -0.04962,0 -0.06366,-0.01403 -0.0943,-0.094256 -0.06085,-0.1593474 -0.200661,-0.2426179 -0.407793,-0.242888 -0.180584,-2.392e-4 -0.299696,0.090374 -0.299696,0.2279821 0,0.1015716 0.07525,0.162696 0.389568,0.3164542 0.394982,0.1932159 0.4836,0.2554205 0.551992,0.3874591 0.115753,0.2234808 0.06261,0.4695575 -0.133683,0.6190839 -0.176154,0.1341808 -0.495171,0.1981991 -0.776257,0.1557731 z"
       id="path8" /><path
       id="path6"
       style="fill:#000000;stroke-width:0.0823831"
       d="m 14.056759,3.5978126 c -0.363942,0.00381 -0.729511,0.2193862 -0.888194,0.5362031 -0.129029,0.2576131 -0.136031,0.6485537 -0.01614,0.8997737 0.119882,0.2511897 0.414351,0.4677236 0.703557,0.5172998 0.237235,0.040673 0.529613,-0.031106 0.731185,-0.1794856 0.206471,-0.1519962 0.301073,-0.2873281 0.246666,-0.3528852 -0.02196,-0.02646 -0.03599,-0.023387 -0.09443,0.020478 -0.03776,0.028341 -0.122616,0.079555 -0.188553,0.1138395 -0.102703,0.053397 -0.144888,0.062323 -0.294263,0.062323 -0.147128,0 -0.193913,-0.00957 -0.299456,-0.061387 -0.20216,-0.099275 -0.339751,-0.298024 -0.359859,-0.5197686 l -0.01154,-0.1272499 h 0.590781 c 0.693955,0 0.647328,0.020003 0.631311,-0.2703371 -0.02065,-0.3743845 -0.235218,-0.5871589 -0.638421,-0.633098 -0.03738,-0.00426 -0.075,-0.0061 -0.112644,-0.0057 z m -0.06892,0.2009858 c 0.07716,-0.00107 0.154996,0.012128 0.196855,0.04019 0.09006,0.060376 0.148197,0.2011311 0.148197,0.3588026 V 4.3325767 H 13.959316 13.58574 l 0.0132,-0.1113701 c 0.01511,-0.1275949 0.112202,-0.3140701 0.196175,-0.3767678 0.03911,-0.029193 0.115566,-0.044558 0.192726,-0.045638 z" /><path
       id="path4"
       style="fill:#000000;stroke-width:0.0823246"
       d="m 6.7528637,3.6205839 c -0.07187,6.01e-5 -0.148436,0.0054 -0.2293046,0.016164 -0.443138,0.058971 -0.70393,0.2414509 -0.6561317,0.4590755 0.018935,0.086208 0.086884,0.1306055 0.1998217,0.1306055 0.1739419,0 0.2466617,-0.069918 0.2466617,-0.237217 0,-0.1300269 0.05449,-0.1644498 0.2614226,-0.1651496 0.1392054,-4.913e-4 0.1823999,0.00782 0.2324944,0.044542 0.097838,0.071731 0.1377145,0.1734053 0.1377526,0.3514001 v 0.1569387 l -0.070793,0.010637 C 6.8358584,4.3934201 6.7255822,4.4096111 6.6297427,4.4235291 6.43206,4.4522301 6.1755787,4.5295607 6.030745,4.6041217 5.8975848,4.6726717 5.7580553,4.8475424 5.729672,4.9814729 5.673787,5.2451938 5.828427,5.4974557 6.0888575,5.5674524 c 0.1337219,0.035943 0.174774,0.036815 0.316559,0.00679 0.1485102,-0.03148 0.2482762,-0.082726 0.3974743,-0.2042469 0.066164,-0.053898 0.1244781,-0.098017 0.1295835,-0.098017 0.00512,0 0.016224,0.041172 0.024719,0.091466 0.031811,0.1883006 0.204965,0.2677878 0.4458016,0.2046297 C 7.6645716,5.4994905 7.7978563,5.4122903 7.7527375,5.339287 7.7408852,5.3201045 7.7132692,5.3157251 7.6676113,5.3257571 7.5802775,5.3449429 7.5186896,5.3245223 7.4846789,5.265099 7.4655324,5.2316361 7.4541221,5.0369636 7.4461827,4.607648 7.4355143,4.030902 7.4322821,3.9928121 7.386491,3.9064632 7.2872435,3.7193037 7.0643101,3.6203625 6.7528654,3.6206246 Z m 0.1927167,0.9481009 v 0.2208805 0.220923 l -0.080189,0.088743 c -0.044104,0.048822 -0.1172054,0.1076832 -0.16247,0.1307753 -0.1024678,0.052273 -0.2696296,0.054048 -0.3507622,0.0037 -0.06756,-0.041888 -0.1253726,-0.1481827 -0.1253726,-0.230495 0,-0.2202622 0.2359606,-0.3980494 0.5607947,-0.4226169 z" /></g></svg>
