<?xml version="1.0" encoding="UTF-8" standalone="no"?>
<!-- Created with Inkscape (http://www.inkscape.org/) -->

<svg
   width="70"
   height="35"
   viewBox="0 0 18.520833 9.2604165"
   version="1.1"
   id="svg1"
   xml:space="preserve"
   inkscape:version="1.3 (0e150ed6c4, 2023-07-21)"
   sodipodi:docname="rain_rest_name.svg"
   inkscape:export-filename="Hydrangea_Gerbera_daisy_Alstroemeria_pink_Roses_flower_bag_sold.png"
   inkscape:export-xdpi="96"
   inkscape:export-ydpi="96"
   xmlns:inkscape="http://www.inkscape.org/namespaces/inkscape"
   xmlns:sodipodi="http://sodipodi.sourceforge.net/DTD/sodipodi-0.dtd"
   xmlns="http://www.w3.org/2000/svg"
   xmlns:svg="http://www.w3.org/2000/svg"><sodipodi:namedview
     id="namedview1"
     pagecolor="#ffffff"
     bordercolor="#000000"
     borderopacity="0.25"
     inkscape:showpageshadow="2"
     inkscape:pageopacity="0.0"
     inkscape:pagecheckerboard="0"
     inkscape:deskcolor="#d1d1d1"
     inkscape:document-units="mm"
     inkscape:zoom="1.4142136"
     inkscape:cx="-19.79899"
     inkscape:cy="-70.710678"
     inkscape:window-width="1920"
     inkscape:window-height="991"
     inkscape:window-x="-9"
     inkscape:window-y="-9"
     inkscape:window-maximized="1"
     inkscape:current-layer="layer1" /><defs
     id="defs1" /><g
     inkscape:label="Layer 1"
     inkscape:groupmode="layer"
     id="layer1"><g
       id="g2"
       transform="translate(-0.04333242,-0.04186254)"><path
         style="fill:#000000;stroke-width:0.077412"
         d="M 4.3025276,3.4291247 C 4.1963522,3.3789146 4.1499629,3.3250108 4.1353305,3.2348412 4.1183064,3.1299449 4.1887694,2.9928387 4.2827282,2.9480334 c 0.1488502,-0.070982 0.3752538,-0.023771 0.4342567,0.090552 0.03487,0.067558 0.032238,0.2129112 -0.00514,0.285235 -0.062076,0.120039 -0.2667673,0.1727033 -0.409292,0.105304 z"
         id="path12" /><path
         style="fill:#000000;stroke-width:0.0806696"
         d="m 7.3749104,5.6441121 c -0.035637,-0.035631 -0.011925,-0.092697 0.044092,-0.1061276 0.1188784,-0.028506 0.1740045,-0.070875 0.1981463,-0.152278 0.015629,-0.05272 0.021358,-0.2772957 0.016823,-0.6598542 -0.00684,-0.5774533 -0.0071,-0.5801712 -0.0578,-0.634106 C 7.5437027,4.0572073 7.4913987,4.0325023 7.4318389,4.0235713 7.3306985,4.0084053 7.3108404,3.9929353 7.329634,3.9439593 c 0.00814,-0.021136 0.069464,-0.040072 0.1841814,-0.056847 0.1473289,-0.021541 0.4072204,-0.079803 0.534822,-0.119891 0.033343,-0.010479 0.03735,0.00581 0.03735,0.1516789 v 0.1634151 l 0.063312,-0.053278 C 8.5095476,3.7259095 8.9659498,3.6766649 9.2137416,3.9141876 9.3803169,4.0738602 9.4093014,4.2191511 9.4093014,4.8944765 v 0.5093019 l 0.052814,0.052814 c 0.02905,0.029051 0.08166,0.058586 0.116914,0.06563 0.07564,0.015129 0.117446,0.05832 0.100133,0.1034526 -0.01846,0.048097 -0.9983265,0.048363 -1.0382339,2.42e-4 -0.033161,-0.03996 0.00554,-0.096049 0.066306,-0.096049 0.021859,0 0.068955,-0.026411 0.1046736,-0.05869 l 0.064939,-0.058699 0.00606,-0.5014583 C 8.8862753,4.6352206 8.8815157,4.3624844 8.872455,4.3049439 8.8461818,4.1387233 8.7186833,4.0358024 8.5390477,4.0358024 c -0.1006542,0 -0.2849298,0.088935 -0.3537541,0.1707278 l -0.051067,0.060689 0.00251,0.5619591 c 0.00285,0.6379476 0.00363,0.6411105 0.1626203,0.6876955 0.07927,0.023232 0.096048,0.037074 0.096048,0.079265 v 0.051127 l -0.5029818,0.00566 c -0.2766403,0.00311 -0.5095543,-8.647e-4 -0.5175878,-0.00888 z"
         id="path11" /><path
         style="fill:#000000;stroke-width:0.0796155"
         d="m 4.0011767,5.6274085 c -0.021044,-0.058013 0.00789,-0.091081 0.09219,-0.105334 0.045442,-0.00766 0.1084476,-0.037455 0.1400077,-0.066151 l 0.057384,-0.052177 0.00606,-0.6086188 C 4.3038784,4.0850969 4.2977335,4.0523972 4.1502868,4.012528 4.0175995,3.976651 4.0108273,3.972542 4.0181468,3.932338 4.0235468,3.902666 4.0670928,3.886755 4.2193596,3.858819 4.3262343,3.839211 4.4889487,3.802601 4.5809461,3.777464 4.6729441,3.75233 4.7578902,3.731763 4.7697156,3.731763 c 0.014549,0 0.023377,0.2741214 0.027313,0.8477077 l 0.00582,0.847706 0.048996,0.035127 c 0.026948,0.019315 0.091436,0.045387 0.143302,0.057939 0.097447,0.023571 0.1373187,0.082812 0.081101,0.120498 -0.015189,0.010144 -0.2606329,0.018669 -0.545429,0.018838 -0.4415804,3.263e-4 -0.5195482,-0.00451 -0.5296015,-0.032167 z"
         id="path10" /><path
         style="fill:#000000;stroke-width:0.0873282"
         d="m 16.658891,5.6791237 c -0.170132,-0.034318 -0.291673,-0.1408631 -0.354526,-0.3107565 -0.0089,-0.023964 -0.01601,-0.36968 -0.01587,-0.7682599 l 2.62e-4,-0.7246925 h -0.149963 c -0.142334,0 -0.149966,-0.00279 -0.149966,-0.054719 0,-0.042794 0.03194,-0.073396 0.146575,-0.1404396 0.224608,-0.1313549 0.368185,-0.2774182 0.449944,-0.4577336 0.06464,-0.142558 0.07659,-0.1558038 0.140721,-0.1558038 h 0.07008 l 0.0066,0.2945963 0.0066,0.2945966 0.288561,0.011548 c 0.313224,0.012538 0.324244,0.018302 0.290685,0.1520143 -0.01393,0.055439 -0.01659,0.055937 -0.30242,0.055937 h -0.288379 l 10e-4,0.6296279 c 0.0011,0.6749966 0.01384,0.8049318 0.08619,0.8772693 0.06831,0.068311 0.221808,0.077672 0.382561,0.023327 0.105819,-0.035777 0.137179,-0.039131 0.146191,-0.015654 0.03346,0.087171 -0.158231,0.2158162 -0.409991,0.275161 -0.158458,0.037347 -0.216989,0.039727 -0.344581,0.013975 z"
         id="path9" /><path
         style="fill:#000000;stroke-width:0.0816219"
         d="m 14.922694,5.6536155 c -0.07126,-0.010782 -0.189519,-0.030571 -0.262785,-0.044026 l -0.133212,-0.024461 -0.01436,-0.176052 c -0.0078,-0.09683 -0.01112,-0.2197846 -0.0072,-0.273235 0.0064,-0.085752 0.01366,-0.097935 0.06213,-0.103582 0.04493,-0.00525 0.06196,0.00837 0.09364,0.074837 0.07019,0.1471987 0.162142,0.2407991 0.306229,0.3117327 0.122091,0.060101 0.15448,0.067123 0.263331,0.057036 0.163162,-0.015122 0.233547,-0.049954 0.274245,-0.1357179 0.07952,-0.1675136 0.01679,-0.2383353 -0.38987,-0.4402663 -0.467107,-0.2319448 -0.592444,-0.3715941 -0.5912,-0.6587116 0.0012,-0.2888586 0.207307,-0.4647476 0.602972,-0.5146891 0.159034,-0.020075 0.227095,-0.018036 0.412122,0.012335 0.121899,0.020009 0.235378,0.047788 0.252178,0.061733 0.02044,0.016959 0.02684,0.05093 0.01937,0.1026341 -0.0061,0.042507 -0.01739,0.1380219 -0.02499,0.2122578 -0.01328,0.1297066 -0.01615,0.1349746 -0.07354,0.1349746 -0.05084,0 -0.06522,-0.014374 -0.09661,-0.096568 -0.06234,-0.1632561 -0.205583,-0.2485691 -0.417795,-0.2488459 -0.185014,-2.45e-4 -0.307048,0.092591 -0.307048,0.2335743 0,0.1040631 0.0771,0.1666868 0.399124,0.3242166 0.404671,0.1979553 0.495462,0.2616857 0.565532,0.3969631 0.118592,0.2289625 0.06415,0.4810753 -0.136962,0.6342694 -0.180475,0.1374721 -0.507317,0.2030608 -0.795298,0.1595941 z"
         id="path8" /><path
         id="path6"
         style="fill:#000000;stroke-width:0.0822735"
         d="m 13.519933,3.7103381 c -0.363458,0.0038 -0.72854,0.2190945 -0.887013,0.5354899 -0.128856,0.2572704 -0.13585,0.647691 -0.01612,0.8985768 0.119721,0.2508556 0.413799,0.4671015 0.70262,0.5166118 0.23692,0.040619 0.528909,-0.031064 0.730213,-0.1792469 0.206196,-0.151794 0.300672,-0.2869459 0.246337,-0.3524158 -0.02193,-0.026424 -0.03594,-0.023356 -0.09431,0.020451 -0.03772,0.028303 -0.122452,0.079449 -0.188301,0.1136882 -0.102565,0.053327 -0.144697,0.06224 -0.293873,0.06224 -0.146932,0 -0.193655,-0.00956 -0.299058,-0.061305 C 13.218547,5.1652852 13.081138,4.9668 13.061058,4.7453502 l -0.01152,-0.1270806 h 0.589995 c 0.693032,0 0.646467,0.019977 0.630471,-0.2699775 -0.02062,-0.3738865 -0.234905,-0.5863779 -0.637572,-0.6322559 -0.03733,-0.00426 -0.0749,-0.00609 -0.112494,-0.00569 z m -0.06883,0.2007185 c 0.07706,-0.00106 0.15479,0.012112 0.196594,0.040136 0.08994,0.060295 0.147999,0.2008635 0.147999,0.3583253 v 0.1346065 h -0.373078 -0.373079 l 0.01318,-0.111222 c 0.01509,-0.1274252 0.112052,-0.3136524 0.195913,-0.3762667 0.03906,-0.029154 0.115413,-0.044499 0.19247,-0.045577 z" /><path
         id="path4"
         style="fill:#000000;stroke-width:0.0796593"
         d="m 6.2568557,3.7468366 c -0.069543,5.81e-5 -0.1436304,0.00523 -0.2218809,0.015641 -0.4287914,0.057062 -0.6811402,0.2336339 -0.6348894,0.4442129 0.018322,0.083417 0.084071,0.1263771 0.1933525,0.1263771 0.1683105,0 0.238676,-0.067654 0.238676,-0.2295371 0,-0.1258173 0.052726,-0.1591257 0.252959,-0.1598029 0.1346986,-4.754e-4 0.1764947,0.00757 0.2249674,0.0431 0.094671,0.069409 0.133256,0.1677913 0.1332929,0.3400235 v 0.1518578 l -0.068501,0.010293 C 6.3371634,4.4946522 6.2304574,4.510319 6.1377207,4.5237864 5.946438,4.5515582 5.6982603,4.6263852 5.5581156,4.6985323 5.4292665,4.764863 5.2942542,4.9340722 5.2667898,5.0636667 c -0.054076,0.2551829 0.095558,0.4992779 0.3475569,0.5670084 0.1293926,0.034779 0.1691157,0.035623 0.3063104,0.00657 0.1437022,-0.030461 0.2402382,-0.080048 0.384606,-0.1976344 0.064022,-0.052153 0.1204481,-0.094844 0.1253883,-0.094844 0.00495,0 0.015699,0.039839 0.023919,0.088505 C 6.4853514,5.615476 6.6528996,5.6923898 6.8859391,5.6312765 7.139047,5.5649135 7.2680166,5.4805364 7.2243585,5.4098966 7.2128899,5.3913351 7.186168,5.3870975 7.1419883,5.3968047 7.0574819,5.4153694 6.9978879,5.3956099 6.9649783,5.3381104 6.9464517,5.3057309 6.9354108,5.1173609 6.9277284,4.7019444 6.9174054,4.1438706 6.9142779,4.1070139 6.8699693,4.0234605 6.7739349,3.8423603 6.558219,3.7466223 6.2568573,3.7468759 Z m 0.1864775,0.9174061 v 0.2137294 0.2137706 l -0.077593,0.08587 c -0.042676,0.047241 -0.1134108,0.1041969 -0.15721,0.1265414 -0.09915,0.050581 -0.2609003,0.052298 -0.3394062,0.00358 C 5.803751,5.2672021 5.7478103,5.1643489 5.7478103,5.0847014 c 0,-0.2131312 0.2283214,-0.3851625 0.542639,-0.4089346 z" /><path
         style="fill:#000000;stroke-width:0.0819435"
         d="M 4.8344896,6.7173885 C 4.6720491,6.69041 4.3770389,6.5887536 4.1548132,6.4831735 3.8393441,6.3332946 3.4841238,6.0451948 3.2207668,5.7256218 3.0660327,5.5378566 2.8875416,5.2891965 2.8656285,5.2308669 2.8575153,5.2093087 2.8100747,5.1233726 2.76017,5.0399015 2.7102653,4.9564296 2.6247079,4.8099218 2.5700324,4.7143289 2.4571103,4.5169 2.4080903,4.4582373 2.3164135,4.4108296 2.230718,4.3665178 2.2352061,4.3412904 2.3333087,4.315886 2.3780283,4.3043042 2.458515,4.2835271 2.5121764,4.2697099 2.6701903,4.2290253 2.8102711,4.1406408 2.9450028,3.9966128 3.1003195,3.8305753 3.1512341,3.6997086 3.1508996,3.4673786 3.1503289,3.078267 2.8884533,2.8356489 2.43261,2.8019428 2.347109,2.7956228 2.2422339,2.7970028 2.1995394,2.8049928 l -0.077615,0.014561 8.2e-5,1.3703348 c 7.77e-5,0.8852136 0.00809,1.3991892 0.022754,1.4518437 0.027695,0.099717 0.095859,0.1473901 0.2566895,0.1795027 0.1074457,0.021446 0.1215305,0.030353 0.1215305,0.076762 v 0.052486 l -0.6395875,0.0053 C 1.5316207,5.958713 1.23019,5.952393 1.2135461,5.941711 1.1796261,5.920029 1.1953021,5.856673 1.2378961,5.843311 1.2530761,5.838571 1.3024991,5.828484 1.347752,5.820963 1.393,5.813413 1.4612913,5.77933 1.4995182,5.745179 l 0.069512,-0.062087 0.00604,-1.3098132 C 1.5816502,2.9640436 1.5798202,2.9378241 1.471174,2.8572336 1.441192,2.8349976 1.3655839,2.8107556 1.3031469,2.8033606 c -0.062435,-0.0074 -0.1133666,-0.024281 -0.1131853,-0.037526 9.677e-4,-0.068762 0.043403,-0.083775 0.2843778,-0.1005689 0.1355603,-0.00945 0.4074533,-0.029009 0.6042077,-0.043465 0.5727389,-0.042087 0.9064669,-0.00614 1.1906635,0.1282687 0.2048579,0.096882 0.2926324,0.1774027 0.3743662,0.3434269 0.066621,0.135333 0.071778,0.161097 0.070494,0.3524312 C 3.7122391,3.7039699 3.6665377,3.8172036 3.4920276,3.9948228 3.335823,4.1538152 3.2168969,4.2292942 3.0057092,4.3034754 L 2.83798,4.3623894 2.9495157,4.4843492 c 0.061334,0.067077 0.19281,0.2455711 0.2921512,0.396652 0.099333,0.1510807 0.2270709,0.3332261 0.2838449,0.4047667 0.056782,0.07154 0.1460686,0.184419 0.1984288,0.2508401 0.1339473,0.1699184 0.4623716,0.4814982 0.6413331,0.6084405 0.2180148,0.1546438 0.5082455,0.2899604 0.7244921,0.3377859 0.3649195,0.080709 0.8431096,0.045226 1.0940562,-0.081172 0.1091913,-0.054989 0.1478767,-0.051742 0.1094276,0.00925 -0.038592,0.061188 -0.4055351,0.2422161 -0.5829289,0.287587 -0.1325837,0.033905 -0.2342865,0.042858 -0.4644064,0.040884 -0.1620533,-0.00135 -0.3471967,-0.011275 -0.41143,-0.02193 z"
         id="path1" /><path
         style="fill:#000000;stroke-width:0.0819435"
         d="M 13.598813,6.7173885 C 12.976889,6.5935161 12.414108,6.2413869 12.010045,5.7554863 11.811093,5.5266605 11.644311,5.2740118 11.504237,5.0058673 11.355934,4.793649 11.280205,4.5041119 11.033429,4.3808731 c 0.05467,-0.1362844 0.373945,-0.088552 0.49494,-0.2265103 0.237577,-0.1588621 0.422033,-0.4258446 0.386041,-0.7230326 0.0041,-0.310952 -0.258406,-0.5635076 -0.555756,-0.6070771 -0.145467,-0.019084 -0.349948,-0.058884 -0.472407,0.00846 0.0044,0.9225915 -0.01215,1.8456292 0.01765,2.7678263 -0.02322,0.2648738 0.396064,0.1334006 0.3834,0.3499446 C 10.850893,5.9495609 10.413304,5.970818 9.977863,5.941714 9.9466,5.7756638 10.257756,5.8355881 10.333345,5.683095 c -10e-4,-0.8553329 0.0205,-1.7110412 -0.0027,-2.5660776 0.04128,-0.2450674 -0.195892,-0.311387 -0.3764075,-0.3511831 0.1157245,-0.1710824 0.4171845,-0.071921 0.6049085,-0.123404 0.545537,-0.036267 1.151583,-0.120872 1.635482,0.196781 0.223371,0.1507376 0.318176,0.4365404 0.280815,0.6971025 -0.006,0.3168637 -0.274595,0.5506805 -0.53055,0.6947272 -0.10978,0.054679 -0.227683,0.0896 -0.342641,0.1313481 0.341023,0.3554989 0.559914,0.8057625 0.885961,1.1742186 0.968942,1.2360781 2.177715,1.0106618 3.495834,0.4957268 -0.697829,0.4491577 -1.533994,0.7478222 -2.385234,0.685054 z"
         id="path2"
         sodipodi:nodetypes="cccccccccccccccccccccc" /></g></g></svg>
