<?xml version="1.0" encoding="UTF-8" standalone="no"?>
<!-- Created with Inkscape (http://www.inkscape.org/) -->

<svg
   width="70"
   height="35"
   viewBox="0 0 18.520833 9.2604165"
   version="1.1"
   id="svg1"
   xml:space="preserve"
   inkscape:version="1.3 (0e150ed6c4, 2023-07-21)"
   sodipodi:docname="rain_rest_name.svg"
   inkscape:export-filename="Hydrangea_Gerbera_daisy_Alstroemeria_pink_Roses_flower_bag_sold.png"
   inkscape:export-xdpi="96"
   inkscape:export-ydpi="96"
   xmlns:inkscape="http://www.inkscape.org/namespaces/inkscape"
   xmlns:sodipodi="http://sodipodi.sourceforge.net/DTD/sodipodi-0.dtd"
   xmlns="http://www.w3.org/2000/svg"
   xmlns:svg="http://www.w3.org/2000/svg"><sodipodi:namedview
     id="namedview1"
     pagecolor="#ffffff"
     bordercolor="#000000"
     borderopacity="0.25"
     inkscape:showpageshadow="2"
     inkscape:pageopacity="0.0"
     inkscape:pagecheckerboard="0"
     inkscape:deskcolor="#d1d1d1"
     inkscape:document-units="mm"
     inkscape:zoom="8"
     inkscape:cx="27.5"
     inkscape:cy="30.375"
     inkscape:window-width="1920"
     inkscape:window-height="991"
     inkscape:window-x="-9"
     inkscape:window-y="-9"
     inkscape:window-maximized="1"
     inkscape:current-layer="layer1" /><defs
     id="defs1" /><g
     inkscape:label="Layer 1"
     inkscape:groupmode="layer"
     id="layer1"><g
       id="g1"
       transform="translate(0.02859416,-0.18324469)"><path
         style="fill:#000000;stroke-width:0.0759523"
         d="M 13.365185,6.4152 C 13.214621,6.390194 12.94118,6.2959701 12.735202,6.1981093 12.442798,6.0591886 12.113549,5.7921527 11.869447,5.4959448 11.726026,5.3219078 11.560585,5.0914281 11.540274,5.0373631 11.532749,5.0173808 11.488782,4.9377277 11.442526,4.8603599 11.39627,4.7829913 11.316968,4.6471948 11.26629,4.558591 11.161624,4.3755968 11.116188,4.3212231 11.031214,4.2772816 c -0.07943,-0.041072 -0.07527,-0.064455 0.01566,-0.088002 0.04145,-0.010735 0.116052,-0.029993 0.16579,-0.0428 0.146461,-0.03771 0.2763,-0.1196324 0.401181,-0.25313 0.143961,-0.1538979 0.191153,-0.2751965 0.190843,-0.4905401 -5.29e-4,-0.3606623 -0.243258,-0.5855418 -0.665773,-0.6167835 -0.07925,-0.00586 -0.176457,-0.00458 -0.21603,0.00283 l -0.07194,0.013496 7.6e-5,1.2701449 c 7.2e-5,0.8204926 0.0075,1.2968897 0.02109,1.3456945 0.02567,0.092426 0.08885,0.1366139 0.237922,0.1663786 0.09959,0.019878 0.112645,0.028134 0.112645,0.07115 v 0.048649 l -0.592825,0.00491 C 10.3038,5.711999 10.024408,5.706139 10.008981,5.696236 9.977541,5.676139 9.992071,5.617415 10.031551,5.60503 c 0.01407,-0.00439 0.05988,-0.013743 0.101824,-0.020714 0.04194,-0.007 0.105238,-0.038589 0.14067,-0.070243 l 0.06443,-0.057548 0.0056,-1.2140483 c 0.0061,-1.3062041 0.0044,-1.3305066 -0.0963,-1.4052049 -0.02779,-0.02061 -0.09787,-0.04308 -0.155742,-0.049934 -0.05787,-0.00686 -0.1050778,-0.022506 -0.1049098,-0.034782 8.97e-4,-0.063735 0.04023,-0.07765 0.2635858,-0.093216 0.125649,-0.00876 0.377663,-0.026888 0.560032,-0.040287 0.530864,-0.03901 0.840192,-0.00569 1.10361,0.1188905 0.18988,0.089799 0.271237,0.1644322 0.346995,0.3183178 0.06175,0.1254383 0.06653,0.1493186 0.06534,0.3266637 -0.0017,0.239178 -0.04406,0.3441328 -0.205811,0.5087657 -0.144784,0.1473679 -0.255015,0.2173284 -0.450762,0.2860859 l -0.155466,0.054607 0.103381,0.1130429 c 0.05685,0.062173 0.178713,0.2276165 0.270791,0.3676514 0.09207,0.1400347 0.210469,0.3088628 0.263092,0.3751728 0.05263,0.066309 0.135389,0.1709355 0.183921,0.2325003 0.124154,0.1574951 0.428566,0.4462942 0.594443,0.5639554 0.202075,0.1433372 0.471086,0.2687604 0.671522,0.3130892 0.338239,0.074808 0.781467,0.041919 1.014066,-0.075237 0.101208,-0.050969 0.137065,-0.047959 0.101427,0.00857 -0.03577,0.056717 -0.375885,0.2245099 -0.540309,0.2665636 -0.12289,0.031426 -0.217157,0.039724 -0.430452,0.037895 C 13.596324,6.434337 13.424717,6.425136 13.36518,6.41526 Z"
         id="path3" /><path
         style="fill:#000000;stroke-width:0.077412"
         d="M 4.2739334,3.6123694 C 4.167758,3.5621593 4.1213687,3.5082555 4.1067363,3.4180859 4.0897122,3.3131896 4.1601752,3.1760834 4.254134,3.1312781 c 0.1488502,-0.070982 0.3752538,-0.023771 0.4342567,0.090552 0.03487,0.067558 0.032238,0.2129112 -0.00514,0.285235 -0.062076,0.120039 -0.2667673,0.1727033 -0.409292,0.105304 z"
         id="path12" /><path
         style="fill:#000000;stroke-width:0.0806696"
         d="m 7.4289985,5.6753473 c -0.035637,-0.035631 -0.011925,-0.092697 0.044092,-0.1061276 0.1188784,-0.028506 0.1740045,-0.070875 0.1981463,-0.152278 0.015629,-0.05272 0.021358,-0.2772957 0.016823,-0.6598542 -0.00684,-0.5774533 -0.0071,-0.5801712 -0.0578,-0.634106 C 7.5977908,4.0884425 7.5454868,4.0637375 7.485927,4.0548065 7.3847866,4.0396405 7.3649285,4.0241705 7.3837221,3.9751945 c 0.00814,-0.021136 0.069464,-0.040072 0.1841814,-0.056847 0.1473289,-0.021541 0.4072204,-0.079803 0.534822,-0.119891 0.033343,-0.010479 0.03735,0.00581 0.03735,0.1516789 v 0.1634151 l 0.063312,-0.053278 C 8.5636357,3.7571447 9.0200379,3.7079001 9.2678297,3.9454228 9.434405,4.1050954 9.4633895,4.2503863 9.4633895,4.9257117 v 0.5093019 l 0.052814,0.052814 c 0.02905,0.029051 0.08166,0.058586 0.116914,0.06563 0.07564,0.015129 0.117446,0.05832 0.100133,0.1034526 -0.01846,0.048097 -0.9983265,0.048363 -1.0382339,2.42e-4 -0.033161,-0.03996 0.00554,-0.096049 0.066306,-0.096049 0.021859,0 0.068955,-0.026411 0.1046736,-0.05869 l 0.064939,-0.058699 0.00606,-0.5014583 C 8.9403634,4.6664558 8.9356038,4.3937196 8.9265431,4.3361791 8.9002699,4.1699585 8.7727714,4.0670376 8.5931358,4.0670376 c -0.1006542,0 -0.2849298,0.088935 -0.3537541,0.1707278 l -0.051067,0.060689 0.00251,0.5619591 c 0.00285,0.6379476 0.00363,0.6411105 0.1626203,0.6876955 0.07927,0.023232 0.096048,0.037074 0.096048,0.079265 V 5.678501 L 7.9465112,5.684161 C 7.6698709,5.687271 7.4369569,5.6832963 7.4289234,5.675281 Z"
         id="path11" /><path
         style="fill:#000000;stroke-width:0.0796155"
         d="m 3.9725825,5.8106532 c -0.021044,-0.058013 0.00789,-0.091081 0.09219,-0.105334 0.045442,-0.00766 0.1084476,-0.037455 0.1400077,-0.066151 l 0.057384,-0.052177 0.00606,-0.6086188 c 0.00706,-0.7100308 9.151e-4,-0.7427305 -0.1465316,-0.7825997 -0.1326873,-0.035877 -0.1394595,-0.039986 -0.13214,-0.08019 0.0054,-0.029672 0.048946,-0.045583 0.2012128,-0.073519 0.1068747,-0.019608 0.2695891,-0.056218 0.3615865,-0.081355 0.091998,-0.025134 0.1769441,-0.045701 0.1887695,-0.045701 0.014549,0 0.023377,0.2741214 0.027313,0.8477077 l 0.00582,0.847706 0.048996,0.035127 c 0.026948,0.019315 0.091436,0.045387 0.143302,0.057939 0.097447,0.023571 0.1373187,0.082812 0.081101,0.120498 -0.015189,0.010144 -0.2606329,0.018669 -0.545429,0.018838 -0.4415804,3.263e-4 -0.5195482,-0.00451 -0.5296015,-0.032167 z"
         id="path10" /><path
         style="fill:#000000;stroke-width:0.0803637"
         d="m 16.543786,5.7314378 c -0.156564,-0.031581 -0.268412,-0.1296292 -0.326252,-0.2859733 -0.0082,-0.022053 -0.01473,-0.3401977 -0.0146,-0.7069904 l 2.41e-4,-0.6668975 h -0.138003 c -0.130983,0 -0.138006,-0.00257 -0.138006,-0.050355 0,-0.039381 0.02939,-0.067543 0.134886,-0.1292394 0.206695,-0.1208792 0.338822,-0.2552938 0.41406,-0.4212289 0.05948,-0.1311888 0.07049,-0.1433783 0.129498,-0.1433783 h 0.06449 l 0.006,0.271102 0.006,0.2711022 0.265547,0.010627 c 0.288245,0.011538 0.298386,0.016842 0.267504,0.139891 -0.01282,0.051018 -0.01527,0.051476 -0.278302,0.051476 h -0.265381 l 9.48e-4,0.5794143 c 0.001,0.6211649 0.01274,0.7407377 0.07931,0.8073062 0.06286,0.062864 0.204119,0.071478 0.352052,0.021467 0.09738,-0.032924 0.126239,-0.03601 0.134532,-0.014406 0.03079,0.080219 -0.145612,0.1986046 -0.377294,0.2532166 -0.145821,0.034368 -0.199684,0.036558 -0.3171,0.01286 z"
         id="path9" /><path
         style="fill:#000000;stroke-width:0.0796677"
         d="m 14.884064,5.8371788 c -0.06955,-0.010524 -0.184982,-0.029839 -0.256494,-0.042972 l -0.130022,-0.023875 -0.01402,-0.171837 c -0.0076,-0.094512 -0.01085,-0.2145226 -0.007,-0.2666933 0.0062,-0.083699 0.01333,-0.09559 0.06064,-0.101102 0.04385,-0.00512 0.06048,0.00817 0.0914,0.073045 0.06851,0.1436745 0.15826,0.2350339 0.298897,0.3042692 0.119168,0.058662 0.150782,0.065516 0.257026,0.055671 0.159256,-0.01476 0.227956,-0.048758 0.26768,-0.1324686 0.07762,-0.163503 0.01639,-0.2326291 -0.380536,-0.4297255 -0.455924,-0.2263917 -0.57826,-0.3626975 -0.577046,-0.6429409 0.0012,-0.2819428 0.202344,-0.4536207 0.588536,-0.5023665 0.155226,-0.019594 0.221658,-0.017604 0.402255,0.01204 0.11898,0.01953 0.229743,0.046644 0.24614,0.060255 0.01995,0.016553 0.0262,0.049711 0.01891,0.1001769 -0.006,0.041489 -0.01697,0.1347174 -0.02439,0.207176 -0.01296,0.1266012 -0.01576,0.131743 -0.07178,0.131743 -0.04962,0 -0.06366,-0.01403 -0.0943,-0.094256 -0.06085,-0.1593474 -0.200661,-0.2426179 -0.407793,-0.242888 -0.180584,-2.392e-4 -0.299696,0.090374 -0.299696,0.2279821 0,0.1015716 0.07525,0.162696 0.389568,0.3164542 0.394982,0.1932159 0.4836,0.2554205 0.551992,0.3874591 0.115753,0.2234808 0.06261,0.4695575 -0.133683,0.6190839 -0.176154,0.1341808 -0.495171,0.1981991 -0.776257,0.1557731 z"
         id="path8" /><path
         id="path6"
         style="fill:#000000;stroke-width:0.0823831"
         d="m 13.565651,3.8082874 c -0.363942,0.00381 -0.729511,0.2193862 -0.888194,0.5362031 -0.129029,0.2576131 -0.136031,0.6485537 -0.01614,0.8997737 0.119882,0.2511897 0.414351,0.4677236 0.703557,0.5172998 0.237235,0.040673 0.529613,-0.031106 0.731185,-0.1794856 0.206471,-0.1519962 0.301073,-0.2873281 0.246666,-0.3528852 -0.02196,-0.02646 -0.03599,-0.023387 -0.09443,0.020478 -0.03776,0.028341 -0.122616,0.079555 -0.188553,0.1138395 -0.102703,0.053397 -0.144888,0.062323 -0.294263,0.062323 -0.147128,0 -0.193913,-0.00957 -0.299456,-0.061387 -0.20216,-0.099275 -0.339751,-0.298024 -0.359859,-0.5197686 l -0.01154,-0.1272499 h 0.590781 c 0.693955,0 0.647328,0.020003 0.631311,-0.2703371 -0.02065,-0.3743845 -0.235218,-0.5871589 -0.638421,-0.633098 -0.03738,-0.00426 -0.075,-0.0061 -0.112644,-0.0057 z m -0.06892,0.2009858 c 0.07716,-0.00107 0.154996,0.012128 0.196855,0.04019 0.09006,0.060376 0.148197,0.2011311 0.148197,0.3588026 v 0.1347857 h -0.373575 -0.373576 l 0.0132,-0.1113701 c 0.01511,-0.1275949 0.112202,-0.3140701 0.196175,-0.3767678 0.03911,-0.029193 0.115566,-0.044558 0.192726,-0.045638 z" /><path
         id="path4"
         style="fill:#000000;stroke-width:0.0823246"
         d="m 6.2617559,3.8310587 c -0.07187,6.01e-5 -0.148436,0.0054 -0.2293046,0.016164 -0.443138,0.058971 -0.70393,0.2414509 -0.6561317,0.4590755 0.018935,0.086208 0.086884,0.1306055 0.1998217,0.1306055 0.1739419,0 0.2466617,-0.069918 0.2466617,-0.237217 0,-0.1300269 0.05449,-0.1644498 0.2614226,-0.1651496 0.1392054,-4.913e-4 0.1823999,0.00782 0.2324944,0.044542 0.097838,0.071731 0.1377145,0.1734053 0.1377526,0.3514001 v 0.1569387 l -0.070793,0.010637 c -0.038929,0.00584 -0.1492052,0.022031 -0.2450447,0.035949 -0.1976827,0.028701 -0.454164,0.1060316 -0.5989977,0.1805926 -0.1331602,0.06855 -0.2726897,0.2434207 -0.301073,0.3773512 -0.055885,0.2637209 0.098755,0.5159828 0.3591855,0.5859795 0.1337219,0.035943 0.174774,0.036815 0.316559,0.00679 0.1485102,-0.03148 0.2482762,-0.082726 0.3974743,-0.2042469 0.066164,-0.053898 0.1244781,-0.098017 0.1295835,-0.098017 0.00512,0 0.016224,0.041172 0.024719,0.091466 0.031811,0.1883006 0.204965,0.2677878 0.4458016,0.2046297 C 7.1734638,5.7099653 7.3067485,5.6227651 7.2616297,5.5497618 7.2497774,5.5305793 7.2221614,5.5261999 7.1765035,5.5362319 7.0891697,5.5554177 7.0275818,5.5349971 6.9935711,5.4755738 6.9744246,5.4421109 6.9630143,5.2474384 6.9550749,4.8181228 6.9444065,4.2413768 6.9411743,4.2032869 6.8953832,4.116938 6.7961357,3.9297785 6.5732023,3.8308373 6.2617576,3.8310994 Z m 0.1927167,0.9481009 v 0.2208805 0.220923 l -0.080189,0.088743 c -0.044104,0.048822 -0.1172054,0.1076832 -0.16247,0.1307753 -0.1024678,0.052273 -0.2696296,0.054048 -0.3507622,0.0037 -0.06756,-0.041888 -0.1253726,-0.1481827 -0.1253726,-0.230495 0,-0.2202622 0.2359606,-0.3980494 0.5607947,-0.4226169 z" /><path
         style="fill:#000000;stroke-width:0.0819435"
         d="M 4.8663668,7.0010271 C 4.7039263,6.9740486 4.4089161,6.8723922 4.1866904,6.7668121 3.8712213,6.6169332 3.516001,6.3288334 3.252644,6.0092604 3.0979099,5.8214952 2.9194188,5.5728351 2.8975057,5.5145055 2.8893925,5.4929473 2.8419519,5.4070112 2.7920472,5.3235401 2.7421425,5.2400682 2.6565851,5.0935604 2.6019096,4.9979675 2.4889875,4.8005386 2.4399675,4.7418759 2.3482907,4.6944682 2.2625952,4.6501564 2.2670833,4.624929 2.3651859,4.5995246 2.4099055,4.5879428 2.4903922,4.5671657 2.5440536,4.5533485 2.7020675,4.5126639 2.8421483,4.4242794 2.97688,4.2802514 3.1321967,4.1142139 3.1831113,3.9833472 3.1827768,3.7510172 3.1822061,3.3619056 2.9203305,3.1192875 2.4644872,3.0855814 c -0.085501,-0.00632 -0.1903761,-0.00494 -0.2330706,0.00305 l -0.077615,0.014561 8.2e-5,1.3703348 c 7.77e-5,0.8852136 0.00809,1.3991892 0.022754,1.4518437 0.027695,0.099717 0.095859,0.1473901 0.2566895,0.1795027 0.1074457,0.021446 0.1215305,0.030353 0.1215305,0.076762 v 0.052486 l -0.6395875,0.0053 c -0.3517722,0.00293 -0.6532029,-0.00339 -0.6698468,-0.014072 -0.03392,-0.021682 -0.018244,-0.085038 0.02435,-0.0984 0.01518,-0.00474 0.064603,-0.014827 0.1098559,-0.022348 0.045248,-0.00755 0.1135393,-0.041633 0.1517662,-0.075784 l 0.069512,-0.062087 0.00604,-1.3098132 C 1.6135274,3.2476822 1.6116974,3.2214627 1.5030512,3.1408722 1.4730692,3.1186362 1.3974611,3.0943942 1.3350241,3.0869992 1.2725891,3.0795992 1.2216575,3.0627182 1.2218388,3.0494732 1.2228065,2.9807112 1.2652418,2.9656982 1.5062166,2.9489043 1.6417769,2.9394543 1.9136699,2.9198953 2.1104243,2.9054393 2.6831632,2.8633523 3.0168912,2.8992993 3.3010878,3.033708 3.5059457,3.13059 3.5937202,3.2111107 3.675454,3.3771349 3.742075,3.5124679 3.747232,3.5382319 3.745948,3.7295661 3.7441163,3.9876085 3.6984149,4.1008422 3.5239048,4.2784614 3.3677002,4.4374538 3.2487741,4.5129328 3.0375864,4.587114 L 2.8698572,4.646028 2.9813929,4.7679878 c 0.061334,0.067077 0.19281,0.2455711 0.2921512,0.396652 0.099333,0.1510807 0.2270709,0.3332261 0.2838449,0.4047667 0.056782,0.07154 0.1460686,0.184419 0.1984288,0.2508401 C 3.8897651,5.990165 4.2181894,6.3017448 4.3971509,6.4286871 4.6151657,6.5833309 4.9053964,6.7186475 5.121643,6.766473 5.4865625,6.847182 5.9647526,6.811699 6.2156992,6.685301 6.3248905,6.630312 6.3635759,6.633559 6.3251268,6.694551 6.2865348,6.755739 5.9195917,6.9367671 5.7421979,6.982138 5.6096142,7.016043 5.5079114,7.024996 5.2777915,7.023022 5.1157382,7.021672 4.9305948,7.011747 4.8663615,7.001092 Z"
         id="path1" /></g></g></svg>
