<?xml version="1.0" encoding="UTF-8" standalone="no"?>
<!-- Created with Inkscape (http://www.inkscape.org/) -->

<svg
   width="70"
   height="35"
   viewBox="0 0 18.520833 9.2604165"
   version="1.1"
   id="svg1"
   xml:space="preserve"
   inkscape:version="1.3 (0e150ed6c4, 2023-07-21)"
   sodipodi:docname="rain_rest_name_2.svg"
   inkscape:export-filename="Hydrangea_Gerbera_daisy_Alstroemeria_pink_Roses_flower_bag_sold.png"
   inkscape:export-xdpi="96"
   inkscape:export-ydpi="96"
   xmlns:inkscape="http://www.inkscape.org/namespaces/inkscape"
   xmlns:sodipodi="http://sodipodi.sourceforge.net/DTD/sodipodi-0.dtd"
   xmlns="http://www.w3.org/2000/svg"
   xmlns:svg="http://www.w3.org/2000/svg"><sodipodi:namedview
     id="namedview1"
     pagecolor="#ffffff"
     bordercolor="#000000"
     borderopacity="0.25"
     inkscape:showpageshadow="2"
     inkscape:pageopacity="0.0"
     inkscape:pagecheckerboard="0"
     inkscape:deskcolor="#d1d1d1"
     inkscape:document-units="mm"
     inkscape:zoom="4.0000001"
     inkscape:cx="78.999998"
     inkscape:cy="37.249999"
     inkscape:window-width="1920"
     inkscape:window-height="991"
     inkscape:window-x="-9"
     inkscape:window-y="-9"
     inkscape:window-maximized="1"
     inkscape:current-layer="layer1" /><defs
     id="defs1" /><g
     inkscape:label="Layer 1"
     inkscape:groupmode="layer"
     id="layer1"><path
       id="path12"
       style="fill:#0242be;stroke-width:0.0994442;fill-opacity:1"
       inkscape:transform-center-x="0.08262739"
       inkscape:transform-center-y="-1.1281879"
       d="m 2.3695343,2.2897737 c -0.1162689,4.483e-4 -0.2443887,0.00653 -0.3875732,0.017053 -0.1967542,0.014456 -0.4685374,0.033958 -0.6040975,0.043408 -0.2409745,0.016794 -0.2832527,0.03149 -0.2842204,0.1002523 -1.813e-4,0.013245 0.050736,0.030324 0.1131714,0.037724 0.062437,0.00739 0.1379664,0.031508 0.1679484,0.053743 0.1086461,0.080591 0.1104496,0.1069528 0.1038696,1.5161866 l -0.0062,1.3099975 -0.069246,0.062012 c -0.038227,0.034151 -0.1066807,0.067898 -0.1519286,0.075448 -0.045253,0.00752 -0.094891,0.017998 -0.1100708,0.022738 -0.042594,0.013362 -0.058208,0.076503 -0.024288,0.098185 0.016644,0.010682 0.3179547,0.016883 0.6697265,0.013953 l 0.6397543,-0.00517 v -0.05271 c 0,-0.046409 -0.013994,-0.055035 -0.1214396,-0.076481 C 2.1441084,5.4740022 2.0758019,5.4265145 2.0481069,5.3267976 2.0334429,5.2741431 2.025447,4.7599026 2.0253693,3.8746898 V 2.5042309 l 0.077515,-0.014469 c 0.042695,-0.00799 0.1475598,-0.00942 0.2330607,-0.0031 0.4558429,0.033706 0.7177317,0.2764812 0.7183024,0.6655924 C 3.0545815,3.3845831 3.0038914,3.5153826 2.8485748,3.68142 2.7138433,3.8254478 2.5735401,3.9141037 2.4155263,3.9547883 c -0.053661,0.013817 -0.1340809,0.03441 -0.1788004,0.045992 -0.098102,0.025404 -0.1027487,0.050773 -0.017053,0.095085 0.091677,0.047408 0.1408093,0.1059119 0.2537313,0.3033406 0.054676,0.095593 0.1402647,0.2420897 0.1901693,0.3255615 0.049905,0.083471 0.097307,0.1691279 0.1054199,0.1906861 0.021913,0.05833 0.2002832,0.3072952 0.3550171,0.4950602 0.2633567,0.3195727 0.6188411,0.6076978 0.9343099,0.7575765 0.2222255,0.10558 0.5171048,0.2071158 0.6795451,0.2340942 0.064233,0.010655 0.2492913,0.020871 0.4113444,0.022221 0.2301197,0.00197 0.3319876,-0.00692 0.4645711,-0.040824 C 5.7911743,6.3382098 6.1580989,6.1569308 6.1966909,6.0957429 6.2351399,6.034751 6.196328,6.0314522 6.0871368,6.0864411 5.8361905,6.212839 5.3580659,6.2482821 4.9931468,6.1675731 4.7769004,6.1197477 4.4866578,5.9847697 4.2686432,5.830126 4.0896819,5.7031839 3.7612858,5.3912959 3.6273387,5.2213777 3.5749785,5.1549566 3.4856831,5.0422869 3.4289012,4.970747 3.3721272,4.8992064 3.2445305,4.7166843 3.1451975,4.5656037 3.0458564,4.414523 2.9145596,4.2363224 2.8532257,4.1692455 L 2.7416046,4.0472891 2.9090363,3.988378 C 3.1202237,3.9141969 3.239107,3.8388619 3.3953115,3.6798697 3.5698214,3.5022507 3.6156884,3.3885914 3.6175201,3.1305492 3.6188041,2.9392152 3.6138611,2.9134488 3.5472402,2.7781159 3.4655065,2.6120919 3.3774438,2.5318663 3.1725861,2.4349844 2.9594388,2.334178 2.7183409,2.2884287 2.3695343,2.2897737 Z m 1.966805,0.2563151 c -0.06961,8.428e-4 -0.1391998,0.014396 -0.1989543,0.042891 -0.1206999,0.057557 -0.211005,0.2337025 -0.1891357,0.368453 0.018797,0.1158323 0.07858,0.185097 0.214974,0.2495971 0.1830881,0.086582 0.4458065,0.018811 0.5255493,-0.1353922 0.048013,-0.092908 0.051512,-0.2796001 0.00672,-0.3663859 C 4.6433811,2.6042862 4.4894803,2.5442344 4.3363393,2.5460888 Z M 16.735583,2.8318594 c -0.06413,0 -0.07592,0.013505 -0.14056,0.1560629 -0.08176,0.1803152 -0.225494,0.3264984 -0.450102,0.4578531 -0.114635,0.067044 -0.146761,0.097249 -0.146761,0.1400432 0,0.051929 0.008,0.054777 0.150378,0.054777 H 16.2984 l -5.17e-4,0.7250203 c -1.4e-4,0.3985795 0.0071,0.7439479 0.01602,0.7679118 0.06285,0.1698933 0.184368,0.2767742 0.3545,0.3110921 h 5.17e-4 c 0.127592,0.025752 0.185707,0.023394 0.344165,-0.013953 0.25176,-0.059345 0.443771,-0.1882645 0.410311,-0.2754354 -0.009,-0.023477 -0.04042,-0.019757 -0.146244,0.01602 -0.160753,0.054345 -0.314096,0.04454 -0.382406,-0.023771 -0.07235,-0.072337 -0.0852,-0.2019532 -0.0863,-0.8769491 l -0.001,-0.6299357 H 17.0958 c 0.28583,0 0.288378,-3.716e-4 0.302308,-0.055811 0.03356,-0.1337122 0.0228,-0.1393908 -0.290422,-0.1519288 l -0.288871,-0.011369 -0.0067,-0.2945556 -0.0062,-0.2950725 z m -5.586739,0.018087 c -0.211962,0.00343 -0.42536,0.023607 -0.629936,0.037207 -0.187724,0.051483 -0.48889,-0.047576 -0.6046146,0.1235067 0.1805156,0.039796 0.4174846,0.1063326 0.3762046,0.3513997 0.0232,0.8550356 0.0016,1.7104028 0.0026,2.5657349 -0.07559,0.1524929 -0.3867972,0.092849 -0.3555342,0.2588989 0.4354402,0.029104 0.8730772,0.00786 1.3094812,0.00878 0.01266,-0.2165438 -0.406659,-0.084976 -0.383439,-0.3498494 -0.0298,-0.9221962 -0.01317,-1.8451992 -0.01757,-2.7677898 0.122459,-0.067344 0.326855,-0.027869 0.472322,-0.00878 0.29735,0.043569 0.560139,0.2962463 0.556039,0.607198 0.03599,0.2971877 -0.148446,0.5640914 -0.386023,0.7229533 -0.120995,0.1379582 -0.440391,0.090058 -0.49506,0.2263428 0.246775,0.1232387 0.322469,0.4130667 0.470772,0.6252848 0.140074,0.2681443 0.30696,0.5209995 0.505912,0.7498251 0.404063,0.4859001 0.96661,0.8378261 1.588534,0.9616984 0.851239,0.062768 1.687555,-0.2360723 2.385384,-0.6852295 -1.318118,0.5149345 -2.52697,0.7404999 -3.495911,-0.495577 -0.326047,-0.3684557 -0.544711,-0.81859 -0.885734,-1.1740886 0.114958,-0.041748 0.232835,-0.076579 0.342615,-0.1312581 C 12.160841,4.3321571 12.429603,4.098019 12.435603,3.7811556 12.472963,3.5205938 12.377853,3.234778 12.154483,3.0840405 11.85203,2.8855075 11.502114,2.844224 11.148844,2.8499464 Z M 4.6401967,3.4452587 c -0.011825,0 -0.096621,0.020341 -0.1886189,0.045475 -0.091997,0.025137 -0.2548606,0.062041 -0.3617351,0.081649 -0.1522664,0.027936 -0.1961381,0.043709 -0.2015381,0.073381 -0.00732,0.040204 -3.954e-4,0.044221 0.1322917,0.080098 0.1474465,0.039869 0.1538211,0.072869 0.1467611,0.782898 l -0.0062,0.6082316 -0.057361,0.052193 c -0.03156,0.028696 -0.094601,0.058486 -0.1400432,0.066146 -0.0843,0.014253 -0.113028,0.047407 -0.091984,0.1054199 0.010053,0.027657 0.088104,0.032366 0.5296834,0.032039 C 4.6862481,5.3726202 4.93145,5.3643292 4.946639,5.3541852 5.0028555,5.3165001 4.9629528,5.257351 4.865506,5.23378 4.81364,5.221228 4.7493101,5.1952174 4.7223623,5.1759024 l -0.049093,-0.03514 -0.00568,-0.8480102 C 4.6636492,3.7191669 4.6547457,3.4452587 4.6401967,3.4452587 Z m 1.5006836,0.1586466 c -0.069543,5.81e-5 -0.1434414,0.00509 -0.2216919,0.015503 -0.4287909,0.057062 -0.6813541,0.2338385 -0.6351033,0.4444173 0.018322,0.083417 0.083988,0.1260905 0.1932698,0.1260905 0.1683104,0 0.2387452,-0.06756 0.2387452,-0.2294434 0,-0.1258172 0.052982,-0.159003 0.2532145,-0.1596802 0.1346984,-4.754e-4 0.1763198,0.00736 0.2247925,0.042892 0.094671,0.069409 0.1332883,0.1677989 0.1333252,0.3400309 v 0.1519287 l -0.06873,0.010335 c -0.037669,0.00565 -0.1439415,0.021156 -0.2366781,0.034623 -0.1912825,0.027772 -0.439665,0.1025193 -0.5798095,0.1746663 -0.128849,0.066331 -0.2639907,0.2357581 -0.2914551,0.3653524 -0.054076,0.2551827 0.095784,0.4991601 0.3477824,0.5668905 0.1293924,0.034779 0.1692467,0.035771 0.3064412,0.00672 0.1437021,-0.030461 0.240105,-0.080334 0.3844727,-0.1979207 0.064022,-0.052153 0.1201167,-0.094568 0.1250569,-0.094568 0.00495,0 0.016068,0.1802607 0.024288,0.2289266 0.030781,0.1822041 0.1984589,0.259034 0.4314982,0.1979207 C 7.0234069,5.562225 7.1519212,5.4775358 7.1082631,5.4068961 7.0967942,5.3883351 7.0702776,5.38427 7.0260976,5.3939769 6.9415917,5.4125419 6.881757,5.3930865 6.8488475,5.3355826 6.8303207,5.3032029 6.8193228,4.9743019 6.8116404,4.5588858 6.8013174,4.0008126 6.7985881,3.9639276 6.7542796,3.8803742 6.6582453,3.6992742 6.4422417,3.6036517 6.1408803,3.6039053 Z m 9.1467287,0.1064535 c -0.04502,9.806e-4 -0.09177,0.00539 -0.151412,0.012919 -0.395665,0.049941 -0.601864,0.2258389 -0.603064,0.5146973 -0.0012,0.2871172 0.124072,0.4269299 0.591179,0.6588745 0.406659,0.2019308 0.469677,0.2727697 0.390157,0.4402832 -0.0407,0.085764 -0.11124,0.1202702 -0.274402,0.1353922 -0.108851,0.010087 -0.141459,0.00326 -0.26355,-0.056844 -0.144087,-0.070933 -0.235735,-0.1644103 -0.305925,-0.3116088 -0.03168,-0.066467 -0.0486,-0.080181 -0.09353,-0.074931 -0.04847,0.00565 -0.05613,0.017601 -0.06253,0.1033529 -0.0039,0.05345 -5.66e-4,0.1765384 0.0072,0.2733683 l 0.01447,0.1762167 0.133325,0.024288 c 0.07327,0.013455 0.191256,0.033143 0.262516,0.043925 0.287981,0.043467 0.614826,-0.021691 0.7953,-0.1591634 0.201144,-0.153194 0.255567,-0.4056244 0.136975,-0.6345867 -0.07007,-0.1352772 -0.16067,-0.1989198 -0.56534,-0.396875 -0.322024,-0.1575296 -0.398942,-0.2199482 -0.398942,-0.3240112 0,-0.1409831 0.121944,-0.2338225 0.306958,-0.2335775 0.212212,2.768e-4 0.355205,0.085308 0.417545,0.2485637 0.03139,0.082194 0.0458,0.096635 0.09663,0.096635 0.05739,0 0.06062,-0.00517 0.0739,-0.1348755 0.0076,-0.074236 0.0187,-0.1698832 0.0248,-0.2123901 0.0075,-0.051704 8.03e-4,-0.08536 -0.01964,-0.1023193 -0.0168,-0.013945 -0.130282,-0.042003 -0.252181,-0.062012 -0.115641,-0.018982 -0.18542,-0.026956 -0.260449,-0.025321 z M 8.6761261,3.9584057 c -0.2092453,0.004 -0.4422825,0.094074 -0.6449219,0.2645833 L 7.9681592,4.276216 V 4.1129182 c 0,-0.1458688 -0.00386,-0.1624077 -0.037207,-0.1519287 -0.1276014,0.040088 -0.3875223,0.098348 -0.534851,0.1198893 -0.1147173,0.016775 -0.1763449,0.035708 -0.1844849,0.056844 -0.018794,0.048976 0.00118,0.064933 0.1023193,0.080098 0.05956,0.00893 0.1117083,0.033157 0.1441773,0.067696 0.0507,0.053935 0.051038,0.057134 0.057878,0.6345866 0.00453,0.3825581 -9.075e-4,0.6066713 -0.016536,0.6593912 -0.024142,0.081403 -0.079559,0.1239395 -0.1984375,0.1524455 -0.056017,0.013431 -0.079562,0.070306 -0.043925,0.1059367 0.00803,0.00802 0.240641,0.012412 0.5172811,0.0093 l 0.5033284,-0.00568 v -0.05116 c 0,-0.042191 -0.016848,-0.05635 -0.096118,-0.079582 -0.1589914,-0.046586 -0.159932,-0.049868 -0.162782,-0.6878146 l -0.00258,-0.5617229 0.05116,-0.060461 c 0.068824,-0.081793 0.2533295,-0.171049 0.3539836,-0.171049 0.1796354,0 0.3070398,0.1030138 0.333313,0.2692342 0.00906,0.05754 0.013704,0.3303648 0.010335,0.6061646 l -0.0062,0.633553 -0.064596,0.058911 c -0.035718,0.032279 -0.083044,0.058394 -0.1049031,0.058394 -0.060766,0 -0.099307,0.056158 -0.066146,0.096118 0.039907,0.048121 1.0381795,0.1473282 1.0381795,0 0.017313,-0.045133 -0.024612,-0.088224 -0.1002523,-0.1033529 -0.035254,-0.00704 -0.087738,-0.036579 -0.1167887,-0.065629 l -0.05271,-0.053227 v -0.641304 c 0,-0.6753247 -0.029279,-0.8206295 -0.1958537,-0.9803019 C 8.9873299,4.0043512 8.8388725,3.9552975 8.6761261,3.9584057 Z m 4.8203779,0.046509 c -0.363458,0.0038 -0.728812,0.2189728 -0.887284,0.5353679 -0.128856,0.2572701 -0.13575,0.6477676 -0.01602,0.8986531 0.119721,0.2508554 0.413979,0.4672541 0.702799,0.5167644 0.23692,0.040619 0.528885,-0.031134 0.730188,-0.1793173 0.206196,-0.1517938 0.300832,-0.2869634 0.246497,-0.3524332 -0.02193,-0.026424 -0.0362,-0.023653 -0.09457,0.020154 -0.03772,0.028303 -0.122253,0.079449 -0.188102,0.1136881 -0.102565,0.053327 -0.144863,0.062528 -0.294039,0.062528 -0.146932,0 -0.193804,-0.00975 -0.299207,-0.061495 -0.20188,-0.099143 -0.339071,-0.2973818 -0.359151,-0.5188314 l -0.01137,-0.127124 h 0.589628 c 0.693032,0 0.646449,0.019686 0.630453,-0.2702678 -0.02062,-0.3738861 -0.234504,-0.5861248 -0.63717,-0.6320027 -0.03733,-0.00426 -0.07506,-0.00608 -0.112655,-0.00568 z m -0.06873,0.2005043 c 0.07706,-0.00106 0.154567,0.012284 0.196371,0.040308 0.08994,0.060295 0.147794,0.2006561 0.147794,0.3581177 v 0.1348755 h -0.373104 -0.372587 l 0.01292,-0.1111043 c 0.01509,-0.1274251 0.111993,-0.3135902 0.195854,-0.3762045 0.03906,-0.029154 0.115696,-0.044914 0.192753,-0.045992 z M 6.3274323,4.521162 v 0.2139404 0.2134237 l -0.077515,0.085783 c -0.042676,0.047241 -0.1132972,0.1042628 -0.1570964,0.1266072 -0.09915,0.050581 -0.2610083,0.052335 -0.3395141,0.00362 -0.065373,-0.040532 -0.1214396,-0.143078 -0.1214396,-0.2227254 0,-0.213131 0.2282852,-0.3855053 0.5426025,-0.4092774 z" /></g></svg>
