<?xml version="1.0" encoding="UTF-8" standalone="no"?>
<!-- Created with Inkscape (http://www.inkscape.org/) -->

<svg
   width="1080"
   height="1920"
   viewBox="0 0 285.74999 508"
   version="1.1"
   id="svg1"
   xml:space="preserve"
   inkscape:version="1.3 (0e150ed6c4, 2023-07-21)"
   sodipodi:docname="rian rest logos.svg"
   inkscape:export-filename="Hydrangea_Gerbera_daisy_Alstroemeria_pink_Roses_flower_bag_sold.png"
   inkscape:export-xdpi="96"
   inkscape:export-ydpi="96"
   xmlns:inkscape="http://www.inkscape.org/namespaces/inkscape"
   xmlns:sodipodi="http://sodipodi.sourceforge.net/DTD/sodipodi-0.dtd"
   xmlns="http://www.w3.org/2000/svg"
   xmlns:svg="http://www.w3.org/2000/svg"><sodipodi:namedview
     id="namedview1"
     pagecolor="#ffffff"
     bordercolor="#000000"
     borderopacity="0.25"
     inkscape:showpageshadow="2"
     inkscape:pageopacity="0.0"
     inkscape:pagecheckerboard="0"
     inkscape:deskcolor="#d1d1d1"
     inkscape:document-units="mm"
     inkscape:zoom="0.35355339"
     inkscape:cx="387.49452"
     inkscape:cy="1100.2582"
     inkscape:window-width="1920"
     inkscape:window-height="991"
     inkscape:window-x="-9"
     inkscape:window-y="-9"
     inkscape:window-maximized="1"
     inkscape:current-layer="layer1" /><defs
     id="defs1"><inkscape:path-effect
       effect="skeletal"
       id="path-effect7"
       is_visible="true"
       lpeversion="1"
       pattern="m 2.9581228,4.1644119 c -0.381297,1.044903 -1.2110985,1.807264 -2.07224251,2.462921 -0.8368473,0.792338 -1.5521603,2.616307 -0.4418383,3.4261781 l 0.4196173,-0.04651 c 0.28548701,-0.3695881 0.0765,-0.6035061 0.06201,-0.7017721 C 0.39788113,6.9850697 3.6245555,5.4444838 2.9581208,4.1644109 Z"
       copytype="repeated_stretched"
       prop_scale="1.32"
       scale_y_rel="false"
       spacing="-0.2"
       normal_offset="-1.1"
       tang_offset="1.4"
       prop_units="false"
       vertical_pattern="false"
       hide_knot="false"
       fuse_tolerance="0" /><inkscape:path-effect
       effect="skeletal"
       id="path-effect5"
       is_visible="true"
       lpeversion="1"
       pattern="m 4.1744825,7.487046 -0.6773737,-0.4911363 -0.00453,0.00323 a 0.6775215,0.49126613 0 0 0 -0.062402,-0.00323 0.6775215,0.49126613 0 0 0 -0.6773737,0.4911363 0.6775215,0.49126613 0 0 0 0.6773737,0.4914596 0.6775215,0.49126613 0 0 0 0.063373,-0.00226 V 7.975919 l 0.00356,0.00258 z m -0.349195,0 -0.3640681,0.2641595 -0.00194,-0.00129 A 0.3640262,0.26395287 0 0 1 3.4253273,7.7512055 0.3640262,0.26395287 0 0 1 3.061259,7.487046 0.3640262,0.26395287 0 0 1 3.4253273,7.2232098 a 0.3640262,0.26395287 0 0 1 0.033626,0.00162 l 0.00226,-0.00162 z"
       copytype="repeated_stretched"
       prop_scale="1"
       scale_y_rel="false"
       spacing="1.9"
       normal_offset="-0.5"
       tang_offset="0"
       prop_units="false"
       vertical_pattern="false"
       hide_knot="false"
       fuse_tolerance="0" /><inkscape:path-effect
       effect="skeletal"
       id="path-effect7-4"
       is_visible="true"
       lpeversion="1"
       pattern="m 2.9581228,4.1644119 c -0.381297,1.044903 -1.2110985,1.807264 -2.07224251,2.462921 -0.8368473,0.792338 -1.5521603,2.616307 -0.4418383,3.4261781 l 0.4196173,-0.04651 c 0.28548701,-0.3695881 0.0765,-0.6035061 0.06201,-0.7017721 C 0.39788113,6.9850697 3.6245555,5.4444838 2.9581208,4.1644109 Z"
       copytype="repeated_stretched"
       prop_scale="1.32"
       scale_y_rel="false"
       spacing="-0.2"
       normal_offset="-1.1"
       tang_offset="1.4"
       prop_units="false"
       vertical_pattern="false"
       hide_knot="false"
       fuse_tolerance="0" /><inkscape:path-effect
       effect="skeletal"
       id="path-effect5-2"
       is_visible="true"
       lpeversion="1"
       pattern="m 4.1744825,7.487046 -0.6773737,-0.4911363 -0.00453,0.00323 a 0.6775215,0.49126613 0 0 0 -0.062402,-0.00323 0.6775215,0.49126613 0 0 0 -0.6773737,0.4911363 0.6775215,0.49126613 0 0 0 0.6773737,0.4914596 0.6775215,0.49126613 0 0 0 0.063373,-0.00226 V 7.975919 l 0.00356,0.00258 z m -0.349195,0 -0.3640681,0.2641595 -0.00194,-0.00129 A 0.3640262,0.26395287 0 0 1 3.4253273,7.7512055 0.3640262,0.26395287 0 0 1 3.061259,7.487046 0.3640262,0.26395287 0 0 1 3.4253273,7.2232098 a 0.3640262,0.26395287 0 0 1 0.033626,0.00162 l 0.00226,-0.00162 z"
       copytype="repeated_stretched"
       prop_scale="1"
       scale_y_rel="false"
       spacing="1.9"
       normal_offset="-0.5"
       tang_offset="0"
       prop_units="false"
       vertical_pattern="false"
       hide_knot="false"
       fuse_tolerance="0" /><inkscape:path-effect
       effect="skeletal"
       id="path-effect7-0"
       is_visible="true"
       lpeversion="1"
       pattern="m 2.9581228,4.1644119 c -0.381297,1.044903 -1.2110985,1.807264 -2.07224251,2.462921 -0.8368473,0.792338 -1.5521603,2.616307 -0.4418383,3.4261781 l 0.4196173,-0.04651 c 0.28548701,-0.3695881 0.0765,-0.6035061 0.06201,-0.7017721 C 0.39788113,6.9850697 3.6245555,5.4444838 2.9581208,4.1644109 Z"
       copytype="repeated_stretched"
       prop_scale="1.32"
       scale_y_rel="false"
       spacing="-0.2"
       normal_offset="-1.1"
       tang_offset="1.4"
       prop_units="false"
       vertical_pattern="false"
       hide_knot="false"
       fuse_tolerance="0" /><inkscape:path-effect
       effect="skeletal"
       id="path-effect5-6"
       is_visible="true"
       lpeversion="1"
       pattern="m 4.1744825,7.487046 -0.6773737,-0.4911363 -0.00453,0.00323 a 0.6775215,0.49126613 0 0 0 -0.062402,-0.00323 0.6775215,0.49126613 0 0 0 -0.6773737,0.4911363 0.6775215,0.49126613 0 0 0 0.6773737,0.4914596 0.6775215,0.49126613 0 0 0 0.063373,-0.00226 V 7.975919 l 0.00356,0.00258 z m -0.349195,0 -0.3640681,0.2641595 -0.00194,-0.00129 A 0.3640262,0.26395287 0 0 1 3.4253273,7.7512055 0.3640262,0.26395287 0 0 1 3.061259,7.487046 0.3640262,0.26395287 0 0 1 3.4253273,7.2232098 a 0.3640262,0.26395287 0 0 1 0.033626,0.00162 l 0.00226,-0.00162 z"
       copytype="repeated_stretched"
       prop_scale="1"
       scale_y_rel="false"
       spacing="1.9"
       normal_offset="-0.5"
       tang_offset="0"
       prop_units="false"
       vertical_pattern="false"
       hide_knot="false"
       fuse_tolerance="0" /><inkscape:path-effect
       effect="skeletal"
       id="path-effect7-9"
       is_visible="true"
       lpeversion="1"
       pattern="m 2.9581228,4.1644119 c -0.381297,1.044903 -1.2110985,1.807264 -2.07224251,2.462921 -0.8368473,0.792338 -1.5521603,2.616307 -0.4418383,3.4261781 l 0.4196173,-0.04651 c 0.28548701,-0.3695881 0.0765,-0.6035061 0.06201,-0.7017721 C 0.39788113,6.9850697 3.6245555,5.4444838 2.9581208,4.1644109 Z"
       copytype="repeated_stretched"
       prop_scale="1.32"
       scale_y_rel="false"
       spacing="-0.2"
       normal_offset="-1.1"
       tang_offset="1.4"
       prop_units="false"
       vertical_pattern="false"
       hide_knot="false"
       fuse_tolerance="0" /><inkscape:path-effect
       effect="skeletal"
       id="path-effect5-9"
       is_visible="true"
       lpeversion="1"
       pattern="m 4.1744825,7.487046 -0.6773737,-0.4911363 -0.00453,0.00323 a 0.6775215,0.49126613 0 0 0 -0.062402,-0.00323 0.6775215,0.49126613 0 0 0 -0.6773737,0.4911363 0.6775215,0.49126613 0 0 0 0.6773737,0.4914596 0.6775215,0.49126613 0 0 0 0.063373,-0.00226 V 7.975919 l 0.00356,0.00258 z m -0.349195,0 -0.3640681,0.2641595 -0.00194,-0.00129 A 0.3640262,0.26395287 0 0 1 3.4253273,7.7512055 0.3640262,0.26395287 0 0 1 3.061259,7.487046 0.3640262,0.26395287 0 0 1 3.4253273,7.2232098 a 0.3640262,0.26395287 0 0 1 0.033626,0.00162 l 0.00226,-0.00162 z"
       copytype="repeated_stretched"
       prop_scale="1"
       scale_y_rel="false"
       spacing="1.9"
       normal_offset="-0.5"
       tang_offset="0"
       prop_units="false"
       vertical_pattern="false"
       hide_knot="false"
       fuse_tolerance="0" /></defs><g
     inkscape:label="Layer 1"
     inkscape:groupmode="layer"
     id="layer1"><rect
       style="fill:#f9f9f9;stroke:#ceced0;stroke-width:0.529167;stroke-linecap:square;fill-opacity:1"
       id="rect6"
       width="287.86667"
       height="504.82498"
       x="-1.0583344"
       y="1.5875092"
       rx="0.84709692"
       ry="0.15709636"
       inkscape:export-filename="..\..\..\..\..\Desktop\rian rest logos.png"
       inkscape:export-xdpi="96"
       inkscape:export-ydpi="96" /><rect
       style="fill:#fac10e;fill-opacity:1;stroke:none;stroke-width:2.00165;stroke-linecap:square;stroke-dasharray:none;stroke-opacity:1"
       id="rect24-7"
       width="0"
       height="0"
       x="147.69147"
       y="415.97928"
       rx="0"
       ry="0" /><rect
       style="fill:#fac10e;fill-opacity:1;stroke:none;stroke-width:5.75788;stroke-linecap:square;stroke-dasharray:none;stroke-opacity:1"
       id="rect24-4"
       width="0"
       height="0"
       x="156.7299"
       y="225.18443"
       rx="0"
       ry="0" /><g
       id="g11"
       transform="translate(0,-11.22532)"><path
         id="rect21-1"
         style="fill:#ceced0;fill-opacity:1;stroke:none;stroke-width:6.06274;stroke-linecap:square;stroke-dasharray:none;stroke-opacity:1"
         d="m 146.36816,151.47604 c -4.09624,12.85199 -14.69351,21.83234 -24.43677,30.42743 -7.19911,8.81307 -12.70087,21.95448 -7.1262,32.89982 -8.26143,3.67733 -11.29454,13.08855 -10.42034,21.50755 0,3.94387 0,7.88774 0,11.83161 -9.373045,-1.03734 -17.887897,-6.53321 -22.715165,-14.67417 -7.338293,-10.358 -8.86284,-24.24006 -18.154436,-33.19627 -10.839457,-5.75971 3.301628,7.763 3.381461,13.18565 4.36751,10.34992 3.173054,22.69717 10.965022,31.56514 5.914147,7.96815 16.005374,16.15208 26.523118,12.49796 0.41343,9.27978 -2.07529,20.25872 5.78882,27.25233 11.45117,4.33968 -2.82473,9.21582 -8.82616,10.16336 -13.73484,2.55005 -27.523042,-3.49419 -41.163067,-0.84611 -4.483422,1.26047 -7.525441,5.79216 -0.902138,3.55165 11.834221,-1.25083 23.125296,3.18485 34.15383,6.67856 11.604245,1.82835 26.872875,-0.3186 32.590745,-11.98357 0.58796,-4.52533 6.54497,-1.65711 9.85111,-2.45988 8.14247,0 16.28496,0 24.42741,0 5.37408,13.7746 -3.74627,27.46347 -11.91082,37.96396 -4.90292,5.47678 -13.47233,18.51521 -8.61849,22.3329 4.32396,-12.32089 14.60318,-20.93071 24.04252,-29.29762 7.19941,-8.81513 12.70071,-21.95858 7.12618,-32.90567 8.26143,-3.67734 11.29455,-13.08855 10.42034,-21.50756 0,-3.46232 0,-6.92463 0,-10.38695 11.37233,-1.84719 20.24926,8.10483 25.10036,17.235 5.66416,9.49035 7.44725,21.47352 15.76923,29.1908 10.83946,5.75972 -3.3016,-7.763 -3.38144,-13.18565 -4.3747,-10.31372 -3.13271,-22.66019 -10.96446,-31.46608 -5.93053,-7.91067 -16.13734,-15.76479 -26.52368,-11.99315 -0.4723,-9.46791 2.20652,-20.68549 -5.78882,-27.85623 -11.45119,-4.3397 2.82472,-9.21584 8.82617,-10.16338 13.73483,-2.55006 27.52302,3.49419 41.16307,0.84614 4.48343,-1.26047 7.52543,-5.79215 0.90214,-3.55164 -11.83425,1.25083 -23.12533,-3.18477 -34.15385,-6.67857 -11.60423,-1.82838 -26.87291,0.3186 -32.59073,11.98356 -0.58801,4.52533 -6.54496,1.65714 -9.85112,2.45988 -8.14247,0 -16.28494,0 -24.42741,0 -5.37408,-13.77458 3.74631,-27.46346 11.91086,-37.96396 4.47725,-6.72879 13.09314,-14.6848 9.01275,-23.45684 z" /><path
         id="path23-1"
         style="color:#000000;fill:#d2bb89;fill-opacity:1;stroke:#bf9950;stroke-width:2.76787;stroke-linecap:square;stroke-dasharray:none;stroke-opacity:0.639216"
         inkscape:transform-center-x="0.37857164"
         inkscape:transform-center-y="5.367088"
         d="m 162.41786,155.20897 c -4.14888,11.36953 -13.1783,19.66873 -22.54838,26.8029 -8.02562,7.22051 -11.36581,18.63374 -9.41723,29.13828 -8.516,-0.1568 -18.47087,-0.62449 -24.20803,7.01698 -6.313161,-7.04144 -6.861168,-16.78526 -6.892636,-25.73251 -1.854101,-7.37327 -3.29465,-20.44966 -10.174068,-23.06196 4.974558,10.78491 4.719541,22.83848 3.038164,34.31723 -1.093479,10.27804 5.099841,19.59613 11.13094,26.66234 v 22.9268 c -12.526409,2.84648 -24.362953,-3.90456 -32.42514,-13.0014 -6.532055,-3.91356 -16.787654,-12.08524 -23.510647,-9.1199 11.433068,4.13468 19.685171,13.24484 26.883988,22.60784 6.948827,8.58734 19.715452,10.5036 29.051799,9.89837 0.30749,7.7262 -1.83312,17.18644 5.71412,22.33215 0.7028,5.66686 -13.900014,8.62018 -20.531945,7.92519 -8.80542,1.03804 -23.150848,3.00005 -26.965084,10.45517 10.794368,-4.97342 22.854276,-4.69131 34.338855,-3.01654 10.258554,1.07874 19.607524,-5.06939 26.624504,-11.14174 h 22.95924 c 2.84812,12.52638 -3.90854,24.35749 -13.0014,32.41973 -3.91241,6.53758 -12.08929,16.78543 -9.11991,23.52146 4.1428,-11.3664 13.15654,-19.67427 22.52676,-26.8029 8.02561,-7.22053 11.36578,-18.63374 9.41724,-29.13829 8.51932,0.15788 18.47989,0.62282 24.21342,-7.02779 6.31227,7.03904 6.84229,16.78504 6.88182,25.7271 1.85367,7.38802 3.33027,20.41674 10.17949,23.07818 -4.97361,-10.78768 -4.6989,-22.84362 -3.02195,-34.32264 1.09484,-10.28683 -5.10489,-19.61212 -11.14714,-26.67855 v -22.90519 c 12.52637,-2.84647 24.36297,3.90455 32.42512,13.00141 6.53208,3.91356 16.78763,12.0852 23.51065,9.11992 -11.36399,-4.14154 -19.6581,-13.1624 -26.78669,-22.52677 -7.22319,-8.02788 -18.64277,-11.35854 -29.14908,-9.40642 -0.37169,-7.90339 1.98036,-17.60396 -5.71955,-22.9106 -0.70705,-5.66999 13.90196,-8.63347 20.53735,-7.93599 8.7944,-1.03572 23.19366,-2.98238 26.96508,-10.43896 -10.79427,4.9734 -22.85436,4.69137 -34.33885,3.01654 -10.26181,-1.0843 -19.60318,5.08305 -26.6245,11.14174 h -22.9322 c -2.85009,-12.52896 3.8945,-24.37319 12.99599,-32.43594 3.65428,-6.18439 12.3801,-17.24313 9.1199,-23.50524 z"
         sodipodi:nodetypes="ccccccccccccccccccccccccccccccccccccccccc" /><rect
         style="fill:#0242be;fill-opacity:1;stroke:#ceced0;stroke-width:5.95593;stroke-linecap:square;stroke-dasharray:none;stroke-opacity:1"
         id="rect23-6"
         width="62.042641"
         height="61.146484"
         x="111.85368"
         y="220.25175"
         rx="10.667745"
         ry="10.718897" /><path
         id="path30-9"
         style="fill:#e3e5e4;fill-opacity:1;stroke:none;stroke-width:0.43623;stroke-dasharray:none;stroke-opacity:1"
         d="m 142.87463,225.91651 a 2.5531102,2.4653842 0 0 0 -2.55177,2.46231 2.5531102,2.4653842 0 0 0 0.008,0.23001 l -0.008,0.0134 2.55177,2.46658 2.55178,-2.46658 -0.0171,-0.0134 a 2.5531102,2.4653842 0 0 0 0.0171,-0.23001 2.5531102,2.4653842 0 0 0 -2.55178,-2.46231 z m 0,1.12036 a 1.3717631,1.3246288 0 0 1 1.37174,1.32489 1.3717631,1.3246288 0 0 1 -0.008,0.12356 l 0.008,0.008 -1.37174,1.32492 -1.37173,-1.32488 0.008,-0.008 a 1.3717631,1.3246288 0 0 1 -0.008,-0.12356 1.3717631,1.3246288 0 0 1 1.37173,-1.32488 z m -7.02484,1.09908 c -2.44937,0.0608 -4.63226,0.86957 -4.79257,1.64439 -0.29589,0.90627 0.646,1.82206 2.10021,2.04908 1.45437,0.22673 2.86976,-0.32057 3.16523,-1.22689 0.0159,-1.04498 -1.7608,-1.60751 0.2514,-1.19708 1.96468,0.4007 6.00291,2.09389 3.15245,4.63495 l 0.60066,0.38345 -0.004,0.008 2.55177,2.46232 2.55178,-2.46232 -0.008,-0.008 0.60066,-0.38343 c -2.85053,-2.5411 1.18347,-4.23423 3.14816,-4.63496 2.01216,-0.41041 0.24436,0.15209 0.25979,1.19708 0.2954,0.90627 1.71085,1.45359 3.16523,1.22689 1.45427,-0.22697 2.39617,-1.14285 2.1002,-2.04909 -0.33897,-1.63804 -9.71107,-3.40452 -11.56177,1.99797 -0.17166,-0.0146 -0.34392,-0.0105 -0.51544,0.004 -0.91515,-2.6809 -3.67823,-3.60282 -6.27507,-3.64661 -0.1652,-0.003 -0.32664,-0.004 -0.48991,0 z m -3.46769,6.50086 v 0.008 c -0.90908,0 -1.92214,0.0414 -3.03742,0.12777 l -4.73293,0.34074 c -1.88569,0.13277 -2.21713,0.24958 -2.22375,0.78813 0,0.10098 0.39692,0.23693 0.8861,0.29396 0.48881,0.0571 1.08365,0.24898 1.31636,0.42171 0.84465,0.62669 0.86216,0.88817 0.81365,11.66832 -2.15876,1.49525 -3.58983,-1.97512 -3.95335,-3.75735 -0.41042,-2.01214 0.15207,-0.23584 1.19709,-0.2514 0.90628,-0.29553 1.45359,-1.71086 1.22689,-3.16523 -0.19864,-1.27243 -0.92281,-2.15367 -1.70828,-2.15559 -0.11218,-2.8e-4 -0.22754,0.0183 -0.3408,0.0559 -0.77477,0.16034 -1.58338,2.3432 -1.64439,4.79257 -0.004,0.16327 -0.003,0.32471 0,0.48992 0.0439,2.59684 0.9657,5.35988 3.64662,6.27506 -0.0146,0.17158 -0.0183,0.34388 -0.004,0.51547 -5.40248,1.85065 -3.63599,11.22279 -1.99796,11.56172 0.84024,0.2743 1.68087,-0.52218 1.98093,-1.79773 0.97387,0.0294 2.39378,0.0435 4.01298,0.0337 l 5.00557,-0.0424 v -0.41336 c 0,-0.36582 -0.10948,-0.43034 -0.95005,-0.59639 -1.26385,-0.25192 -1.79451,-0.62815 -2.01074,-1.40983 -0.11421,-0.41213 -0.18004,-4.43492 -0.1832,-11.36583 v -10.73104 l 0.60918,-0.11909 c 0.33285,-0.0632 1.15574,-0.0717 1.82756,-0.0208 3.56855,0.2655 5.61996,2.16455 5.62328,5.21432 0.003,1.81919 -0.40044,2.84055 -1.61456,4.14078 -1.05446,1.12753 -2.14969,1.81954 -3.38675,2.13856 l -1.40155,0.36214 c -0.76831,0.19937 -0.80429,0.39533 -0.13197,0.74132 0.71834,0.37247 1.1048,0.83491 1.98945,2.38137 0.42559,0.74837 1.09751,1.89241 1.48676,2.54752 0.39242,0.65167 0.7632,1.32659 0.82641,1.49954 0.17068,0.45563 1.5677,2.40249 2.78182,3.87238 0.56322,0.68082 1.16947,1.3322 1.81905,1.95965 -0.59847,0.52566 -1.16559,1.00496 -1.61456,1.32067 -1.70609,1.21053 -3.97732,2.27378 -5.67015,2.64975 -2.86015,0.63164 -6.60144,0.35222 -8.56699,-0.63904 -0.85462,-0.42903 -1.1589,-0.40618 -0.85631,0.0675 0.30027,0.48203 3.17568,1.8978 4.56253,2.25355 1.0377,0.26572 1.83544,0.33644 3.6381,0.31947 1.26723,-0.0103 2.71844,-0.087 3.2206,-0.17029 1.27389,-0.20728 3.58143,-1.00714 5.32082,-1.83183 0.88464,-0.42228 1.81284,-0.98983 2.73071,-1.64865 0.91783,0.65873 1.84525,1.22625 2.72643,1.64865 1.74276,0.82456 4.05465,1.62254 5.32507,1.83183 0.50564,0.087 1.95031,0.16267 3.22064,0.17029 1.8025,0.0174 2.59706,-0.0533 3.63808,-0.31947 1.3867,-0.35265 4.25986,-1.77127 4.56253,-2.25355 0.30021,-0.47549 0.002,-0.49878 -0.85622,-0.0675 -1.96216,0.99136 -5.71009,1.27068 -8.56699,0.63904 -1.69295,-0.37583 -3.96501,-1.43924 -5.67449,-2.64979 a 19.954754,19.954754 0 0 1 -1.61034,-1.32062 c 0.64964,-0.6274 1.25582,-1.27895 1.81904,-1.95963 1.21069,-1.46996 2.61201,-3.41764 2.78182,-3.87665 0.0657,-0.16463 0.43315,-0.84017 0.82228,-1.49528 0.39237,-0.65167 1.06546,-1.79945 1.49103,-2.54752 0.88462,-1.54641 1.27111,-2.00464 1.98944,-2.37711 0.66819,-0.34587 0.63261,-0.54596 -0.13145,-0.74558 l -1.40164,-0.36213 c -1.24094,-0.31925 -2.33402,-1.01133 -3.39163,-2.13856 -1.21385,-1.30043 -1.6138,-2.32486 -1.6103,-4.14078 0,-3.04985 2.05486,-4.95161 5.62329,-5.21432 0.66819,-0.0498 1.4915,-0.0341 1.82756,0.0255 l 0.60498,0.11542 v 10.72687 c 0,6.93093 -0.0653,10.95343 -0.1791,11.36583 -0.21523,0.78158 -0.75013,1.15634 -2.01076,1.40583 -0.84131,0.16713 -0.95001,0.24025 -0.95001,0.60073 v 0.41337 l 5.00557,0.0424 c 1.61646,0.0131 3.03469,-0.004 4.00872,-0.0337 0.29901,1.27854 1.14401,2.07676 1.98518,1.80202 1.63805,-0.33894 3.40452,-9.7111 -1.99795,-11.5618 0.0152,-0.17161 0.0103,-0.34389 -0.004,-0.51545 2.68091,-0.91515 3.60282,-3.67823 3.6466,-6.27507 0.003,-0.16521 0.004,-0.32665 0,-0.48991 -0.062,-2.44937 -0.8695,-4.63227 -1.64439,-4.79258 -0.1124,-0.0365 -0.22871,-0.0559 -0.3409,-0.0559 -0.78538,0.002 -1.50964,0.88318 -1.70827,2.15559 -0.22676,1.45437 0.32066,2.86976 1.22691,3.16523 1.04512,0.0159 1.60752,-1.76079 1.19712,0.25127 -0.36364,1.78264 -1.79373,5.25526 -3.95332,3.75738 -0.049,-10.78222 -0.0327,-11.04561 0.81367,-11.67258 0.23394,-0.17383 0.82739,-0.36506 1.31633,-0.42171 0.48856,-0.0571 0.88604,-0.18953 0.88604,-0.29396 -0.0104,-0.53878 -0.3421,-0.655 -2.22802,-0.78813 l -4.73277,-0.34152 c -4.48353,-0.33273 -7.09607,-0.0486 -9.32102,1.00535 -1.60303,0.75821 -2.29221,1.38691 -2.93093,2.68385 -0.52201,1.06432 -0.56711,1.26374 -0.55386,2.76052 0.0134,2.02195 0.37444,2.90811 1.7381,4.2984 1.22393,1.24732 2.15646,1.8376 3.81276,2.41972 l 1.30787,0.45977 -0.86908,0.9543 a 33.257919,33.257919 0 0 0 -2.28756,3.10641 c -0.77815,1.18408 -1.78218,2.61068 -2.22802,3.16948 l -1.55066,1.96389 c -0.177,0.22517 -0.398,0.48028 -0.64759,0.74975 a 16.62896,16.62896 0 0 1 -0.64321,-0.74542 l -1.55472,-1.96494 a 59.864259,59.864259 0 0 1 -2.21948,-3.17375 33.257919,33.257919 0 0 0 -2.28766,-3.10558 l -0.8776,-0.95431 1.31635,-0.46013 a 8.6470593,8.6470593 0 0 0 3.80425,-2.41971 c 1.36685,-1.39026 1.73259,-2.27642 1.74236,-4.2984 0.01,-1.49647 -0.0316,-1.69626 -0.55386,-2.76052 -0.63871,-1.29696 -1.32792,-1.92565 -2.93092,-2.68385 -1.66943,-0.7914 -3.55643,-1.14759 -6.28359,-1.13738 z m -11.95799,13.64071 a 2.4653842,2.5531102 0 0 0 -2.46232,2.55178 2.4653842,2.5531102 0 0 0 2.46232,2.55178 2.4653842,2.5531102 0 0 0 0.23003,-0.0172 l 0.0127,0.0172 2.46662,-2.55178 -2.46658,-2.55178 -0.0127,0.008 a 2.4653842,2.5531102 0 0 0 -0.23005,-0.008 z m 44.65823,0 -2.46659,2.55178 2.46659,2.55178 0.0131,-0.0172 a 2.4653842,2.5531102 0 0 0 0.23024,0.0172 2.4653842,2.5531102 0 0 0 2.4623,-2.55178 2.4653842,2.5531102 0 0 0 -2.4623,-2.55178 2.4653842,2.5531102 0 0 0 -0.23024,0.008 z m -44.67527,1.18006 a 1.3246288,1.3717631 0 0 1 0.12356,0.008 l 0.008,-0.008 1.32488,1.37174 -1.32488,1.37174 -0.008,-0.008 a 1.3246288,1.3717631 0 0 1 -0.12356,0.008 1.3246288,1.3717631 0 0 1 -1.32487,-1.37174 1.3246288,1.3717631 0 0 1 1.32488,-1.37174 z m 44.80307,0 0.008,0.008 a 1.3246288,1.3717631 0 0 1 0.12328,-0.008 1.3246288,1.3717631 0 0 1 1.32487,1.37174 1.3246288,1.3717631 0 0 1 -1.32487,1.37174 1.3246288,1.3717631 0 0 1 -0.12328,-0.008 l -0.008,0.008 -1.32488,-1.37174 z m -40.86252,3.52733 c 0.32118,-0.005 0.66595,0.11909 1.03089,0.36636 l -0.0255,5.39748 -0.54098,0.48571 a 2.8269234,2.8269234 0 0 1 -0.89886,0.48572 c -0.045,-1.13076 -0.53308,-2.10009 -1.26527,-2.33878 -1.04501,-0.0163 -1.6075,1.75225 -1.19709,-0.25985 0.30055,-1.47351 1.32984,-4.11243 2.89684,-4.13653 z m 37.05402,0 c 1.567,0.0241 2.5963,2.663 2.89685,4.13652 0.41054,2.01215 -0.15233,0.2444 -1.19712,0.25984 -0.7312,0.23845 -1.21947,1.20565 -1.26526,2.33452 a 2.8269234,2.8269234 0 0 1 -0.89898,-0.48573 l -0.54535,-0.48569 -0.0261,-5.39324 c 0.36647,-0.24928 0.71281,-0.37132 1.03521,-0.36636 z m -18.52701,11.7748 -2.55177,2.46234 0.004,0.004 -0.60066,0.38345 c 2.85046,2.54105 -1.18784,4.2342 -3.15244,4.63492 -2.01214,0.41053 -0.23585,-0.15212 -0.25128,-1.19711 -0.29552,-0.90639 -1.71086,-1.4536 -3.16522,-1.22693 -1.45421,0.22709 -2.39615,1.14278 -2.10022,2.04908 0.16034,0.77472 2.3432,1.58338 4.79257,1.64439 0.16327,0.004 0.32471,0.003 0.48992,0 2.59685,-0.0424 5.3599,-0.96568 6.27507,-3.64663 0.17153,0.0152 0.3439,0.0174 0.51544,0.004 1.85071,5.40246 11.22282,3.63601 11.56181,1.99796 0.29585,-0.90627 -0.64589,-1.82206 -2.10023,-2.04908 -1.45437,-0.22676 -2.86975,0.32066 -3.16521,1.22693 -0.0159,1.045 1.75226,1.60752 -0.25978,1.19711 -1.96473,-0.40075 -5.99874,-2.09393 -3.14823,-4.635 l -0.60067,-0.38344 0.008,-0.004 z m 0,5.80647 -2.55177,2.46659 0.008,0.008 a 2.5531102,2.4653842 0 0 0 -0.008,0.23024 2.5531102,2.4653842 0 0 0 2.55177,2.46229 2.5531102,2.4653842 0 0 0 2.55178,-2.46229 2.5531102,2.4653842 0 0 0 -0.0171,-0.23024 l 0.0171,-0.008 z m 0,1.26946 1.37174,1.32487 -0.008,0.004 a 1.3717631,1.3246288 0 0 1 0.008,0.12328 1.3717631,1.3246288 0 0 1 -1.37174,1.32487 1.3717631,1.3246288 0 0 1 -1.37173,-1.32487 1.3717631,1.3246288 0 0 1 0.008,-0.12328 l -0.008,-0.004 z" /></g><path
       id="path12-9"
       style="fill:#0242be;fill-opacity:1;stroke-width:0.692359"
       inkscape:transform-center-x="0.57527868"
       inkscape:transform-center-y="-7.8547747"
       d="m 94.898693,66.946378 c -0.80944,0.0033 -1.70145,0.04871 -2.69837,0.119059 -1.369837,0.100922 -3.262122,0.236718 -4.205928,0.302164 -1.6777,0.116958 -1.972071,0.219303 -1.978824,0.69797 -0.0011,0.09195 0.352986,0.210951 0.78799,0.262474 0.434456,0.04871 0.96052,0.219313 1.169249,0.37387 0.756454,0.561168 0.768987,0.744622 0.723178,10.556171 l -0.04181,9.120537 -0.481798,0.431654 c -0.265955,0.238119 -0.742739,0.472746 -1.057776,0.524958 -0.315397,0.05572 -0.660721,0.125321 -0.766338,0.158049 -0.296603,0.09326 -0.405209,0.53261 -0.169192,0.683697 0.115578,0.07454 2.213659,0.117658 4.662865,0.09753 l 4.454124,-0.03481 v -0.366909 c 0,-0.323048 -0.0974,-0.382923 -0.8455,-0.53262 -1.11975,-0.223484 -1.59534,-0.554195 -1.78814,-1.248476 -0.10234,-0.36622 -0.15803,-3.946856 -0.15803,-10.109944 v -9.541544 l 0.53958,-0.100922 c 0.29728,-0.05572 1.02734,-0.06272 1.62269,-0.02091 3.17369,0.234627 4.99705,1.924927 5.00102,4.634034 0.002,1.617541 -0.35091,2.528217 -1.43194,3.684232 -0.93809,1.002717 -1.91491,1.619994 -3.01501,1.903221 -0.37388,0.0961 -0.93351,0.239498 -1.24487,0.320257 -0.68299,0.176843 -0.71537,0.353686 -0.11906,0.662122 0.63845,0.33001 0.98037,0.737376 1.76655,2.111939 0.38083,0.665591 0.9766,1.685505 1.32401,2.266637 0.34743,0.581352 0.67744,1.177536 0.73398,1.327649 0.15246,0.405898 1.39447,2.139434 2.471747,3.446745 1.83358,2.224945 4.30854,4.230992 6.50494,5.274493 1.54723,0.735088 3.60026,1.441968 4.73122,1.629812 0.44698,0.07378 1.73563,0.145505 2.86388,0.154557 1.60216,0.0139 2.3114,-0.04871 3.23447,-0.284059 1.23504,-0.316087 3.78971,-1.578004 4.05839,-2.004022 0.26805,-0.424703 -0.002,-0.447679 -0.76272,-0.06272 -1.74719,0.879969 -5.076,1.126779 -7.61668,0.564637 -1.5056,-0.33279 -3.52634,-1.272776 -5.04425,-2.349422 -1.24598,-0.883789 -3.53232,-3.055263 -4.46492,-4.238293 -0.36483,-0.462303 -0.98628,-1.246878 -1.3816,-1.744963 -0.39545,-0.497801 -1.28363,-1.768837 -1.9752,-2.820701 -0.691357,-1.051865 -1.605777,-2.292547 -2.032787,-2.759579 l -0.77713,-0.849123 1.1657,-0.41007 c 1.470297,-0.516606 2.298047,-1.04094 3.385557,-2.147939 1.21498,-1.236578 1.53435,-2.02791 1.54709,-3.824538 0.007,-1.332093 -0.0279,-1.511508 -0.48945,-2.453716 -0.56882,-1.155884 -1.18219,-1.714468 -2.60842,-2.38897 -1.484007,-0.701867 -3.162617,-1.020395 -5.591137,-1.010992 z m 13.693507,1.7845 c -0.48458,0.0055 -0.96916,0.100266 -1.38515,0.298683 -0.84035,0.400338 -1.46911,1.627098 -1.31685,2.565266 0.1309,0.806434 0.54724,1.288714 1.49668,1.737783 1.27474,0.602937 3.10386,0.130892 3.65904,-0.942689 0.33418,-0.646798 0.35856,-1.946665 0.0487,-2.55085 -0.36274,-0.702983 -1.4343,-1.121065 -2.50051,-1.108193 z m 86.32715,1.989618 c -0.44629,0 -0.52844,0.09403 -0.97863,1.086607 -0.56951,1.255372 -1.56992,2.273194 -3.13372,3.187686 -0.79809,0.466477 -1.02178,0.677439 -1.02178,0.975006 0,0.361337 0.0557,0.381532 1.04698,0.381532 h 1.04337 l -0.003,5.047803 c -9.8e-4,2.775034 0.0487,5.179591 0.11139,5.346408 0.43793,1.182899 1.28365,1.927028 2.46813,2.165979 h 0.003 c 0.88832,0.178923 1.29297,0.162909 2.39621,-0.09753 1.75283,-0.412871 3.08966,-1.310726 2.85671,-1.917625 -0.0626,-0.163621 -0.28128,-0.137854 -1.01824,0.111397 -1.11919,0.378052 -2.18679,0.309815 -2.66238,-0.1657 -0.50338,-0.503384 -0.5932,-1.406109 -0.60085,-6.105589 l -0.007,-4.385822 h 2.00756 c 1.99004,0 2.00779,-0.0022 2.10478,-0.388506 0.23393,-0.930925 0.15874,-0.970473 -2.02199,-1.057778 l -2.01119,-0.07936 -0.0487,-2.05075 -0.0418,-2.054428 z m -38.89652,0.126021 c -1.47574,0.02091 -2.96149,0.16431 -4.38576,0.258992 -1.30704,0.358558 -3.4038,-0.3314 -4.20955,0.859916 1.25684,0.277097 2.90669,0.740298 2.61929,2.446546 0.16153,5.952983 0.0139,11.908316 0.0209,17.863375 -0.52635,1.061683 -2.69301,0.646097 -2.47536,1.80254 3.03165,0.202599 6.07864,0.05571 9.11704,0.06261 0.0884,-1.507611 -2.83129,-0.591795 -2.66961,-2.435754 -0.20748,-6.420624 -0.0919,-12.846831 -0.12254,-19.270173 0.8526,-0.468565 2.27562,-0.194248 3.28843,-0.06261 2.07023,0.303553 3.89985,2.062572 3.87131,4.227503 0.25065,2.069128 -1.03355,3.927361 -2.68766,5.033386 -0.84237,0.96052 -3.06612,0.627303 -3.44674,1.575848 1.71814,0.858033 2.24513,2.875913 3.27771,4.353456 0.97521,1.866869 2.13714,3.627353 3.52229,5.220464 2.81318,3.382985 6.72982,5.833219 11.05981,6.695642 5.92658,0.437226 11.74928,-1.643593 16.60778,-4.770771 -9.17713,3.585157 -17.59351,5.155576 -24.33954,-3.450313 -2.27007,-2.565321 -3.79251,-5.699263 -6.16679,-8.174356 0.80039,-0.290331 1.6211,-0.53331 2.38542,-0.913869 1.782,-1.002914 3.65319,-2.633065 3.69496,-4.839139 0.26039,-1.814098 -0.40173,-3.804069 -1.95724,-4.853492 -2.10574,-1.382291 -4.54199,-1.6697 -7.00156,-1.629867 z m -45.31507,4.144726 c -0.0821,0 -0.67256,0.141334 -1.31322,0.31678 -0.64054,0.174752 -1.77442,0.431665 -2.51855,0.568129 -1.06008,0.194247 -1.36551,0.304254 -1.40311,0.511034 -0.0487,0.279878 -0.003,0.307725 0.92105,0.557676 1.02651,0.277798 1.07093,0.507554 1.02178,5.450713 l -0.0418,4.234746 -0.39964,0.363428 c -0.22,0.199819 -0.65863,0.407289 -0.97507,0.460213 -0.58692,0.0995 -0.78687,0.33001 -0.64052,0.73396 0.0696,0.192157 0.61338,0.225575 3.68778,0.222794 1.98287,-0.0011 3.69002,-0.05571 3.79577,-0.129501 0.39129,-0.262474 0.11349,-0.673944 -0.56463,-0.838254 -0.36135,-0.08779 -0.80902,-0.268746 -0.99666,-0.403119 l -0.34185,-0.244379 -0.0418,-5.904095 c -0.0278,-3.993497 -0.0891,-5.900552 -0.19077,-5.900552 z m 10.44817,1.104562 c -0.48388,4.26e-4 -0.99866,0.03481 -1.54347,0.107927 -2.98536,0.397547 -4.74383,1.628071 -4.42174,3.094186 0.1274,0.580651 0.58483,0.877878 1.3456,0.877878 1.17182,0 1.66217,-0.470655 1.66217,-1.597433 0,-0.875996 0.369,-1.107076 1.763,-1.111739 0.93775,-0.0033 1.22751,0.04871 1.56505,0.298683 0.65932,0.483188 0.928,1.168275 0.92821,2.367395 v 1.057775 l -0.47831,0.0717 c -0.26248,0.04181 -1.00216,0.147595 -1.64784,0.240888 -1.33174,0.193557 -3.06104,0.713776 -4.03673,1.216032 -0.8971,0.461603 -1.83805,1.641436 -2.02923,2.543746 -0.37666,1.776641 0.66698,3.475303 2.42135,3.946856 0.90084,0.242289 1.17836,0.249251 2.13352,0.04871 1.00055,-0.212341 1.67171,-0.559066 2.67686,-1.377967 0.44559,-0.36344 0.83624,-0.658642 0.87063,-0.658642 0.0348,0 0.1121,1.255022 0.1692,1.593811 0.21443,1.268606 1.38173,1.803514 3.00422,1.378044 1.76222,-0.462293 2.65695,-1.051723 2.35298,-1.543536 -0.08,-0.129502 -0.26457,-0.157349 -0.5723,-0.08976 -0.58832,0.129491 -1.00494,-0.0066 -1.23407,-0.406599 -0.12881,-0.225575 -0.20538,-2.515342 -0.259,-5.407619 -0.0717,-3.885438 -0.0912,-4.142285 -0.39963,-4.723987 -0.66839,-1.260867 -2.17252,-1.926601 -4.27068,-1.924861 z m 63.68222,0.741141 c -0.3133,0.0066 -0.63914,0.03481 -1.05415,0.08976 -2.75478,0.347425 -4.19041,1.572367 -4.19876,3.583493 -0.007,1.99902 0.86388,2.972412 4.11597,4.58725 2.83129,1.405967 3.27005,1.899105 2.71641,3.065421 -0.28337,0.597365 -0.77448,0.837356 -1.91045,0.942634 -0.75785,0.07027 -0.98489,0.02091 -1.83491,-0.395467 -1.0032,-0.49362 -1.6413,-1.144664 -2.12998,-2.169514 -0.2207,-0.462993 -0.33837,-0.558376 -0.65098,-0.521477 -0.33767,0.04181 -0.39058,0.12254 -0.43514,0.719555 -0.0278,0.37178 -0.004,1.229124 0.0487,1.903276 l 0.10092,1.226824 0.92828,0.169192 c 0.51034,0.09403 1.33154,0.230446 1.82767,0.305645 2.005,0.302853 4.28062,-0.151087 5.53711,-1.108193 1.40046,-1.066554 1.77936,-2.824039 0.95369,-4.418135 -0.48805,-0.941857 -1.11862,-1.384939 -3.93606,-2.763191 -2.24206,-1.096764 -2.77753,-1.531352 -2.77753,-2.255856 0,-0.981536 0.84898,-1.627918 2.13707,-1.626254 1.47754,0.0022 2.47308,0.593885 2.90711,1.730624 0.21861,0.5723 0.31887,0.672554 0.67255,0.672554 0.39964,0 0.42193,-0.03481 0.51452,-0.939001 0.0557,-0.516606 0.13019,-1.182822 0.17266,-1.478724 0.0557,-0.359948 0.005,-0.594575 -0.13645,-0.712386 -0.11697,-0.09676 -0.90705,-0.292411 -1.75576,-0.431655 -0.80512,-0.132282 -1.29095,-0.187986 -1.81333,-0.176153 z m -46.03107,1.727001 c -1.45685,0.0278 -3.07934,0.655149 -4.49019,1.842076 l -0.43861,0.370401 v -1.136947 c 0,-1.01559 -0.0278,-1.130676 -0.25901,-1.057776 -0.88838,0.279188 -2.69803,0.685087 -3.72378,0.834708 -0.79871,0.116968 -1.22773,0.24855 -1.28441,0.395456 -0.13088,0.341153 0.007,0.45185 0.71239,0.557675 0.41495,0.06272 0.77769,0.231157 1.00376,0.471356 0.35298,0.375261 0.35507,0.397547 0.40311,4.4182 0.0348,2.663496 -0.007,4.223812 -0.11487,4.590863 -0.1685,0.566728 -0.55421,0.862904 -1.3816,1.061398 -0.38989,0.09326 -0.5542,0.48945 -0.30565,0.737518 0.0557,0.05571 1.6754,0.08636 3.60146,0.06272 l 3.50433,-0.04181 v -0.356467 c 0,-0.293811 -0.11697,-0.392675 -0.66907,-0.554194 -1.10695,-0.32445 -1.11348,-0.347426 -1.13333,-4.788733 l -0.0209,-3.910931 0.35647,-0.421223 c 0.47901,-0.56952 1.76376,-1.190901 2.46459,-1.190901 1.25063,0 2.13769,0.717257 2.3206,1.874531 0.0626,0.400328 0.0953,2.300067 0.0717,4.220265 l -0.0418,4.410954 -0.44977,0.41008 c -0.24855,0.224885 -0.57856,0.4066 -0.73041,0.4066 -0.42331,0 -0.69136,0.391285 -0.46021,0.669083 0.27779,0.334881 7.22811,1.025748 7.22811,0 0.12045,-0.314007 -0.17127,-0.61408 -0.69797,-0.719632 -0.24577,-0.04871 -0.61058,-0.254811 -0.81312,-0.456721 l -0.36692,-0.37039 v -4.464994 c 0,-4.701778 -0.20399,-5.713471 -1.36363,-6.825133 -0.75479,-0.723453 -1.7884,-1.065022 -2.92144,-1.043371 z m 33.56083,0.323738 c -2.53043,0.02791 -5.07418,1.524534 -6.1775,3.727411 -0.89715,1.791189 -0.94513,4.509961 -0.1114,6.256665 0.83354,1.746562 2.88225,3.253198 4.89311,3.597898 1.6495,0.282669 3.68221,-0.216522 5.0838,-1.248476 1.43555,-1.056878 2.09446,-1.997969 1.71613,-2.453792 -0.15248,-0.183805 -0.25203,-0.165 -0.65863,0.140645 -0.26248,0.197027 -0.85115,0.552804 -1.30961,0.791536 -0.71405,0.371091 -1.00856,0.435146 -2.04719,0.435146 -1.02297,0 -1.34929,-0.06962 -2.08312,-0.428184 -1.40555,-0.689958 -2.36071,-2.070442 -2.50051,-3.612249 l -0.0794,-0.885113 h 4.10511 c 4.82515,0 4.50077,0.137164 4.38945,-1.881624 -0.14342,-2.603139 -1.63273,-4.080813 -4.43616,-4.400239 -0.2597,-0.02791 -0.52288,-0.04181 -0.78438,-0.04181 z m -0.4783,1.39594 c 0.53679,-0.0066 1.07616,0.0856 1.36726,0.280589 0.6259,0.419822 1.02895,1.397046 1.02895,2.493329 v 0.939078 h -2.59763 -2.59408 l 0.0899,-0.773585 c 0.10508,-0.887128 0.77971,-2.183307 1.36356,-2.619208 0.27223,-0.2033 0.80554,-0.312606 1.34206,-0.320268 z m -49.43465,2.198346 v 1.489518 1.485894 l -0.53957,0.597365 c -0.2973,0.32931 -0.78884,0.725959 -1.09378,0.881491 -0.69067,0.352296 -1.81723,0.364129 -2.36377,0.0278 -0.45533,-0.281969 -0.8455,-0.996161 -0.8455,-1.55064 0,-1.483869 1.58935,-2.68403 3.77774,-2.849522 z" /><g
       id="g10"
       transform="translate(11.225325)"><g
         id="g9"><rect
           style="fill:#0242be;fill-opacity:1;stroke:#ceced0;stroke-width:5.99703;stroke-linecap:square;stroke-dasharray:none;stroke-opacity:1"
           id="rect36"
           width="62.470776"
           height="61.568428"
           x="60.003136"
           y="394.10864"
           rx="10.741358"
           ry="10.792864" /><path
           id="path36"
           style="fill:#e3e5e4;fill-opacity:1;stroke:none;stroke-width:0.439241;stroke-dasharray:none;stroke-opacity:1"
           d="m 91.238157,399.8125 a 2.5707281,2.4823967 0 0 0 -2.56938,2.4793 2.5707281,2.4823967 0 0 0 0.009,0.2316 l -0.009,0.0135 2.56938,2.48361 2.56939,-2.48361 -0.0177,-0.0135 a 2.5707281,2.4823967 0 0 0 0.0177,-0.2316 2.5707281,2.4823967 0 0 0 -2.56939,-2.4793 z m 0,1.1281 a 1.381229,1.3337695 0 0 1 1.3812,1.33403 1.381229,1.3337695 0 0 1 -0.009,0.12441 l 0.009,0.009 -1.3812,1.33406 -1.3812,-1.33402 0.009,-0.009 a 1.381229,1.3337695 0 0 1 -0.009,-0.12442 1.381229,1.3337695 0 0 1 1.3812,-1.33401 z m -7.07332,1.10666 c -2.46627,0.0613 -4.66422,0.87558 -4.82565,1.65573 -0.29793,0.91254 0.65044,1.83464 2.11472,2.06323 1.4644,0.22829 2.88956,-0.32279 3.18707,-1.23536 0.0164,-1.0522 -1.77295,-1.6186 0.25319,-1.20534 1.97823,0.40346 6.04433,2.10834 3.1742,4.66694 l 0.60488,0.38608 -0.004,0.009 2.56938,2.47931 2.56939,-2.47931 -0.009,-0.009 0.60487,-0.38607 c -2.87019,-2.55863 1.1916,-4.26345 3.1699,-4.66694 2.02604,-0.41324 0.24609,0.15313 0.26151,1.20534 0.29739,0.91253 1.72265,1.46362 3.187073,1.23536 1.46431,-0.22854 2.4127,-1.15074 2.1147,-2.06323 -0.34131,-1.64935 -9.778093,-3.42801 -11.641553,2.01175 -0.17284,-0.0147 -0.34622,-0.0106 -0.51906,0.004 -0.9215,-2.69941 -3.70361,-3.62769 -6.31838,-3.67178 -0.16629,-0.003 -0.3289,-0.004 -0.49328,0 z m -3.49162,6.54572 v 0.009 c -0.91535,0 -1.9354,0.0416 -3.05837,0.12864 l -4.7656,0.3431 c -1.8987,0.13369 -2.23242,0.2513 -2.23909,0.79356 0,0.10163 0.3997,0.23857 0.89217,0.29599 0.49219,0.0576 1.09106,0.25069 1.32542,0.42462 0.85042,0.63101 0.86815,0.89429 0.81932,11.74883 -2.17368,1.50559 -3.61462,-1.98873 -3.98065,-3.78327 -0.4132,-2.02602 0.15306,-0.23747 1.20538,-0.25313 0.91249,-0.29757 1.46361,-1.72267 1.23538,-3.18707 -0.19998,-1.28121 -0.92913,-2.16853 -1.72006,-2.17046 -0.11322,-2.8e-4 -0.22918,0.0184 -0.34308,0.0563 -0.78017,0.16145 -1.59432,2.35937 -1.65575,4.82564 -0.004,0.1644 -0.003,0.32695 0,0.4933 0.0437,2.61476 0.97238,5.39687 3.67179,6.31837 -0.015,0.17275 -0.0191,0.34624 -0.004,0.51902 -5.43975,1.86342 -3.66109,11.30023 -2.01174,11.64151 0.84605,0.27624 1.69246,-0.52575 1.99459,-1.81014 0.98057,0.03 2.41029,0.0436 4.04067,0.0341 l 5.04012,-0.0428 v -0.41618 c 0,-0.36833 -0.1105,-0.43332 -0.95656,-0.60052 -1.27249,-0.25431 -1.80689,-0.63315 -2.02461,-1.42017 -0.11459,-0.41501 -0.1813,-4.46552 -0.18443,-11.44427 V 410.2924 l 0.61333,-0.11991 c 0.33517,-0.0637 1.16376,-0.0722 1.84016,-0.0209 3.59318,0.26734 5.65874,2.17949 5.66209,5.25031 0.003,1.83174 -0.40325,2.86015 -1.62571,4.16935 -1.06173,1.13531 -2.16452,1.8321 -3.41011,2.15332 l -1.41123,0.36464 c -0.77361,0.20075 -0.80976,0.39806 -0.13232,0.74643 0.72328,0.37505 1.11248,0.84068 2.00317,2.3978 0.42848,0.75354 1.10511,1.90547 1.49702,2.5651 0.39506,0.65616 0.76843,1.33575 0.83214,1.50989 0.17188,0.45877 1.57853,2.41908 2.80102,3.89911 0.56709,0.68543 1.17755,1.34144 1.8316,1.97316 -0.60255,0.5293 -1.17359,1.01194 -1.6257,1.32979 -1.71785,1.21888 -4.00477,2.28946 -5.70926,2.66803 -2.87991,0.63597 -6.64701,0.35468 -8.62612,-0.64348 -0.86052,-0.43203 -1.16691,-0.40897 -0.86215,0.0682 0.30229,0.48537 3.19758,1.9109 4.59401,2.2691 1.04481,0.26751 1.8481,0.33872 3.66321,0.32167 1.27604,-0.0104 2.73719,-0.0873 3.24282,-0.17148 1.28272,-0.20871 3.60614,-1.01412 5.35753,-1.84446 0.89079,-0.42521 1.82536,-0.99665 2.74955,-1.66003 0.92422,0.66325 1.85799,1.2347 2.74525,1.66003 1.75479,0.83024 4.08263,1.63373 5.36182,1.84446 0.5091,0.0873 1.963753,0.16384 3.242853,0.17148 1.81494,0.0177 2.61498,-0.0532 3.66319,-0.32167 1.39626,-0.35509 4.28925,-1.7835 4.59402,-2.2691 0.3023,-0.47882 0.002,-0.50228 -0.86216,-0.0682 -1.9757,0.99816 -5.74949,1.27945 -8.6261,0.64348 -1.704633,-0.37842 -3.992383,-1.44918 -5.713643,-2.66807 a 20.092453,20.092453 0 0 1 -1.62145,-1.32979 c 0.65412,-0.63175 1.26445,-1.28777 1.8316,-1.97315 1.21902,-1.4801 2.63004,-3.44122 2.80101,-3.90341 0.0668,-0.16575 0.43613,-0.84597 0.82791,-1.5056 0.39507,-0.65616 1.072783,-1.81186 1.501323,-2.56509 0.8908,-1.55709 1.27986,-2.01847 2.00317,-2.39352 0.6728,-0.34824 0.63693,-0.54972 -0.13233,-0.75071 l -1.41133,-0.36465 c -1.24944,-0.32145 -2.350133,-1.0183 -3.415043,-2.15331 -1.22229,-1.3094 -1.62494,-2.3409 -1.62141,-4.16935 0,-3.0709 2.06905,-4.98578 5.662093,-5.2503 0.67281,-0.0502 1.5018,-0.0342 1.84018,0.0256 l 0.6091,0.11623 v 10.80088 c 0,6.97876 -0.0655,11.02903 -0.18034,11.44427 -0.21677,0.78704 -0.75534,1.16428 -2.02463,1.41551 -0.84714,0.16831 -0.95655,0.24187 -0.95655,0.60481 v 0.41618 l 5.04011,0.0428 c 1.62761,0.0135 3.05563,-0.004 4.03639,-0.0341 0.30107,1.28736 1.1519,2.09108 1.99888,1.81444 1.64936,-0.34131 3.42801,-9.77803 -2.01175,-11.64151 0.015,-0.17279 0.0104,-0.34626 -0.004,-0.51901 2.69941,-0.92146 3.62769,-3.70361 3.67176,-6.31837 0.003,-0.16634 0.004,-0.3289 0,-0.49329 -0.0627,-2.46627 -0.87552,-4.66423 -1.65573,-4.82565 -0.11322,-0.0367 -0.23027,-0.0563 -0.34322,-0.0563 -0.79081,0.002 -1.52007,0.88928 -1.72007,2.17047 -0.22836,1.4644 0.3229,2.88956 1.23539,3.18707 1.05232,0.016 1.61861,-1.77294 1.20538,0.25301 -0.36614,1.79493 -1.80624,5.29152 -3.98073,3.78331 -0.0491,-10.85663 -0.0327,-11.12184 0.81931,-11.75313 0.2356,-0.17504 0.8331,-0.36759 1.32543,-0.42463 0.49191,-0.0576 0.89216,-0.19083 0.89216,-0.29598 -0.0104,-0.5425 -0.34445,-0.65952 -2.2434,-0.79356 l -4.7654,-0.34377 c -4.51444,-0.33504 -7.145003,-0.049 -9.385303,1.01228 -1.61409,0.76344 -2.30804,1.39648 -2.95117,2.70237 -0.52561,1.07166 -0.57104,1.27246 -0.55767,2.77956 0.0135,2.03591 0.37706,2.92818 1.7501,4.32807 1.23239,1.25593 2.17134,1.85028 3.83908,2.43641 l 1.31683,0.46294 -0.87512,0.96089 a 33.487417,33.487417 0 0 0 -2.30333,3.12785 c -0.78358,1.19225 -1.79448,2.6287 -2.2434,3.19136 l -1.56135,1.97743 c -0.17816,0.22677 -0.4008,0.4836 -0.65208,0.75495 a 16.743708,16.743708 0 0 1 -0.6477,-0.75062 l -1.56601,-1.97847 a 60.277357,60.277357 0 0 1 -2.2348,-3.19565 33.487417,33.487417 0 0 0 -2.30344,-3.12702 l -0.8837,-0.96089 1.32542,-0.46331 a 8.7067288,8.7067288 0 0 0 3.83049,-2.43641 c 1.37628,-1.39984 1.74454,-2.29212 1.75439,-4.32806 0.0101,-1.50679 -0.0314,-1.70796 -0.55767,-2.77957 -0.64307,-1.30591 -1.33716,-1.93893 -2.95114,-2.70236 -1.68095,-0.79687 -3.58098,-1.15552 -6.32696,-1.14523 z m -12.04051,13.73484 a 2.4823967,2.5707281 0 0 0 -2.4793,2.56939 2.4823967,2.5707281 0 0 0 2.4793,2.56939 2.4823967,2.5707281 0 0 0 0.23164,-0.0173 l 0.0129,0.0173 2.48364,-2.56939 -2.4836,-2.56939 -0.0129,0.009 a 2.4823967,2.5707281 0 0 0 -0.23164,-0.009 z m 44.966413,0 -2.48362,2.56939 2.48362,2.56939 0.0135,-0.0173 a 2.4823967,2.5707281 0 0 0 0.23177,0.0173 2.4823967,2.5707281 0 0 0 2.47931,-2.56939 2.4823967,2.5707281 0 0 0 -2.47931,-2.56939 2.4823967,2.5707281 0 0 0 -0.23177,0.009 z m -44.983563,1.1882 a 1.3337695,1.381229 0 0 1 0.12414,0.009 l 0.009,-0.009 1.33402,1.38121 -1.33402,1.38121 -0.009,-0.009 a 1.3337695,1.381229 0 0 1 -0.12414,0.009 1.3337695,1.381229 0 0 1 -1.33402,-1.38121 1.3337695,1.381229 0 0 1 1.33403,-1.38121 z m 45.112243,0 0.008,0.009 a 1.3337695,1.381229 0 0 1 0.12414,-0.009 1.3337695,1.381229 0 0 1 1.33401,1.38121 1.3337695,1.381229 0 0 1 -1.33401,1.38121 1.3337695,1.381229 0 0 1 -0.12414,-0.009 l -0.008,0.009 -1.33402,-1.38121 z m -41.144503,3.55167 c 0.32345,-0.005 0.67049,0.11991 1.038,0.36888 l -0.0259,5.43474 -0.54471,0.48898 a 2.8464307,2.8464307 0 0 1 -0.90513,0.48901 c -0.045,-1.13847 -0.53679,-2.11454 -1.27399,-2.35489 -1.05218,-0.0158 -1.61858,1.76435 -1.20537,-0.26164 0.30257,-1.48367 1.33906,-4.14079 2.91682,-4.16506 z m 37.309703,0 c 1.57782,0.0243 2.61423,2.68139 2.91685,4.16507 0.41335,2.02603 -0.15333,0.24604 -1.20537,0.26163 -0.73624,0.24005 -1.22789,1.21397 -1.274,2.35063 a 2.8464307,2.8464307 0 0 1 -0.90512,-0.48899 l -0.54908,-0.489 -0.0259,-5.43045 c 0.369,-0.25101 0.71768,-0.37389 1.04235,-0.36889 z m -18.654843,11.85605 -2.56938,2.47933 0.004,0.004 -0.60487,0.38606 c 2.87013,2.55859 -1.19597,4.26343 -3.1742,4.66691 -2.02603,0.41334 -0.2375,-0.1532 -0.25305,-1.20538 -0.29752,-0.91263 -1.72267,-1.46363 -3.18707,-1.23539 -1.46424,0.22864 -2.41267,1.15068 -2.11471,2.06322 0.16138,0.78003 2.35937,1.59431 4.82565,1.65574 0.16438,0.004 0.32699,0.003 0.49328,0 2.61478,-0.0423 5.39688,-0.97238 6.31837,-3.67178 0.17271,0.015 0.34623,0.0177 0.51907,0.004 1.86347,5.43975 11.300263,3.66111 11.641593,2.01175 0.29793,-0.91249 -0.6503,-1.83462 -2.11472,-2.06322 -1.464413,-0.22836 -2.889563,0.3229 -3.187053,1.23539 -0.0164,1.05218 1.76434,1.61862 -0.26151,1.20538 -1.97829,-0.40352 -6.04013,-2.10835 -3.16995,-4.66695 l -0.60487,-0.38606 0.009,-0.004 z m 0,5.84654 -2.56938,2.48361 0.009,0.008 a 2.5707281,2.4823967 0 0 0 -0.009,0.23177 2.5707281,2.4823967 0 0 0 2.56938,2.47928 2.5707281,2.4823967 0 0 0 2.56939,-2.47928 2.5707281,2.4823967 0 0 0 -0.0177,-0.23177 l 0.0177,-0.008 z m 0,1.27822 1.3812,1.33402 -0.009,0.004 a 1.381229,1.3337695 0 0 1 0.009,0.12414 1.381229,1.3337695 0 0 1 -1.3812,1.33402 1.381229,1.3337695 0 0 1 -1.3812,-1.33402 1.381229,1.3337695 0 0 1 0.009,-0.12414 l -0.009,-0.004 z" /></g><g
         id="g8"><rect
           style="fill:#0242be;fill-opacity:1;stroke:#fddd8b;stroke-width:5.99703;stroke-linecap:square;stroke-dasharray:none;stroke-opacity:1"
           id="rect8"
           width="62.470776"
           height="61.568428"
           x="140.82544"
           y="394.10864"
           rx="10.741358"
           ry="10.792864" /><path
           id="path8"
           style="fill:#fddd8b;fill-opacity:1;stroke:none;stroke-width:0.439241;stroke-dasharray:none;stroke-opacity:1"
           d="m 172.06046,399.8125 a 2.5707281,2.4823967 0 0 0 -2.56938,2.4793 2.5707281,2.4823967 0 0 0 0.009,0.2316 l -0.009,0.0135 2.56938,2.48361 2.56939,-2.48361 -0.0177,-0.0135 a 2.5707281,2.4823967 0 0 0 0.0177,-0.2316 2.5707281,2.4823967 0 0 0 -2.56939,-2.4793 z m 0,1.1281 a 1.381229,1.3337695 0 0 1 1.3812,1.33403 1.381229,1.3337695 0 0 1 -0.009,0.12441 l 0.009,0.009 -1.3812,1.33406 -1.3812,-1.33402 0.009,-0.009 a 1.381229,1.3337695 0 0 1 -0.009,-0.12442 1.381229,1.3337695 0 0 1 1.3812,-1.33401 z m -7.07332,1.10666 c -2.46627,0.0613 -4.66422,0.87558 -4.82565,1.65573 -0.29793,0.91254 0.65044,1.83464 2.11472,2.06323 1.4644,0.22829 2.88956,-0.32279 3.18707,-1.23536 0.0164,-1.0522 -1.77295,-1.6186 0.25319,-1.20534 1.97823,0.40346 6.04433,2.10834 3.1742,4.66694 l 0.60488,0.38608 -0.004,0.009 2.56938,2.47931 2.56939,-2.47931 -0.009,-0.009 0.60487,-0.38607 c -2.87019,-2.55863 1.1916,-4.26345 3.1699,-4.66694 2.02604,-0.41324 0.24609,0.15313 0.26151,1.20534 0.29739,0.91253 1.72265,1.46362 3.18708,1.23536 1.46431,-0.22854 2.4127,-1.15074 2.1147,-2.06323 -0.34131,-1.64935 -9.7781,-3.42801 -11.64156,2.01175 -0.17284,-0.0147 -0.34622,-0.0106 -0.51906,0.004 -0.9215,-2.69941 -3.70361,-3.62769 -6.31838,-3.67178 -0.16629,-0.003 -0.3289,-0.004 -0.49328,0 z m -3.49162,6.54572 v 0.009 c -0.91535,0 -1.9354,0.0416 -3.05837,0.12864 l -4.7656,0.3431 c -1.8987,0.13369 -2.23242,0.2513 -2.23909,0.79356 0,0.10163 0.3997,0.23857 0.89217,0.29599 0.49219,0.0576 1.09106,0.25069 1.32542,0.42462 0.85042,0.63101 0.86815,0.89429 0.81932,11.74883 -2.17368,1.50559 -3.61462,-1.98873 -3.98065,-3.78327 -0.4132,-2.02602 0.15306,-0.23747 1.20538,-0.25313 0.91249,-0.29757 1.46361,-1.72267 1.23538,-3.18707 -0.19998,-1.28121 -0.92913,-2.16853 -1.72006,-2.17046 -0.11322,-2.8e-4 -0.22918,0.0184 -0.34308,0.0563 -0.78017,0.16145 -1.59432,2.35937 -1.65575,4.82564 -0.004,0.1644 -0.003,0.32695 0,0.4933 0.0437,2.61476 0.97238,5.39687 3.67179,6.31837 -0.015,0.17275 -0.0191,0.34624 -0.004,0.51902 -5.43975,1.86342 -3.66109,11.30023 -2.01174,11.64151 0.84605,0.27624 1.69246,-0.52575 1.99459,-1.81014 0.98057,0.03 2.41029,0.0436 4.04067,0.0341 l 5.04012,-0.0428 v -0.41618 c 0,-0.36833 -0.1105,-0.43332 -0.95656,-0.60052 -1.27249,-0.25431 -1.80689,-0.63315 -2.02461,-1.42017 -0.11459,-0.41501 -0.1813,-4.46552 -0.18443,-11.44427 V 410.2924 l 0.61333,-0.11991 c 0.33517,-0.0637 1.16376,-0.0722 1.84016,-0.0209 3.59318,0.26734 5.65874,2.17949 5.66209,5.25031 0.003,1.83174 -0.40325,2.86015 -1.62571,4.16935 -1.06173,1.13531 -2.16452,1.8321 -3.41011,2.15332 l -1.41123,0.36464 c -0.77361,0.20075 -0.80976,0.39806 -0.13232,0.74643 0.72328,0.37505 1.11248,0.84068 2.00317,2.3978 0.42848,0.75354 1.10511,1.90547 1.49702,2.5651 0.39506,0.65616 0.76843,1.33575 0.83214,1.50989 0.17188,0.45877 1.57853,2.41908 2.80102,3.89911 0.56709,0.68543 1.17755,1.34144 1.8316,1.97316 -0.60255,0.5293 -1.17359,1.01194 -1.6257,1.32979 -1.71785,1.21888 -4.00477,2.28946 -5.70926,2.66803 -2.87991,0.63597 -6.64701,0.35468 -8.62612,-0.64348 -0.86052,-0.43203 -1.16691,-0.40897 -0.86215,0.0682 0.30229,0.48537 3.19758,1.9109 4.59401,2.2691 1.04481,0.26751 1.8481,0.33872 3.66321,0.32167 1.27604,-0.0104 2.73719,-0.0873 3.24282,-0.17148 1.28272,-0.20871 3.60614,-1.01412 5.35753,-1.84446 0.89079,-0.42521 1.82536,-0.99665 2.74955,-1.66003 0.92422,0.66325 1.85799,1.2347 2.74525,1.66003 1.75479,0.83024 4.08263,1.63373 5.36182,1.84446 0.5091,0.0873 1.96376,0.16384 3.24286,0.17148 1.81494,0.0177 2.61498,-0.0532 3.66319,-0.32167 1.39626,-0.35509 4.28925,-1.7835 4.59402,-2.2691 0.3023,-0.47882 0.002,-0.50228 -0.86216,-0.0682 -1.9757,0.99816 -5.74949,1.27945 -8.6261,0.64348 -1.70464,-0.37842 -3.99239,-1.44918 -5.71365,-2.66807 a 20.092453,20.092453 0 0 1 -1.62145,-1.32979 c 0.65412,-0.63175 1.26445,-1.28777 1.8316,-1.97315 1.21902,-1.4801 2.63004,-3.44122 2.80101,-3.90341 0.0668,-0.16575 0.43613,-0.84597 0.82791,-1.5056 0.39507,-0.65616 1.07279,-1.81186 1.50133,-2.56509 0.8908,-1.55709 1.27986,-2.01847 2.00317,-2.39352 0.6728,-0.34824 0.63693,-0.54972 -0.13233,-0.75071 l -1.41133,-0.36465 c -1.24944,-0.32145 -2.35014,-1.0183 -3.41505,-2.15331 -1.22229,-1.3094 -1.62494,-2.3409 -1.62141,-4.16935 0,-3.0709 2.06905,-4.98578 5.6621,-5.2503 0.67281,-0.0502 1.5018,-0.0342 1.84018,0.0256 l 0.6091,0.11623 v 10.80088 c 0,6.97876 -0.0655,11.02903 -0.18034,11.44427 -0.21677,0.78704 -0.75534,1.16428 -2.02463,1.41551 -0.84714,0.16831 -0.95655,0.24187 -0.95655,0.60481 v 0.41618 l 5.04011,0.0428 c 1.62761,0.0135 3.05563,-0.004 4.03639,-0.0341 0.30107,1.28736 1.1519,2.09108 1.99888,1.81444 1.64936,-0.34131 3.42801,-9.77803 -2.01175,-11.64151 0.015,-0.17279 0.0104,-0.34626 -0.004,-0.51901 2.69941,-0.92146 3.62769,-3.70361 3.67176,-6.31837 0.003,-0.16634 0.004,-0.3289 0,-0.49329 -0.0627,-2.46627 -0.87552,-4.66423 -1.65573,-4.82565 -0.11322,-0.0367 -0.23027,-0.0563 -0.34322,-0.0563 -0.79081,0.002 -1.52007,0.88928 -1.72007,2.17047 -0.22836,1.4644 0.3229,2.88956 1.23539,3.18707 1.05232,0.016 1.61861,-1.77294 1.20538,0.25301 -0.36614,1.79493 -1.80624,5.29152 -3.98073,3.78331 -0.0491,-10.85663 -0.0327,-11.12184 0.81931,-11.75313 0.2356,-0.17504 0.8331,-0.36759 1.32543,-0.42463 0.49191,-0.0576 0.89216,-0.19083 0.89216,-0.29598 -0.0104,-0.5425 -0.34445,-0.65952 -2.2434,-0.79356 l -4.7654,-0.34377 c -4.51444,-0.33504 -7.14501,-0.049 -9.38531,1.01228 -1.61409,0.76344 -2.30804,1.39648 -2.95117,2.70237 -0.52561,1.07166 -0.57104,1.27246 -0.55767,2.77956 0.0135,2.03591 0.37706,2.92818 1.7501,4.32807 1.23239,1.25593 2.17134,1.85028 3.83908,2.43641 l 1.31683,0.46294 -0.87512,0.96089 a 33.487417,33.487417 0 0 0 -2.30333,3.12785 c -0.78358,1.19225 -1.79448,2.6287 -2.2434,3.19136 l -1.56135,1.97743 c -0.17816,0.22677 -0.4008,0.4836 -0.65208,0.75495 a 16.743708,16.743708 0 0 1 -0.6477,-0.75062 l -1.56601,-1.97847 a 60.277357,60.277357 0 0 1 -2.2348,-3.19565 33.487417,33.487417 0 0 0 -2.30344,-3.12702 l -0.8837,-0.96089 1.32542,-0.46331 a 8.7067288,8.7067288 0 0 0 3.83049,-2.43641 c 1.37628,-1.39984 1.74454,-2.29212 1.75439,-4.32806 0.0101,-1.50679 -0.0314,-1.70796 -0.55767,-2.77957 -0.64307,-1.30591 -1.33716,-1.93893 -2.95114,-2.70236 -1.68095,-0.79687 -3.58098,-1.15552 -6.32696,-1.14523 z m -12.04051,13.73484 a 2.4823967,2.5707281 0 0 0 -2.4793,2.56939 2.4823967,2.5707281 0 0 0 2.4793,2.56939 2.4823967,2.5707281 0 0 0 0.23164,-0.0173 l 0.0129,0.0173 2.48364,-2.56939 -2.4836,-2.56939 -0.0129,0.009 a 2.4823967,2.5707281 0 0 0 -0.23164,-0.009 z m 44.96642,0 -2.48362,2.56939 2.48362,2.56939 0.0135,-0.0173 a 2.4823967,2.5707281 0 0 0 0.23177,0.0173 2.4823967,2.5707281 0 0 0 2.47931,-2.56939 2.4823967,2.5707281 0 0 0 -2.47931,-2.56939 2.4823967,2.5707281 0 0 0 -0.23177,0.009 z m -44.98357,1.1882 a 1.3337695,1.381229 0 0 1 0.12414,0.009 l 0.009,-0.009 1.33402,1.38121 -1.33402,1.38121 -0.009,-0.009 a 1.3337695,1.381229 0 0 1 -0.12414,0.009 1.3337695,1.381229 0 0 1 -1.33402,-1.38121 1.3337695,1.381229 0 0 1 1.33403,-1.38121 z m 45.11225,0 0.008,0.009 a 1.3337695,1.381229 0 0 1 0.12414,-0.009 1.3337695,1.381229 0 0 1 1.33401,1.38121 1.3337695,1.381229 0 0 1 -1.33401,1.38121 1.3337695,1.381229 0 0 1 -0.12414,-0.009 l -0.008,0.009 -1.33402,-1.38121 z m -41.14451,3.55167 c 0.32345,-0.005 0.67049,0.11991 1.038,0.36888 l -0.0259,5.43474 -0.54471,0.48898 a 2.8464307,2.8464307 0 0 1 -0.90513,0.48901 c -0.045,-1.13847 -0.53679,-2.11454 -1.27399,-2.35489 -1.05218,-0.0158 -1.61858,1.76435 -1.20537,-0.26164 0.30257,-1.48367 1.33906,-4.14079 2.91682,-4.16506 z m 37.30971,0 c 1.57782,0.0243 2.61423,2.68139 2.91685,4.16507 0.41335,2.02603 -0.15333,0.24604 -1.20537,0.26163 -0.73624,0.24005 -1.22789,1.21397 -1.274,2.35063 a 2.8464307,2.8464307 0 0 1 -0.90512,-0.48899 l -0.54908,-0.489 -0.0259,-5.43045 c 0.369,-0.25101 0.71768,-0.37389 1.04235,-0.36889 z m -18.65485,11.85605 -2.56938,2.47933 0.004,0.004 -0.60487,0.38606 c 2.87013,2.55859 -1.19597,4.26343 -3.1742,4.66691 -2.02603,0.41334 -0.2375,-0.1532 -0.25305,-1.20538 -0.29752,-0.91263 -1.72267,-1.46363 -3.18707,-1.23539 -1.46424,0.22864 -2.41267,1.15068 -2.11471,2.06322 0.16138,0.78003 2.35937,1.59431 4.82565,1.65574 0.16438,0.004 0.32699,0.003 0.49328,0 2.61478,-0.0423 5.39688,-0.97238 6.31837,-3.67178 0.17271,0.015 0.34623,0.0177 0.51907,0.004 1.86347,5.43975 11.30027,3.66111 11.6416,2.01175 0.29793,-0.91249 -0.6503,-1.83462 -2.11472,-2.06322 -1.46442,-0.22836 -2.88957,0.3229 -3.18706,1.23539 -0.0164,1.05218 1.76434,1.61862 -0.26151,1.20538 -1.97829,-0.40352 -6.04013,-2.10835 -3.16995,-4.66695 l -0.60487,-0.38606 0.009,-0.004 z m 0,5.84654 -2.56938,2.48361 0.009,0.008 a 2.5707281,2.4823967 0 0 0 -0.009,0.23177 2.5707281,2.4823967 0 0 0 2.56938,2.47928 2.5707281,2.4823967 0 0 0 2.56939,-2.47928 2.5707281,2.4823967 0 0 0 -0.0177,-0.23177 l 0.0177,-0.008 z m 0,1.27822 1.3812,1.33402 -0.009,0.004 a 1.381229,1.3337695 0 0 1 0.009,0.12414 1.381229,1.3337695 0 0 1 -1.3812,1.33402 1.381229,1.3337695 0 0 1 -1.3812,-1.33402 1.381229,1.3337695 0 0 1 0.009,-0.12414 l -0.009,-0.004 z" /></g></g></g></svg>
